<svg width="197" height="254" viewBox="0 0 197 254" fill="none" xmlns="http://www.w3.org/2000/svg">
<g filter="url(#filter0_d)">
<rect x="7" y="4" width="183" height="240" rx="4" fill="#21222C"/>
<path d="M21.5 25.75L26 30.25L30.5 25.75" stroke="#D5D7E2" stroke-width="1.5"/>
<path fill-rule="evenodd" clip-rule="evenodd" d="M44.5 24V22.5C44.5 21.6716 45.17 21 46 21H55C55.83 21 56.5 21.6716 56.5 22.5V24H54.5V27H51.5V31H49.5H44.5V24ZM44 35H49.5V32H42.5V33.5C42.5 34.3284 43.17 35 44 35ZM52.5 28H55.5V31H52.5V28ZM53.5 32H50.5V35H53.5V32ZM57.5 32H54.5V35H57.5V32Z" fill="#FF6666"/>
<path d="M66.1346 23.7727V32.5H67.3874V26.1804H67.4684L70.0423 32.4872H71.082L73.6559 26.1847H73.7369V32.5H74.9897V23.7727H73.3917L70.6133 30.5568H70.511L67.7326 23.7727H66.1346ZM76.8018 32.5H78.076V25.9545H76.8018V32.5ZM77.4453 24.9446C77.8842 24.9446 78.2507 24.6037 78.2507 24.1861C78.2507 23.7685 77.8842 23.4233 77.4453 23.4233C77.0021 23.4233 76.6399 23.7685 76.6399 24.1861C76.6399 24.6037 77.0021 24.9446 77.4453 24.9446ZM82.2404 32.6278C83.4336 32.6278 83.9023 31.8991 84.1325 31.4815H84.239V32.5H85.4833V23.7727H84.2092V27.0156H84.1325C83.9023 26.6108 83.4677 25.8693 82.2489 25.8693C80.668 25.8693 79.5046 27.1179 79.5046 29.2401C79.5046 31.358 80.6509 32.6278 82.2404 32.6278ZM82.5217 31.5412C81.3839 31.5412 80.7915 30.5398 80.7915 29.2273C80.7915 27.9276 81.3711 26.9517 82.5217 26.9517C83.6339 26.9517 84.2305 27.8594 84.2305 29.2273C84.2305 30.6037 83.6211 31.5412 82.5217 31.5412ZM87.3018 32.5H88.576V25.9545H87.3018V32.5ZM87.9453 24.9446C88.3842 24.9446 88.7507 24.6037 88.7507 24.1861C88.7507 23.7685 88.3842 23.4233 87.9453 23.4233C87.5021 23.4233 87.1399 23.7685 87.1399 24.1861C87.1399 24.6037 87.5021 24.9446 87.9453 24.9446ZM90.3924 32.5H91.7092V29.4318H93.4989C95.5231 29.4318 96.5245 28.2088 96.5245 26.598C96.5245 24.9915 95.5316 23.7727 93.5032 23.7727H90.3924V32.5ZM91.7092 28.3153V24.902H93.3626C94.6665 24.902 95.1992 25.6094 95.1992 26.598C95.1992 27.5866 94.6665 28.3153 93.3796 28.3153H91.7092ZM99.2401 23.7727H97.9659V32.5H99.2401V23.7727ZM102.859 32.6449C103.941 32.6449 104.551 32.0952 104.794 31.6051H104.845V32.5H106.089V28.1534C106.089 26.2486 104.589 25.8693 103.549 25.8693C102.365 25.8693 101.274 26.3466 100.848 27.5398L102.045 27.8125C102.233 27.348 102.71 26.9006 103.566 26.9006C104.389 26.9006 104.811 27.331 104.811 28.0724V28.1023C104.811 28.5668 104.333 28.5582 103.157 28.6946C101.917 28.8395 100.647 29.1634 100.647 30.6506C100.647 31.9375 101.615 32.6449 102.859 32.6449ZM103.136 31.6222C102.416 31.6222 101.896 31.2983 101.896 30.6676C101.896 29.9858 102.501 29.7429 103.238 29.6449C103.652 29.5895 104.632 29.4787 104.815 29.2955V30.1392C104.815 30.9148 104.197 31.6222 103.136 31.6222ZM108.357 34.9545C109.41 34.9545 110.075 34.4048 110.454 33.3736L113.16 25.9673L111.783 25.9545L110.126 31.0341H110.058L108.4 25.9545H107.036L109.431 32.5852L109.273 33.0199C108.95 33.8892 108.494 33.9616 107.795 33.7699L107.488 34.8139C107.641 34.8821 107.974 34.9545 108.357 34.9545ZM116.947 32.6321C118.375 32.6321 119.385 31.929 119.674 30.8636L118.468 30.6463C118.238 31.2642 117.684 31.5795 116.96 31.5795C115.869 31.5795 115.136 30.8722 115.102 29.6108H119.755V29.1591C119.755 26.794 118.341 25.8693 116.858 25.8693C115.034 25.8693 113.832 27.2585 113.832 29.2699C113.832 31.3026 115.017 32.6321 116.947 32.6321ZM115.106 28.6562C115.157 27.7273 115.831 26.9219 116.866 26.9219C117.855 26.9219 118.502 27.6548 118.507 28.6562H115.106ZM121.169 32.5H122.443V28.5028C122.443 27.6463 123.104 27.0284 124.007 27.0284C124.271 27.0284 124.57 27.0753 124.672 27.1051V25.8864C124.544 25.8693 124.293 25.8565 124.131 25.8565C123.364 25.8565 122.707 26.2912 122.469 26.9943H122.401V25.9545H121.169V32.5Z" fill="#D5D7E2"/>
<path d="M45.75 56.5L50.25 52L45.75 47.5" stroke="#D5D7E2" stroke-width="1.5"/>
<path fill-rule="evenodd" clip-rule="evenodd" d="M66 46.5C65.45 46.5 65 46.9477 65 47.5V48.5H71L72 47.5L71.29 46.7929C71.11 46.6054 70.85 46.5 70.59 46.5H66ZM66 49.5C65.45 49.5 65 49.9477 65 50.5V56.5C65 57.0523 65.45 57.5 66 57.5H78C78.55 57.5 79 57.0523 79 56.5V48.5C79 47.9477 78.55 47.5 78 47.5H73.91C73.65 47.5 73.39 47.6054 73.21 47.7929L71.79 49.2071C71.61 49.3946 71.35 49.5 71.09 49.5H66Z" fill="#FFBC57"/>
<path d="M95.3832 50.6108C95.0849 48.7443 93.6232 47.6534 91.7781 47.6534C89.5195 47.6534 87.8533 49.3452 87.8533 52.1364C87.8533 54.9276 89.511 56.6193 91.7781 56.6193C93.6957 56.6193 95.0977 55.4176 95.3832 53.6918L94.0536 53.6875C93.8278 54.804 92.8903 55.4176 91.7866 55.4176C90.2908 55.4176 89.1616 54.2713 89.1616 52.1364C89.1616 50.0185 90.2866 48.8551 91.7908 48.8551C92.9031 48.8551 93.8363 49.4815 94.0536 50.6108H95.3832ZM99.6136 56.6321C101.459 56.6321 102.665 55.2812 102.665 53.2571C102.665 51.2202 101.459 49.8693 99.6136 49.8693C97.7685 49.8693 96.5625 51.2202 96.5625 53.2571C96.5625 55.2812 97.7685 56.6321 99.6136 56.6321ZM99.6179 55.5625C98.4119 55.5625 97.8494 54.5099 97.8494 53.2528C97.8494 52 98.4119 50.9347 99.6179 50.9347C100.815 50.9347 101.378 52 101.378 53.2528C101.378 54.5099 100.815 55.5625 99.6179 55.5625ZM104.087 56.5H105.361V52.4645C105.361 51.5824 105.979 50.9688 106.703 50.9688C107.411 50.9688 107.901 51.4375 107.901 52.1491V56.5H109.171V52.3281C109.171 51.5398 109.652 50.9688 110.483 50.9688C111.157 50.9688 111.711 51.3438 111.711 52.2301V56.5H112.985V52.1108C112.985 50.6151 112.15 49.8693 110.965 49.8693C110.023 49.8693 109.316 50.321 109 51.0199H108.932C108.647 50.304 108.046 49.8693 107.172 49.8693C106.307 49.8693 105.664 50.2997 105.391 51.0199H105.31V49.9545H104.087V56.5ZM114.692 58.9545H115.967V55.4815H116.043C116.273 55.8991 116.742 56.6278 117.935 56.6278C119.521 56.6278 120.671 55.358 120.671 53.2401C120.671 51.1179 119.504 49.8693 117.923 49.8693C116.708 49.8693 116.269 50.6108 116.043 51.0156H115.937V49.9545H114.692V58.9545ZM115.941 53.2273C115.941 51.8594 116.538 50.9517 117.65 50.9517C118.805 50.9517 119.384 51.9276 119.384 53.2273C119.384 54.5398 118.788 55.5412 117.65 55.5412C116.555 55.5412 115.941 54.6037 115.941 53.2273ZM124.856 56.6321C126.701 56.6321 127.907 55.2812 127.907 53.2571C127.907 51.2202 126.701 49.8693 124.856 49.8693C123.011 49.8693 121.805 51.2202 121.805 53.2571C121.805 55.2812 123.011 56.6321 124.856 56.6321ZM124.86 55.5625C123.654 55.5625 123.092 54.5099 123.092 53.2528C123.092 52 123.654 50.9347 124.86 50.9347C126.058 50.9347 126.62 52 126.62 53.2528C126.62 54.5099 126.058 55.5625 124.86 55.5625ZM130.603 52.6136C130.603 51.5696 131.243 50.973 132.129 50.973C132.994 50.973 133.518 51.5398 133.518 52.4901V56.5H134.792V52.3366C134.792 50.7173 133.902 49.8693 132.564 49.8693C131.579 49.8693 130.936 50.3253 130.633 51.0199H130.552V49.9545H129.329V56.5H130.603V52.6136ZM139.322 56.6321C140.75 56.6321 141.76 55.929 142.049 54.8636L140.843 54.6463C140.613 55.2642 140.059 55.5795 139.335 55.5795C138.244 55.5795 137.511 54.8722 137.477 53.6108H142.13V53.1591C142.13 50.794 140.716 49.8693 139.233 49.8693C137.409 49.8693 136.207 51.2585 136.207 53.2699C136.207 55.3026 137.392 56.6321 139.322 56.6321ZM137.481 52.6562C137.532 51.7273 138.206 50.9219 139.241 50.9219C140.23 50.9219 140.877 51.6548 140.882 52.6562H137.481ZM144.818 52.6136C144.818 51.5696 145.457 50.973 146.344 50.973C147.209 50.973 147.733 51.5398 147.733 52.4901V56.5H149.007V52.3366C149.007 50.7173 148.116 49.8693 146.778 49.8693C145.794 49.8693 145.151 50.3253 144.848 51.0199H144.767V49.9545H143.544V56.5H144.818V52.6136ZM153.771 49.9545H152.429V48.3864H151.155V49.9545H150.196V50.9773H151.155V54.8423C151.151 56.0312 152.058 56.6065 153.064 56.5852C153.469 56.581 153.741 56.5043 153.891 56.4489L153.661 55.3963C153.575 55.4134 153.418 55.4517 153.213 55.4517C152.8 55.4517 152.429 55.3153 152.429 54.5781V50.9773H153.771V49.9545ZM159.98 51.5526C159.716 50.5341 158.919 49.8693 157.504 49.8693C156.026 49.8693 154.977 50.6491 154.977 51.8082C154.977 52.7372 155.54 53.3551 156.767 53.6278L157.875 53.8707C158.506 54.0114 158.8 54.2926 158.8 54.7017C158.8 55.2088 158.259 55.6051 157.423 55.6051C156.661 55.6051 156.17 55.277 156.017 54.6335L154.786 54.821C154.999 55.9801 155.962 56.6321 157.432 56.6321C159.013 56.6321 160.108 55.7926 160.108 54.608C160.108 53.6832 159.52 53.1122 158.318 52.8352L157.278 52.5966C156.558 52.4261 156.247 52.1832 156.251 51.7401C156.247 51.2372 156.793 50.8793 157.517 50.8793C158.31 50.8793 158.676 51.3182 158.825 51.7571L159.98 51.5526Z" fill="#D5D7E2"/>
<path d="M45.75 80.5L50.25 76L45.75 71.5" stroke="#D5D7E2" stroke-width="1.5"/>
<path fill-rule="evenodd" clip-rule="evenodd" d="M66 70.5C65.45 70.5 65 70.9477 65 71.5V72.5H71L72 71.5L71.29 70.7929C71.11 70.6054 70.85 70.5 70.59 70.5H66ZM66 73.5C65.45 73.5 65 73.9477 65 74.5V80.5C65 81.0523 65.45 81.5 66 81.5H78C78.55 81.5 79 81.0523 79 80.5V72.5C79 71.9477 78.55 71.5 78 71.5H73.91C73.65 71.5 73.39 71.6054 73.21 71.7929L71.79 73.2071C71.61 73.3946 71.35 73.5 71.09 73.5H66Z" fill="#FFBC57"/>
<path d="M93.7468 71.7727V77.4062C93.7468 78.5909 92.9286 79.4432 91.5991 79.4432C90.2738 79.4432 89.4513 78.5909 89.4513 77.4062V71.7727H88.1346V77.5128C88.1346 79.3452 89.5067 80.6449 91.5991 80.6449C93.6914 80.6449 95.0678 79.3452 95.0678 77.5128V71.7727H93.7468ZM99.9354 73.9545H98.593V72.3864H97.3189V73.9545H96.3601V74.9773H97.3189V78.8423C97.3146 80.0312 98.2223 80.6065 99.228 80.5852C99.6328 80.581 99.9055 80.5043 100.055 80.4489L99.8246 79.3963C99.7393 79.4134 99.5817 79.4517 99.3771 79.4517C98.9638 79.4517 98.593 79.3153 98.593 78.5781V74.9773H99.9354V73.9545ZM101.345 80.5H102.619V73.9545H101.345V80.5ZM101.988 72.9446C102.427 72.9446 102.794 72.6037 102.794 72.1861C102.794 71.7685 102.427 71.4233 101.988 71.4233C101.545 71.4233 101.183 71.7685 101.183 72.1861C101.183 72.6037 101.545 72.9446 101.988 72.9446ZM105.607 71.7727H104.333V80.5H105.607V71.7727Z" fill="#D5D7E2"/>
<path fill-rule="evenodd" clip-rule="evenodd" d="M67.5 96V94.5C67.5 93.6716 68.17 93 69 93H78C78.83 93 79.5 93.6716 79.5 94.5V96H77.5V99H74.5V103H72.5H67.5V96ZM67 107H72.5V104H65.5V105.5C65.5 106.328 66.17 107 67 107ZM75.5 100H78.5V103H75.5V100ZM76.5 104H73.5V107H76.5V104ZM80.5 104H77.5V107H80.5V104Z" fill="#FF6666"/>
<path d="M89.1346 104.5H90.4513V100.695H94.1587V99.5653H90.4513V96.9062H94.5465V95.7727H89.1346V104.5ZM97.945 104.645C99.0273 104.645 99.6367 104.095 99.8796 103.605H99.9308V104.5H101.175V100.153C101.175 98.2486 99.6751 97.8693 98.6353 97.8693C97.4506 97.8693 96.3597 98.3466 95.9336 99.5398L97.131 99.8125C97.3185 99.348 97.7958 98.9006 98.6523 98.9006C99.4748 98.9006 99.8967 99.331 99.8967 100.072V100.102C99.8967 100.567 99.4194 100.558 98.2433 100.695C97.0032 100.839 95.7333 101.163 95.7333 102.651C95.7333 103.938 96.7006 104.645 97.945 104.645ZM98.2219 103.622C97.5018 103.622 96.9819 103.298 96.9819 102.668C96.9819 101.986 97.587 101.743 98.3242 101.645C98.7376 101.589 99.7177 101.479 99.9009 101.295V102.139C99.9009 102.915 99.283 103.622 98.2219 103.622ZM107.777 99.5526C107.513 98.5341 106.716 97.8693 105.301 97.8693C103.822 97.8693 102.774 98.6491 102.774 99.8082C102.774 100.737 103.337 101.355 104.564 101.628L105.672 101.871C106.303 102.011 106.597 102.293 106.597 102.702C106.597 103.209 106.055 103.605 105.22 103.605C104.457 103.605 103.967 103.277 103.814 102.634L102.582 102.821C102.795 103.98 103.759 104.632 105.229 104.632C106.81 104.632 107.905 103.793 107.905 102.608C107.905 101.683 107.317 101.112 106.115 100.835L105.075 100.597C104.355 100.426 104.044 100.183 104.048 99.7401C104.044 99.2372 104.589 98.8793 105.314 98.8793C106.107 98.8793 106.473 99.3182 106.622 99.7571L107.777 99.5526ZM112.361 97.9545H111.019V96.3864H109.745V97.9545H108.786V98.9773H109.745V102.842C109.74 104.031 110.648 104.607 111.654 104.585C112.059 104.581 112.331 104.504 112.48 104.449L112.25 103.396C112.165 103.413 112.007 103.452 111.803 103.452C111.39 103.452 111.019 103.315 111.019 102.578V98.9773H112.361V97.9545ZM116.839 104.5C119.498 104.5 121.036 102.851 121.036 100.124C121.036 97.4091 119.498 95.7727 116.928 95.7727H114.013V104.5H116.839ZM115.33 103.349V96.9233H116.847C118.756 96.9233 119.741 98.0653 119.741 100.124C119.741 102.19 118.756 103.349 116.766 103.349H115.33ZM122.571 104.5H123.846V100.503C123.846 99.6463 124.506 99.0284 125.409 99.0284C125.674 99.0284 125.972 99.0753 126.074 99.1051V97.8864C125.946 97.8693 125.695 97.8565 125.533 97.8565C124.766 97.8565 124.11 98.2912 123.871 98.9943H123.803V97.9545H122.571V104.5ZM129.023 104.645C130.105 104.645 130.715 104.095 130.958 103.605H131.009V104.5H132.253V100.153C132.253 98.2486 130.753 97.8693 129.713 97.8693C128.529 97.8693 127.438 98.3466 127.012 99.5398L128.209 99.8125C128.397 99.348 128.874 98.9006 129.73 98.9006C130.553 98.9006 130.975 99.331 130.975 100.072V100.102C130.975 100.567 130.498 100.558 129.321 100.695C128.081 100.839 126.811 101.163 126.811 102.651C126.811 103.938 127.779 104.645 129.023 104.645ZM129.3 103.622C128.58 103.622 128.06 103.298 128.06 102.668C128.06 101.986 128.665 101.743 129.402 101.645C129.816 101.589 130.796 101.479 130.979 101.295V102.139C130.979 102.915 130.361 103.622 129.3 103.622ZM136.695 107.091C138.361 107.091 139.648 106.328 139.648 104.645V97.9545H138.399V99.0156H138.305C138.08 98.6108 137.628 97.8693 136.409 97.8693C134.828 97.8693 133.665 99.1179 133.665 101.202C133.665 103.29 134.854 104.402 136.401 104.402C137.602 104.402 138.067 103.724 138.297 103.307H138.378V104.594C138.378 105.621 137.675 106.064 136.707 106.064C135.646 106.064 135.233 105.531 135.007 105.156L133.912 105.608C134.257 106.409 135.131 107.091 136.695 107.091ZM136.682 103.345C135.544 103.345 134.952 102.472 134.952 101.185C134.952 99.9276 135.531 98.9517 136.682 98.9517C137.794 98.9517 138.391 99.8594 138.391 101.185C138.391 102.536 137.781 103.345 136.682 103.345ZM144.101 107.091C145.767 107.091 147.054 106.328 147.054 104.645V97.9545H145.805V99.0156H145.712C145.486 98.6108 145.034 97.8693 143.815 97.8693C142.234 97.8693 141.071 99.1179 141.071 101.202C141.071 103.29 142.26 104.402 143.807 104.402C145.009 104.402 145.473 103.724 145.703 103.307H145.784V104.594C145.784 105.621 145.081 106.064 144.114 106.064C143.053 106.064 142.639 105.531 142.413 105.156L141.318 105.608C141.663 106.409 142.537 107.091 144.101 107.091ZM144.088 103.345C142.95 103.345 142.358 102.472 142.358 101.185C142.358 99.9276 142.938 98.9517 144.088 98.9517C145.2 98.9517 145.797 99.8594 145.797 101.185C145.797 102.536 145.188 103.345 144.088 103.345ZM150.668 104.645C151.75 104.645 152.359 104.095 152.602 103.605H152.653V104.5H153.898V100.153C153.898 98.2486 152.398 97.8693 151.358 97.8693C150.173 97.8693 149.082 98.3466 148.656 99.5398L149.854 99.8125C150.041 99.348 150.518 98.9006 151.375 98.9006C152.197 98.9006 152.619 99.331 152.619 100.072V100.102C152.619 100.567 152.142 100.558 150.966 100.695C149.726 100.839 148.456 101.163 148.456 102.651C148.456 103.938 149.423 104.645 150.668 104.645ZM150.945 103.622C150.224 103.622 149.705 103.298 149.705 102.668C149.705 101.986 150.31 101.743 151.047 101.645C151.46 101.589 152.44 101.479 152.624 101.295V102.139C152.624 102.915 152.006 103.622 150.945 103.622ZM155.697 104.5H156.941V103.482H157.048C157.278 103.899 157.747 104.628 158.94 104.628C160.525 104.628 161.676 103.358 161.676 101.24C161.676 99.1179 160.508 97.8693 158.927 97.8693C157.713 97.8693 157.274 98.6108 157.048 99.0156H156.971V95.7727H155.697V104.5ZM156.946 101.227C156.946 99.8594 157.542 98.9517 158.654 98.9517C159.809 98.9517 160.389 99.9276 160.389 101.227C160.389 102.54 159.792 103.541 158.654 103.541C157.559 103.541 156.946 102.604 156.946 101.227ZM164.381 95.7727H163.107V104.5H164.381V95.7727ZM168.916 104.632C170.343 104.632 171.353 103.929 171.643 102.864L170.437 102.646C170.207 103.264 169.653 103.58 168.929 103.58C167.838 103.58 167.105 102.872 167.071 101.611H171.724V101.159C171.724 98.794 170.309 97.8693 168.826 97.8693C167.002 97.8693 165.801 99.2585 165.801 101.27C165.801 103.303 166.985 104.632 168.916 104.632ZM167.075 100.656C167.126 99.7273 167.799 98.9219 168.835 98.9219C169.824 98.9219 170.471 99.6548 170.475 100.656H167.075Z" fill="#D5D7E2"/>
<path fill-rule="evenodd" clip-rule="evenodd" d="M67.5 120V118.5C67.5 117.672 68.17 117 69 117H78C78.83 117 79.5 117.672 79.5 118.5V120H77.5V123H74.5V127H72.5H67.5V120ZM67 131H72.5V128H65.5V129.5C65.5 130.328 66.17 131 67 131ZM75.5 124H78.5V127H75.5V124ZM76.5 128H73.5V131H76.5V128ZM80.5 128H77.5V131H80.5V128Z" fill="#FF6666"/>
<path d="M89.1346 128.5H90.4513V124.695H94.1587V123.565H90.4513V120.906H94.5465V119.773H89.1346V128.5ZM97.945 128.645C99.0273 128.645 99.6367 128.095 99.8796 127.605H99.9308V128.5H101.175V124.153C101.175 122.249 99.6751 121.869 98.6353 121.869C97.4506 121.869 96.3597 122.347 95.9336 123.54L97.131 123.812C97.3185 123.348 97.7958 122.901 98.6523 122.901C99.4748 122.901 99.8967 123.331 99.8967 124.072V124.102C99.8967 124.567 99.4194 124.558 98.2433 124.695C97.0032 124.839 95.7333 125.163 95.7333 126.651C95.7333 127.938 96.7006 128.645 97.945 128.645ZM98.2219 127.622C97.5018 127.622 96.9819 127.298 96.9819 126.668C96.9819 125.986 97.587 125.743 98.3242 125.645C98.7376 125.589 99.7177 125.479 99.9009 125.295V126.139C99.9009 126.915 99.283 127.622 98.2219 127.622ZM107.777 123.553C107.513 122.534 106.716 121.869 105.301 121.869C103.822 121.869 102.774 122.649 102.774 123.808C102.774 124.737 103.337 125.355 104.564 125.628L105.672 125.871C106.303 126.011 106.597 126.293 106.597 126.702C106.597 127.209 106.055 127.605 105.22 127.605C104.457 127.605 103.967 127.277 103.814 126.634L102.582 126.821C102.795 127.98 103.759 128.632 105.229 128.632C106.81 128.632 107.905 127.793 107.905 126.608C107.905 125.683 107.317 125.112 106.115 124.835L105.075 124.597C104.355 124.426 104.044 124.183 104.048 123.74C104.044 123.237 104.589 122.879 105.314 122.879C106.107 122.879 106.473 123.318 106.622 123.757L107.777 123.553ZM112.361 121.955H111.019V120.386H109.745V121.955H108.786V122.977H109.745V126.842C109.74 128.031 110.648 128.607 111.654 128.585C112.059 128.581 112.331 128.504 112.48 128.449L112.25 127.396C112.165 127.413 112.007 127.452 111.803 127.452C111.39 127.452 111.019 127.315 111.019 126.578V122.977H112.361V121.955ZM113.032 120.906H115.751V128.5H117.064V120.906H119.787V119.773H113.032V120.906ZM121.846 128.5H123.141L124.471 123.774H124.569L125.898 128.5H127.198L129.12 121.955H127.803L126.529 126.74H126.465L125.187 121.955H123.87L122.583 126.761H122.519L121.237 121.955H119.92L121.846 128.5ZM132.951 128.632C134.379 128.632 135.388 127.929 135.678 126.864L134.472 126.646C134.242 127.264 133.688 127.58 132.964 127.58C131.873 127.58 131.14 126.872 131.106 125.611H135.759V125.159C135.759 122.794 134.344 121.869 132.862 121.869C131.038 121.869 129.836 123.259 129.836 125.27C129.836 127.303 131.021 128.632 132.951 128.632ZM131.11 124.656C131.161 123.727 131.835 122.922 132.87 122.922C133.859 122.922 134.506 123.655 134.511 124.656H131.11ZM139.994 128.632C141.422 128.632 142.431 127.929 142.721 126.864L141.515 126.646C141.285 127.264 140.731 127.58 140.007 127.58C138.916 127.58 138.183 126.872 138.149 125.611H142.802V125.159C142.802 122.794 141.387 121.869 139.904 121.869C138.081 121.869 136.879 123.259 136.879 125.27C136.879 127.303 138.064 128.632 139.994 128.632ZM138.153 124.656C138.204 123.727 138.877 122.922 139.913 122.922C140.902 122.922 141.549 123.655 141.554 124.656H138.153ZM145.49 124.614C145.49 123.57 146.129 122.973 147.016 122.973C147.881 122.973 148.405 123.54 148.405 124.49V128.5H149.679V124.337C149.679 122.717 148.788 121.869 147.45 121.869C146.466 121.869 145.822 122.325 145.52 123.02H145.439V121.955H144.216V128.5H145.49V124.614Z" fill="#D5D7E2"/>
<path fill-rule="evenodd" clip-rule="evenodd" d="M67.5 144V142.5C67.5 141.672 68.17 141 69 141H78C78.83 141 79.5 141.672 79.5 142.5V144H77.5V147H74.5V151H72.5H67.5V144ZM67 155H72.5V152H65.5V153.5C65.5 154.328 66.17 155 67 155ZM75.5 148H78.5V151H75.5V148ZM76.5 152H73.5V155H76.5V152ZM80.5 152H77.5V155H80.5V152Z" fill="#FF6666"/>
<path d="M90.4513 143.773H89.1346V152.5H90.4513V143.773ZM93.5408 148.614C93.5408 147.57 94.18 146.973 95.0664 146.973C95.9315 146.973 96.4556 147.54 96.4556 148.49V152.5H97.7298V148.337C97.7298 146.717 96.8391 145.869 95.5011 145.869C94.5167 145.869 93.8732 146.325 93.5707 147.02H93.4897V145.955H92.2667V152.5H93.5408V148.614ZM99.4386 154.955H100.713V151.482H100.789C101.02 151.899 101.488 152.628 102.681 152.628C104.267 152.628 105.417 151.358 105.417 149.24C105.417 147.118 104.25 145.869 102.669 145.869C101.454 145.869 101.015 146.611 100.789 147.016H100.683V145.955H99.4386V154.955ZM100.687 149.227C100.687 147.859 101.284 146.952 102.396 146.952C103.551 146.952 104.13 147.928 104.13 149.227C104.13 150.54 103.534 151.541 102.396 151.541C101.301 151.541 100.687 150.604 100.687 149.227ZM110.991 149.786C110.995 150.898 110.169 151.426 109.453 151.426C108.664 151.426 108.119 150.855 108.119 149.964V145.955H106.845V150.118C106.845 151.741 107.735 152.585 108.993 152.585C109.977 152.585 110.646 152.065 110.949 151.366H111.017V152.5H112.27V145.955H110.991V149.786ZM117.037 145.955H115.695V144.386H114.42V145.955H113.462V146.977H114.42V150.842C114.416 152.031 115.324 152.607 116.33 152.585C116.734 152.581 117.007 152.504 117.156 152.449L116.926 151.396C116.841 151.413 116.683 151.452 116.479 151.452C116.065 151.452 115.695 151.315 115.695 150.578V146.977H117.037V145.955Z" fill="#D5D7E2"/>
<path fill-rule="evenodd" clip-rule="evenodd" d="M67.5 168V166.5C67.5 165.672 68.17 165 69 165H78C78.83 165 79.5 165.672 79.5 166.5V168H77.5V171H74.5V175H72.5H67.5V168ZM67 179H72.5V176H65.5V177.5C65.5 178.328 66.17 179 67 179ZM75.5 172H78.5V175H75.5V172ZM76.5 176H73.5V179H76.5V176ZM80.5 176H77.5V179H80.5V176Z" fill="#FF6666"/>
<path d="M89.1346 167.773V176.5H90.3874V170.18H90.4684L93.0423 176.487H94.082L96.6559 170.185H96.7369V176.5H97.9897V167.773H96.3917L93.6133 174.557H93.511L90.7326 167.773H89.1346ZM101.221 167.773H99.9041V176.5H101.221V167.773ZM105.964 176.5C108.623 176.5 110.161 174.851 110.161 172.124C110.161 169.409 108.623 167.773 106.053 167.773H103.138V176.5H105.964ZM104.455 175.349V168.923H105.972C107.881 168.923 108.866 170.065 108.866 172.124C108.866 174.19 107.881 175.349 105.891 175.349H104.455ZM113.115 167.773H111.799V176.5H113.115V167.773Z" fill="#D5D7E2"/>
<path fill-rule="evenodd" clip-rule="evenodd" d="M67.5 192V190.5C67.5 189.672 68.17 189 69 189H78C78.83 189 79.5 189.672 79.5 190.5V192H77.5V195H74.5V199H72.5H67.5V192ZM67 203H72.5V200H65.5V201.5C65.5 202.328 66.17 203 67 203ZM75.5 196H78.5V199H75.5V196ZM76.5 200H73.5V203H76.5V200ZM80.5 200H77.5V203H80.5V200Z" fill="#FF6666"/>
<path d="M93.8945 194.065H95.1644C95.1261 192.668 93.8903 191.653 92.1175 191.653C90.3661 191.653 89.0238 192.655 89.0238 194.159C89.0238 195.374 89.8931 196.085 91.2951 196.464L92.3263 196.746C93.2596 196.993 93.9798 197.3 93.9798 198.075C93.9798 198.928 93.1658 199.49 92.0451 199.49C91.0309 199.49 90.1871 199.038 90.1104 198.088H88.7894C88.8746 199.669 90.0977 200.645 92.0536 200.645C94.1033 200.645 95.2837 199.567 95.2837 198.088C95.2837 196.516 93.8817 195.906 92.7738 195.634L91.9215 195.412C91.2397 195.237 90.332 194.918 90.3363 194.082C90.3363 193.341 91.0138 192.791 92.0877 192.791C93.0891 192.791 93.8008 193.26 93.8945 194.065ZM99.5121 200.632C101.357 200.632 102.563 199.281 102.563 197.257C102.563 195.22 101.357 193.869 99.5121 193.869C97.6669 193.869 96.4609 195.22 96.4609 197.257C96.4609 199.281 97.6669 200.632 99.5121 200.632ZM99.5163 199.562C98.3104 199.562 97.7479 198.51 97.7479 197.253C97.7479 196 98.3104 194.935 99.5163 194.935C100.714 194.935 101.276 196 101.276 197.253C101.276 198.51 100.714 199.562 99.5163 199.562ZM105.26 196.614C105.26 195.57 105.899 194.973 106.785 194.973C107.65 194.973 108.174 195.54 108.174 196.49V200.5H109.449V196.337C109.449 194.717 108.558 193.869 107.22 193.869C106.235 193.869 105.592 194.325 105.289 195.02H105.208V193.955H103.985V200.5H105.26V196.614ZM113.902 203.091C115.568 203.091 116.855 202.328 116.855 200.645V193.955H115.606V195.016H115.512C115.287 194.611 114.835 193.869 113.616 193.869C112.035 193.869 110.872 195.118 110.872 197.202C110.872 199.29 112.061 200.402 113.608 200.402C114.809 200.402 115.274 199.724 115.504 199.307H115.585V200.594C115.585 201.621 114.882 202.064 113.914 202.064C112.853 202.064 112.44 201.531 112.214 201.156L111.119 201.608C111.464 202.409 112.338 203.091 113.902 203.091ZM113.889 199.345C112.751 199.345 112.159 198.472 112.159 197.185C112.159 195.928 112.738 194.952 113.889 194.952C115.001 194.952 115.598 195.859 115.598 197.185C115.598 198.536 114.988 199.345 113.889 199.345Z" fill="#D5D7E2"/>
<path fill-rule="evenodd" clip-rule="evenodd" d="M67.5 216V214.5C67.5 213.672 68.17 213 69 213H78C78.83 213 79.5 213.672 79.5 214.5V216H77.5V219H74.5V223H72.5H67.5V216ZM67 227H72.5V224H65.5V225.5C65.5 226.328 66.17 227 67 227ZM75.5 220H78.5V223H75.5V220ZM76.5 224H73.5V227H76.5V224ZM80.5 224H77.5V227H80.5V224Z" fill="#FF6666"/>
<path d="M88.7042 216.906H91.4229V224.5H92.7354V216.906H95.4585V215.773H88.7042V216.906ZM97.8629 224.645C98.9453 224.645 99.5547 224.095 99.7976 223.605H99.8487V224.5H101.093V220.153C101.093 218.249 99.593 217.869 98.5533 217.869C97.3686 217.869 96.2777 218.347 95.8516 219.54L97.049 219.812C97.2365 219.348 97.7138 218.901 98.5703 218.901C99.3928 218.901 99.8146 219.331 99.8146 220.072V220.102C99.8146 220.567 99.3374 220.558 98.1612 220.695C96.9212 220.839 95.6513 221.163 95.6513 222.651C95.6513 223.938 96.6186 224.645 97.8629 224.645ZM98.1399 223.622C97.4197 223.622 96.8999 223.298 96.8999 222.668C96.8999 221.986 97.505 221.743 98.2422 221.645C98.6555 221.589 99.6357 221.479 99.8189 221.295V222.139C99.8189 222.915 99.201 223.622 98.1399 223.622ZM107.695 219.553C107.431 218.534 106.634 217.869 105.219 217.869C103.74 217.869 102.692 218.649 102.692 219.808C102.692 220.737 103.255 221.355 104.482 221.628L105.59 221.871C106.221 222.011 106.515 222.293 106.515 222.702C106.515 223.209 105.973 223.605 105.138 223.605C104.375 223.605 103.885 223.277 103.732 222.634L102.5 222.821C102.713 223.98 103.676 224.632 105.147 224.632C106.728 224.632 107.823 223.793 107.823 222.608C107.823 221.683 107.235 221.112 106.033 220.835L104.993 220.597C104.273 220.426 103.962 220.183 103.966 219.74C103.962 219.237 104.507 218.879 105.232 218.879C106.025 218.879 106.391 219.318 106.54 219.757L107.695 219.553ZM109.224 224.5H110.498V222.178L111.133 221.543L113.357 224.5H114.921L112.092 220.763L114.742 217.955H113.217L110.609 220.724H110.498V215.773H109.224V224.5ZM120.766 218.065H122.036C121.997 216.668 120.761 215.653 118.989 215.653C117.237 215.653 115.895 216.655 115.895 218.159C115.895 219.374 116.764 220.085 118.166 220.464L119.197 220.746C120.131 220.993 120.851 221.3 120.851 222.075C120.851 222.928 120.037 223.49 118.916 223.49C117.902 223.49 117.058 223.038 116.982 222.088H115.661C115.746 223.669 116.969 224.645 118.925 224.645C120.974 224.645 122.155 223.567 122.155 222.088C122.155 220.516 120.753 219.906 119.645 219.634L118.793 219.412C118.111 219.237 117.203 218.918 117.207 218.082C117.207 217.341 117.885 216.791 118.959 216.791C119.96 216.791 120.672 217.26 120.766 218.065ZM126.383 224.632C127.93 224.632 128.931 223.703 129.072 222.429H127.832C127.67 223.136 127.12 223.554 126.392 223.554C125.314 223.554 124.619 222.655 124.619 221.227C124.619 219.825 125.326 218.943 126.392 218.943C127.201 218.943 127.696 219.455 127.832 220.068H129.072C128.936 218.747 127.858 217.869 126.37 217.869C124.525 217.869 123.332 219.259 123.332 221.257C123.332 223.23 124.483 224.632 126.383 224.632ZM131.709 220.614C131.709 219.57 132.369 218.973 133.277 218.973C134.155 218.973 134.679 219.531 134.679 220.49V224.5H135.953V220.337C135.953 218.705 135.058 217.869 133.712 217.869C132.693 217.869 132.08 218.312 131.773 219.02H131.692V215.773H130.435V224.5H131.709V220.614ZM140.474 224.632C141.902 224.632 142.912 223.929 143.202 222.864L141.996 222.646C141.766 223.264 141.212 223.58 140.487 223.58C139.396 223.58 138.663 222.872 138.629 221.611H143.283V221.159C143.283 218.794 141.868 217.869 140.385 217.869C138.561 217.869 137.359 219.259 137.359 221.27C137.359 223.303 138.544 224.632 140.474 224.632ZM138.634 220.656C138.685 219.727 139.358 218.922 140.393 218.922C141.382 218.922 142.03 219.655 142.034 220.656H138.634ZM147.147 224.628C148.34 224.628 148.809 223.899 149.039 223.482H149.145V224.5H150.39V215.773H149.115V219.016H149.039C148.809 218.611 148.374 217.869 147.155 217.869C145.574 217.869 144.411 219.118 144.411 221.24C144.411 223.358 145.557 224.628 147.147 224.628ZM147.428 223.541C146.29 223.541 145.698 222.54 145.698 221.227C145.698 219.928 146.277 218.952 147.428 218.952C148.54 218.952 149.137 219.859 149.137 221.227C149.137 222.604 148.527 223.541 147.428 223.541ZM156.354 221.786C156.359 222.898 155.532 223.426 154.816 223.426C154.028 223.426 153.482 222.855 153.482 221.964V217.955H152.208V222.118C152.208 223.741 153.099 224.585 154.356 224.585C155.34 224.585 156.009 224.065 156.312 223.366H156.38V224.5H157.633V217.955H156.354V221.786ZM160.619 215.773H159.345V224.5H160.619V215.773ZM165.154 224.632C166.582 224.632 167.592 223.929 167.881 222.864L166.675 222.646C166.445 223.264 165.891 223.58 165.167 223.58C164.076 223.58 163.343 222.872 163.309 221.611H167.962V221.159C167.962 218.794 166.548 217.869 165.065 217.869C163.241 217.869 162.039 219.259 162.039 221.27C162.039 223.303 163.224 224.632 165.154 224.632ZM163.313 220.656C163.364 219.727 164.038 218.922 165.073 218.922C166.062 218.922 166.71 219.655 166.714 220.656H163.313ZM169.376 224.5H170.65V220.503C170.65 219.646 171.311 219.028 172.214 219.028C172.478 219.028 172.777 219.075 172.879 219.105V217.886C172.751 217.869 172.5 217.857 172.338 217.857C171.571 217.857 170.914 218.291 170.676 218.994H170.608V217.955H169.376V224.5Z" fill="#D5D7E2"/>
</g>
<defs>
<filter id="filter0_d" x="0" y="0" width="197" height="254" filterUnits="userSpaceOnUse" color-interpolation-filters="sRGB">
<feFlood flood-opacity="0" result="BackgroundImageFix"/>
<feColorMatrix in="SourceAlpha" type="matrix" values="0 0 0 0 0 0 0 0 0 0 0 0 0 0 0 0 0 0 127 0"/>
<feOffset dy="3"/>
<feGaussianBlur stdDeviation="3.5"/>
<feColorMatrix type="matrix" values="0 0 0 0 0 0 0 0 0 0 0 0 0 0 0 0 0 0 0.18 0"/>
<feBlend mode="normal" in2="BackgroundImageFix" result="effect1_dropShadow"/>
<feBlend mode="normal" in="SourceGraphic" in2="effect1_dropShadow" result="shape"/>
</filter>
</defs>
</svg>
