<svg width="171" height="110" viewBox="0 0 171 110" fill="none" xmlns="http://www.w3.org/2000/svg">
<g filter="url(#filter0_d)">
<rect x="7" y="4" width="157" height="96" rx="4" fill="#21222C"/>
<path d="M21.5 25.75L26 30.25L30.5 25.75" stroke="#D5D7E2" stroke-width="1.5"/>
<path fill-rule="evenodd" clip-rule="evenodd" d="M44.5 24V22.5C44.5 21.6716 45.17 21 46 21H55C55.83 21 56.5 21.6716 56.5 22.5V24H54.5V27H51.5V31H49.5H44.5V24ZM44 35H49.5V32H42.5V33.5C42.5 34.3284 43.17 35 44 35ZM52.5 28H55.5V31H52.5V28ZM53.5 32H50.5V35H53.5V32ZM57.5 32H54.5V35H57.5V32Z" fill="#FF6666"/>
<path d="M66.1346 23.7727V32.5H67.3874V26.1804H67.4684L70.0423 32.4872H71.082L73.6559 26.1847H73.7369V32.5H74.9897V23.7727H73.3917L70.6133 30.5568H70.511L67.7326 23.7727H66.1346ZM77.6072 34.9545C78.6598 34.9545 79.3246 34.4048 79.7038 33.3736L82.4098 25.9673L81.0334 25.9545L79.3757 31.0341H79.3075L77.6499 25.9545H76.2862L78.6811 32.5852L78.5234 33.0199C78.1996 33.8892 77.7436 33.9616 77.0447 33.7699L76.7379 34.8139C76.8913 34.8821 77.2237 34.9545 77.6072 34.9545ZM83.7127 23.7727V32.5H84.9656V26.1804H85.0465L87.6204 32.4872H88.6602L91.234 26.1847H91.315V32.5H92.5678V23.7727H90.9698L88.1914 30.5568H88.0891L85.3107 23.7727H83.7127ZM97.1371 32.6321C98.9822 32.6321 100.188 31.2812 100.188 29.2571C100.188 27.2202 98.9822 25.8693 97.1371 25.8693C95.2919 25.8693 94.0859 27.2202 94.0859 29.2571C94.0859 31.2812 95.2919 32.6321 97.1371 32.6321ZM97.1413 31.5625C95.9354 31.5625 95.3729 30.5099 95.3729 29.2528C95.3729 28 95.9354 26.9347 97.1413 26.9347C98.3388 26.9347 98.9013 28 98.9013 29.2528C98.9013 30.5099 98.3388 31.5625 97.1413 31.5625ZM104.061 32.6278C105.254 32.6278 105.723 31.8991 105.953 31.4815H106.059V32.5H107.304V23.7727H106.029V27.0156H105.953C105.723 26.6108 105.288 25.8693 104.069 25.8693C102.488 25.8693 101.325 27.1179 101.325 29.2401C101.325 31.358 102.471 32.6278 104.061 32.6278ZM104.342 31.5412C103.204 31.5412 102.612 30.5398 102.612 29.2273C102.612 27.9276 103.191 26.9517 104.342 26.9517C105.454 26.9517 106.051 27.8594 106.051 29.2273C106.051 30.6037 105.441 31.5412 104.342 31.5412ZM113.268 29.7855C113.273 30.8977 112.446 31.4261 111.73 31.4261C110.942 31.4261 110.396 30.8551 110.396 29.9645V25.9545H109.122V30.1179C109.122 31.7415 110.013 32.5852 111.27 32.5852C112.254 32.5852 112.923 32.0653 113.226 31.3665H113.294V32.5H114.547V25.9545H113.268V29.7855ZM117.533 23.7727H116.259V32.5H117.533V23.7727ZM122.068 32.6321C123.496 32.6321 124.506 31.929 124.795 30.8636L123.589 30.6463C123.359 31.2642 122.805 31.5795 122.081 31.5795C120.99 31.5795 120.257 30.8722 120.223 29.6108H124.876V29.1591C124.876 26.794 123.462 25.8693 121.979 25.8693C120.155 25.8693 118.953 27.2585 118.953 29.2699C118.953 31.3026 120.138 32.6321 122.068 32.6321ZM120.227 28.6562C120.278 27.7273 120.952 26.9219 121.987 26.9219C122.976 26.9219 123.624 27.6548 123.628 28.6562H120.227Z" fill="#D5D7E2"/>
<path d="M43.5 49.75L48 54.25L52.5 49.75" stroke="#D5D7E2" stroke-width="1.5"/>
<path fill-rule="evenodd" clip-rule="evenodd" d="M66 46.5C65.45 46.5 65 46.9477 65 47.5V48.5H71L72 47.5L71.29 46.7929C71.11 46.6054 70.85 46.5 70.59 46.5H66ZM66 49.5C65.45 49.5 65 49.9477 65 50.5V56.5C65 57.0523 65.45 57.5 66 57.5H78C78.55 57.5 79 57.0523 79 56.5V48.5C79 47.9477 78.55 47.5 78 47.5H73.91C73.65 47.5 73.39 47.6054 73.21 47.7929L71.79 49.2071C71.61 49.3946 71.35 49.5 71.09 49.5H66Z" fill="#FFBC57"/>
<path d="M93.7468 47.7727V53.4062C93.7468 54.5909 92.9286 55.4432 91.5991 55.4432C90.2738 55.4432 89.4513 54.5909 89.4513 53.4062V47.7727H88.1346V53.5128C88.1346 55.3452 89.5067 56.6449 91.5991 56.6449C93.6914 56.6449 95.0678 55.3452 95.0678 53.5128V47.7727H93.7468ZM99.9354 49.9545H98.593V48.3864H97.3189V49.9545H96.3601V50.9773H97.3189V54.8423C97.3146 56.0312 98.2223 56.6065 99.228 56.5852C99.6328 56.581 99.9055 56.5043 100.055 56.4489L99.8246 55.3963C99.7393 55.4134 99.5817 55.4517 99.3771 55.4517C98.9638 55.4517 98.593 55.3153 98.593 54.5781V50.9773H99.9354V49.9545ZM101.345 56.5H102.619V49.9545H101.345V56.5ZM101.988 48.9446C102.427 48.9446 102.794 48.6037 102.794 48.1861C102.794 47.7685 102.427 47.4233 101.988 47.4233C101.545 47.4233 101.183 47.7685 101.183 48.1861C101.183 48.6037 101.545 48.9446 101.988 48.9446ZM105.607 47.7727H104.333V56.5H105.607V47.7727Z" fill="#D5D7E2"/>
<path fill-rule="evenodd" clip-rule="evenodd" d="M91.5 72V70.5C91.5 69.6716 92.17 69 93 69H102C102.83 69 103.5 69.6716 103.5 70.5V72H101.5V75H98.5V79H96.5H91.5V72ZM91 83H96.5V80H89.5V81.5C89.5 82.3284 90.17 83 91 83ZM99.5 76H102.5V79H99.5V76ZM100.5 80H97.5V83H100.5V80ZM104.5 80H101.5V83H104.5V80Z" fill="#FF6666"/>
<path d="M117.895 74.0653H119.164C119.126 72.6676 117.89 71.6534 116.118 71.6534C114.366 71.6534 113.024 72.6548 113.024 74.1591C113.024 75.3736 113.893 76.0852 115.295 76.4645L116.326 76.7457C117.26 76.9929 117.98 77.2997 117.98 78.0753C117.98 78.9276 117.166 79.4901 116.045 79.4901C115.031 79.4901 114.187 79.0384 114.11 78.0881H112.789C112.875 79.669 114.098 80.6449 116.054 80.6449C118.103 80.6449 119.284 79.5668 119.284 78.0881C119.284 76.5156 117.882 75.9062 116.774 75.6335L115.922 75.4119C115.24 75.2372 114.332 74.9176 114.336 74.0824C114.336 73.3409 115.014 72.7912 116.088 72.7912C117.089 72.7912 117.801 73.2599 117.895 74.0653ZM120.755 80.5H122.029V73.9545H120.755V80.5ZM121.398 72.9446C121.837 72.9446 122.204 72.6037 122.204 72.1861C122.204 71.7685 121.837 71.4233 121.398 71.4233C120.955 71.4233 120.593 71.7685 120.593 72.1861C120.593 72.6037 120.955 72.9446 121.398 72.9446ZM126.488 83.0909C128.154 83.0909 129.441 82.3281 129.441 80.6449V73.9545H128.192V75.0156H128.098C127.873 74.6108 127.421 73.8693 126.202 73.8693C124.621 73.8693 123.458 75.1179 123.458 77.2017C123.458 79.2898 124.647 80.402 126.194 80.402C127.395 80.402 127.86 79.7244 128.09 79.3068H128.171V80.5938C128.171 81.6207 127.468 82.0639 126.5 82.0639C125.439 82.0639 125.026 81.5312 124.8 81.1562L123.705 81.608C124.05 82.4091 124.924 83.0909 126.488 83.0909ZM126.475 79.3452C125.337 79.3452 124.745 78.4716 124.745 77.1847C124.745 75.9276 125.324 74.9517 126.475 74.9517C127.587 74.9517 128.184 75.8594 128.184 77.1847C128.184 78.5355 127.574 79.3452 126.475 79.3452ZM132.424 76.6136C132.424 75.5696 133.063 74.973 133.949 74.973C134.814 74.973 135.338 75.5398 135.338 76.4901V80.5H136.613V76.3366C136.613 74.7173 135.722 73.8693 134.384 73.8693C133.4 73.8693 132.756 74.3253 132.453 75.0199H132.373V73.9545H131.15V80.5H132.424V76.6136ZM140.226 80.6449C141.309 80.6449 141.918 80.0952 142.161 79.6051H142.212V80.5H143.456V76.1534C143.456 74.2486 141.956 73.8693 140.917 73.8693C139.732 73.8693 138.641 74.3466 138.215 75.5398L139.412 75.8125C139.6 75.348 140.077 74.9006 140.934 74.9006C141.756 74.9006 142.178 75.331 142.178 76.0724V76.1023C142.178 76.5668 141.701 76.5582 140.525 76.6946C139.284 76.8395 138.015 77.1634 138.015 78.6506C138.015 79.9375 138.982 80.6449 140.226 80.6449ZM140.503 79.6222C139.783 79.6222 139.263 79.2983 139.263 78.6676C139.263 77.9858 139.868 77.7429 140.605 77.6449C141.019 77.5895 141.999 77.4787 142.182 77.2955V78.1392C142.182 78.9148 141.564 79.6222 140.503 79.6222ZM146.428 71.7727H145.153V80.5H146.428V71.7727Z" fill="#D5D7E2"/>
</g>
<defs>
<filter id="filter0_d" x="0" y="0" width="171" height="110" filterUnits="userSpaceOnUse" color-interpolation-filters="sRGB">
<feFlood flood-opacity="0" result="BackgroundImageFix"/>
<feColorMatrix in="SourceAlpha" type="matrix" values="0 0 0 0 0 0 0 0 0 0 0 0 0 0 0 0 0 0 127 0"/>
<feOffset dy="3"/>
<feGaussianBlur stdDeviation="3.5"/>
<feColorMatrix type="matrix" values="0 0 0 0 0 0 0 0 0 0 0 0 0 0 0 0 0 0 0.18 0"/>
<feBlend mode="normal" in2="BackgroundImageFix" result="effect1_dropShadow"/>
<feBlend mode="normal" in="SourceGraphic" in2="effect1_dropShadow" result="shape"/>
</filter>
</defs>
</svg>
