<svg viewBox="0 0 363 309" fill="none" xmlns="http://www.w3.org/2000/svg">
	<g clip-path="url(#clip0)">
		<g filter="url(#filter0_d)">
			<rect x="160" y="16" width="182" height="216" rx="4" fill="#21222C"/>
			<path d="M174.5 37.75L179 42.25L183.5 37.75" stroke="#D5D7E2" stroke-width="1.5"/>
			<path fill-rule="evenodd" clip-rule="evenodd" d="M198 36V34.5C198 33.6716 198.672 33 199.5 33H208.5C209.328 33 210 33.6716 210 34.5V36H208V43V44V45.5C208 46.3284 207.328 47 206.5 47H197.5C196.672 47 196 46.3284 196 45.5V44H201H205H207V43H206V41C206 40.4477 205.552 40 205 40H201C200.448 40 200 40.4477 200 41V43H198V36ZM205 37C205 38.1046 204.105 39 203 39C201.895 39 201 38.1046 201 37C201 35.8954 201.895 35 203 35C204.105 35 205 35.8954 205 37Z" fill="#4CBCFF"/>
			<path d="M219.135 35.7727V44.5H220.387V38.1804H220.468L223.042 44.4872H224.082L226.656 38.1847H226.737V44.5H227.99V35.7727H226.392L223.613 42.5568H223.511L220.733 35.7727H219.135ZM229.802 44.5H231.076V37.9545H229.802V44.5ZM230.445 36.9446C230.884 36.9446 231.251 36.6037 231.251 36.1861C231.251 35.7685 230.884 35.4233 230.445 35.4233C230.002 35.4233 229.64 35.7685 229.64 36.1861C229.64 36.6037 230.002 36.9446 230.445 36.9446ZM235.24 44.6278C236.434 44.6278 236.902 43.8991 237.132 43.4815H237.239V44.5H238.483V35.7727H237.209V39.0156H237.132C236.902 38.6108 236.468 37.8693 235.249 37.8693C233.668 37.8693 232.505 39.1179 232.505 41.2401C232.505 43.358 233.651 44.6278 235.24 44.6278ZM235.522 43.5412C234.384 43.5412 233.792 42.5398 233.792 41.2273C233.792 39.9276 234.371 38.9517 235.522 38.9517C236.634 38.9517 237.23 39.8594 237.23 41.2273C237.23 42.6037 236.621 43.5412 235.522 43.5412ZM240.302 44.5H241.576V37.9545H240.302V44.5ZM240.945 36.9446C241.384 36.9446 241.751 36.6037 241.751 36.1861C241.751 35.7685 241.384 35.4233 240.945 35.4233C240.502 35.4233 240.14 35.7685 240.14 36.1861C240.14 36.6037 240.502 36.9446 240.945 36.9446ZM243.392 44.5H244.709V41.4318H246.499C248.523 41.4318 249.525 40.2088 249.525 38.598C249.525 36.9915 248.532 35.7727 246.503 35.7727H243.392V44.5ZM244.709 40.3153V36.902H246.363C247.667 36.902 248.199 37.6094 248.199 38.598C248.199 39.5866 247.667 40.3153 246.38 40.3153H244.709ZM252.24 35.7727H250.966V44.5H252.24V35.7727ZM255.859 44.6449C256.941 44.6449 257.551 44.0952 257.794 43.6051H257.845V44.5H259.089V40.1534C259.089 38.2486 257.589 37.8693 256.549 37.8693C255.365 37.8693 254.274 38.3466 253.848 39.5398L255.045 39.8125C255.233 39.348 255.71 38.9006 256.566 38.9006C257.389 38.9006 257.811 39.331 257.811 40.0724V40.1023C257.811 40.5668 257.333 40.5582 256.157 40.6946C254.917 40.8395 253.647 41.1634 253.647 42.6506C253.647 43.9375 254.615 44.6449 255.859 44.6449ZM256.136 43.6222C255.416 43.6222 254.896 43.2983 254.896 42.6676C254.896 41.9858 255.501 41.7429 256.238 41.6449C256.652 41.5895 257.632 41.4787 257.815 41.2955V42.1392C257.815 42.9148 257.197 43.6222 256.136 43.6222ZM261.357 46.9545C262.41 46.9545 263.075 46.4048 263.454 45.3736L266.16 37.9673L264.783 37.9545L263.126 43.0341H263.058L261.4 37.9545H260.036L262.431 44.5852L262.273 45.0199C261.95 45.8892 261.494 45.9616 260.795 45.7699L260.488 46.8139C260.641 46.8821 260.974 46.9545 261.357 46.9545ZM269.947 44.6321C271.375 44.6321 272.385 43.929 272.674 42.8636L271.468 42.6463C271.238 43.2642 270.684 43.5795 269.96 43.5795C268.869 43.5795 268.136 42.8722 268.102 41.6108H272.755V41.1591C272.755 38.794 271.341 37.8693 269.858 37.8693C268.034 37.8693 266.832 39.2585 266.832 41.2699C266.832 43.3026 268.017 44.6321 269.947 44.6321ZM268.106 40.6562C268.157 39.7273 268.831 38.9219 269.866 38.9219C270.855 38.9219 271.502 39.6548 271.507 40.6562H268.106ZM274.169 44.5H275.443V40.5028C275.443 39.6463 276.104 39.0284 277.007 39.0284C277.271 39.0284 277.57 39.0753 277.672 39.1051V37.8864C277.544 37.8693 277.293 37.8565 277.131 37.8565C276.364 37.8565 275.707 38.2912 275.469 38.9943H275.401V37.9545H274.169V44.5Z" fill="#D5D7E2"/>
			<path d="M199.75 68.5L204.25 64L199.75 59.5" stroke="#D5D7E2" stroke-width="1.5"/>
			<path fill-rule="evenodd" clip-rule="evenodd" d="M220 58.5C219.45 58.5 219 58.9477 219 59.5V60.5H225L226 59.5L225.29 58.7929C225.11 58.6054 224.85 58.5 224.59 58.5H220ZM220 61.5C219.45 61.5 219 61.9477 219 62.5V68.5C219 69.0523 219.45 69.5 220 69.5H232C232.55 69.5 233 69.0523 233 68.5V60.5C233 59.9477 232.55 59.5 232 59.5H227.91C227.65 59.5 227.39 59.6054 227.21 59.7929L225.79 61.2071C225.61 61.3946 225.35 61.5 225.09 61.5H220Z" fill="#FFBC57"/>
			<path d="M242.872 68.5L243.673 66.1903H247.082L247.879 68.5H249.277L246.136 59.7727H244.615L241.474 68.5H242.872ZM244.056 65.0824L245.343 61.358H245.412L246.699 65.0824H244.056ZM255.293 63.5526C255.028 62.5341 254.232 61.8693 252.817 61.8693C251.338 61.8693 250.29 62.6491 250.29 63.8082C250.29 64.7372 250.852 65.3551 252.08 65.6278L253.188 65.8707C253.818 66.0114 254.112 66.2926 254.112 66.7017C254.112 67.2088 253.571 67.6051 252.736 67.6051C251.973 67.6051 251.483 67.277 251.33 66.6335L250.098 66.821C250.311 67.9801 251.274 68.6321 252.744 68.6321C254.325 68.6321 255.42 67.7926 255.42 66.608C255.42 65.6832 254.832 65.1122 253.631 64.8352L252.591 64.5966C251.871 64.4261 251.56 64.1832 251.564 63.7401C251.56 63.2372 252.105 62.8793 252.83 62.8793C253.622 62.8793 253.989 63.3182 254.138 63.7571L255.293 63.5526ZM261.726 63.5526C261.462 62.5341 260.665 61.8693 259.25 61.8693C257.772 61.8693 256.723 62.6491 256.723 63.8082C256.723 64.7372 257.286 65.3551 258.513 65.6278L259.621 65.8707C260.252 66.0114 260.546 66.2926 260.546 66.7017C260.546 67.2088 260.005 67.6051 259.169 67.6051C258.407 67.6051 257.917 67.277 257.763 66.6335L256.532 66.821C256.745 67.9801 257.708 68.6321 259.178 68.6321C260.759 68.6321 261.854 67.7926 261.854 66.608C261.854 65.6832 261.266 65.1122 260.064 64.8352L259.025 64.5966C258.304 64.4261 257.993 64.1832 257.998 63.7401C257.993 63.2372 258.539 62.8793 259.263 62.8793C260.056 62.8793 260.422 63.3182 260.571 63.7571L261.726 63.5526ZM266.076 68.6321C267.504 68.6321 268.513 67.929 268.803 66.8636L267.597 66.6463C267.367 67.2642 266.813 67.5795 266.089 67.5795C264.998 67.5795 264.265 66.8722 264.231 65.6108H268.884V65.1591C268.884 62.794 267.469 61.8693 265.987 61.8693C264.163 61.8693 262.961 63.2585 262.961 65.2699C262.961 67.3026 264.146 68.6321 266.076 68.6321ZM264.235 64.6562C264.286 63.7273 264.96 62.9219 265.995 62.9219C266.984 62.9219 267.631 63.6548 267.636 64.6562H264.235ZM273.353 61.9545H272.011V60.3864H270.737V61.9545H269.778V62.9773H270.737V66.8423C270.733 68.0312 271.64 68.6065 272.646 68.5852C273.051 68.581 273.324 68.5043 273.473 68.4489L273.243 67.3963C273.157 67.4134 273 67.4517 272.795 67.4517C272.382 67.4517 272.011 67.3153 272.011 66.5781V62.9773H273.353V61.9545ZM279.562 63.5526C279.298 62.5341 278.501 61.8693 277.086 61.8693C275.608 61.8693 274.559 62.6491 274.559 63.8082C274.559 64.7372 275.122 65.3551 276.349 65.6278L277.457 65.8707C278.088 66.0114 278.382 66.2926 278.382 66.7017C278.382 67.2088 277.841 67.6051 277.005 67.6051C276.243 67.6051 275.752 67.277 275.599 66.6335L274.368 66.821C274.581 67.9801 275.544 68.6321 277.014 68.6321C278.595 68.6321 279.69 67.7926 279.69 66.608C279.69 65.6832 279.102 65.1122 277.9 64.8352L276.86 64.5966C276.14 64.4261 275.829 64.1832 275.833 63.7401C275.829 63.2372 276.375 62.8793 277.099 62.8793C277.892 62.8793 278.258 63.3182 278.407 63.7571L279.562 63.5526Z" fill="#D5D7E2"/>
			<path d="M199.75 92.5L204.25 88L199.75 83.5" stroke="#D5D7E2" stroke-width="1.5"/>
			<path fill-rule="evenodd" clip-rule="evenodd" d="M220 82.5C219.45 82.5 219 82.9477 219 83.5V84.5H225L226 83.5L225.29 82.7929C225.11 82.6054 224.85 82.5 224.59 82.5H220ZM220 85.5C219.45 85.5 219 85.9477 219 86.5V92.5C219 93.0523 219.45 93.5 220 93.5H232C232.55 93.5 233 93.0523 233 92.5V84.5C233 83.9477 232.55 83.5 232 83.5H227.91C227.65 83.5 227.39 83.6054 227.21 83.7929L225.79 85.2071C225.61 85.3946 225.35 85.5 225.09 85.5H220Z" fill="#FFBC57"/>
			<path d="M249.383 86.6108C249.085 84.7443 247.623 83.6534 245.778 83.6534C243.52 83.6534 241.853 85.3452 241.853 88.1364C241.853 90.9276 243.511 92.6193 245.778 92.6193C247.696 92.6193 249.098 91.4176 249.383 89.6918L248.054 89.6875C247.828 90.804 246.89 91.4176 245.787 91.4176C244.291 91.4176 243.162 90.2713 243.162 88.1364C243.162 86.0185 244.287 84.8551 245.791 84.8551C246.903 84.8551 247.836 85.4815 248.054 86.6108H249.383ZM253.614 92.6321C255.459 92.6321 256.665 91.2812 256.665 89.2571C256.665 87.2202 255.459 85.8693 253.614 85.8693C251.768 85.8693 250.562 87.2202 250.562 89.2571C250.562 91.2812 251.768 92.6321 253.614 92.6321ZM253.618 91.5625C252.412 91.5625 251.849 90.5099 251.849 89.2528C251.849 88 252.412 86.9347 253.618 86.9347C254.815 86.9347 255.378 88 255.378 89.2528C255.378 90.5099 254.815 91.5625 253.618 91.5625ZM258.087 92.5H259.361V88.4645C259.361 87.5824 259.979 86.9688 260.703 86.9688C261.411 86.9688 261.901 87.4375 261.901 88.1491V92.5H263.171V88.3281C263.171 87.5398 263.652 86.9688 264.483 86.9688C265.157 86.9688 265.711 87.3438 265.711 88.2301V92.5H266.985V88.1108C266.985 86.6151 266.15 85.8693 264.965 85.8693C264.023 85.8693 263.316 86.321 263 87.0199H262.932C262.647 86.304 262.046 85.8693 261.172 85.8693C260.307 85.8693 259.664 86.2997 259.391 87.0199H259.31V85.9545H258.087V92.5ZM268.692 94.9545H269.967V91.4815H270.043C270.273 91.8991 270.742 92.6278 271.935 92.6278C273.521 92.6278 274.671 91.358 274.671 89.2401C274.671 87.1179 273.504 85.8693 271.923 85.8693C270.708 85.8693 270.269 86.6108 270.043 87.0156H269.937V85.9545H268.692V94.9545ZM269.941 89.2273C269.941 87.8594 270.538 86.9517 271.65 86.9517C272.805 86.9517 273.384 87.9276 273.384 89.2273C273.384 90.5398 272.788 91.5412 271.65 91.5412C270.555 91.5412 269.941 90.6037 269.941 89.2273ZM278.856 92.6321C280.701 92.6321 281.907 91.2812 281.907 89.2571C281.907 87.2202 280.701 85.8693 278.856 85.8693C277.011 85.8693 275.805 87.2202 275.805 89.2571C275.805 91.2812 277.011 92.6321 278.856 92.6321ZM278.86 91.5625C277.654 91.5625 277.092 90.5099 277.092 89.2528C277.092 88 277.654 86.9347 278.86 86.9347C280.058 86.9347 280.62 88 280.62 89.2528C280.62 90.5099 280.058 91.5625 278.86 91.5625ZM284.603 88.6136C284.603 87.5696 285.243 86.973 286.129 86.973C286.994 86.973 287.518 87.5398 287.518 88.4901V92.5H288.792V88.3366C288.792 86.7173 287.902 85.8693 286.564 85.8693C285.579 85.8693 284.936 86.3253 284.633 87.0199H284.552V85.9545H283.329V92.5H284.603V88.6136ZM293.322 92.6321C294.75 92.6321 295.76 91.929 296.049 90.8636L294.843 90.6463C294.613 91.2642 294.059 91.5795 293.335 91.5795C292.244 91.5795 291.511 90.8722 291.477 89.6108H296.13V89.1591C296.13 86.794 294.716 85.8693 293.233 85.8693C291.409 85.8693 290.207 87.2585 290.207 89.2699C290.207 91.3026 291.392 92.6321 293.322 92.6321ZM291.481 88.6562C291.532 87.7273 292.206 86.9219 293.241 86.9219C294.23 86.9219 294.877 87.6548 294.882 88.6562H291.481ZM298.818 88.6136C298.818 87.5696 299.457 86.973 300.344 86.973C301.209 86.973 301.733 87.5398 301.733 88.4901V92.5H303.007V88.3366C303.007 86.7173 302.116 85.8693 300.778 85.8693C299.794 85.8693 299.151 86.3253 298.848 87.0199H298.767V85.9545H297.544V92.5H298.818V88.6136ZM307.771 85.9545H306.429V84.3864H305.155V85.9545H304.196V86.9773H305.155V90.8423C305.151 92.0312 306.058 92.6065 307.064 92.5852C307.469 92.581 307.741 92.5043 307.891 92.4489L307.661 91.3963C307.575 91.4134 307.418 91.4517 307.213 91.4517C306.8 91.4517 306.429 91.3153 306.429 90.5781V86.9773H307.771V85.9545ZM313.98 87.5526C313.716 86.5341 312.919 85.8693 311.504 85.8693C310.026 85.8693 308.977 86.6491 308.977 87.8082C308.977 88.7372 309.54 89.3551 310.767 89.6278L311.875 89.8707C312.506 90.0114 312.8 90.2926 312.8 90.7017C312.8 91.2088 312.259 91.6051 311.423 91.6051C310.661 91.6051 310.17 91.277 310.017 90.6335L308.786 90.821C308.999 91.9801 309.962 92.6321 311.432 92.6321C313.013 92.6321 314.108 91.7926 314.108 90.608C314.108 89.6832 313.52 89.1122 312.318 88.8352L311.278 88.5966C310.558 88.4261 310.247 88.1832 310.251 87.7401C310.247 87.2372 310.793 86.8793 311.517 86.8793C312.31 86.8793 312.676 87.3182 312.825 87.7571L313.98 87.5526Z" fill="#D5D7E2"/>
			<path d="M199.75 116.5L204.25 112L199.75 107.5" stroke="#D5D7E2" stroke-width="1.5"/>
			<path fill-rule="evenodd" clip-rule="evenodd" d="M220 106.5C219.45 106.5 219 106.948 219 107.5V108.5H225L226 107.5L225.29 106.793C225.11 106.605 224.85 106.5 224.59 106.5H220ZM220 109.5C219.45 109.5 219 109.948 219 110.5V116.5C219 117.052 219.45 117.5 220 117.5H232C232.55 117.5 233 117.052 233 116.5V108.5C233 107.948 232.55 107.5 232 107.5H227.91C227.65 107.5 227.39 107.605 227.21 107.793L225.79 109.207C225.61 109.395 225.35 109.5 225.09 109.5H220Z" fill="#FFBC57"/>
			<path d="M247.747 107.773V113.406C247.747 114.591 246.929 115.443 245.599 115.443C244.274 115.443 243.451 114.591 243.451 113.406V107.773H242.135V113.513C242.135 115.345 243.507 116.645 245.599 116.645C247.691 116.645 249.068 115.345 249.068 113.513V107.773H247.747ZM253.935 109.955H252.593V108.386H251.319V109.955H250.36V110.977H251.319V114.842C251.315 116.031 252.222 116.607 253.228 116.585C253.633 116.581 253.906 116.504 254.055 116.449L253.825 115.396C253.739 115.413 253.582 115.452 253.377 115.452C252.964 115.452 252.593 115.315 252.593 114.578V110.977H253.935V109.955ZM255.345 116.5H256.619V109.955H255.345V116.5ZM255.988 108.945C256.427 108.945 256.794 108.604 256.794 108.186C256.794 107.768 256.427 107.423 255.988 107.423C255.545 107.423 255.183 107.768 255.183 108.186C255.183 108.604 255.545 108.945 255.988 108.945ZM259.607 107.773H258.333V116.5H259.607V107.773Z" fill="#D5D7E2"/>
			<path fill-rule="evenodd" clip-rule="evenodd" d="M220.5 132V130.5C220.5 129.672 221.17 129 222 129H231C231.83 129 232.5 129.672 232.5 130.5V132H230.5V135H227.5V139H225.5H220.5V132ZM220 143H225.5V140H218.5V141.5C218.5 142.328 219.17 143 220 143ZM228.5 136H231.5V139H228.5V136ZM229.5 140H226.5V143H229.5V140ZM233.5 140H230.5V143H233.5V140Z" fill="#FF6666"/>
			<path d="M242.135 140.5H243.451V136.695H247.159V135.565H243.451V132.906H247.547V131.773H242.135V140.5ZM250.945 140.645C252.027 140.645 252.637 140.095 252.88 139.605H252.931V140.5H254.175V136.153C254.175 134.249 252.675 133.869 251.635 133.869C250.451 133.869 249.36 134.347 248.934 135.54L250.131 135.812C250.319 135.348 250.796 134.901 251.652 134.901C252.475 134.901 252.897 135.331 252.897 136.072V136.102C252.897 136.567 252.419 136.558 251.243 136.695C250.003 136.839 248.733 137.163 248.733 138.651C248.733 139.938 249.701 140.645 250.945 140.645ZM251.222 139.622C250.502 139.622 249.982 139.298 249.982 138.668C249.982 137.986 250.587 137.743 251.324 137.645C251.738 137.589 252.718 137.479 252.901 137.295V138.139C252.901 138.915 252.283 139.622 251.222 139.622ZM260.777 135.553C260.513 134.534 259.716 133.869 258.301 133.869C256.822 133.869 255.774 134.649 255.774 135.808C255.774 136.737 256.337 137.355 257.564 137.628L258.672 137.871C259.303 138.011 259.597 138.293 259.597 138.702C259.597 139.209 259.055 139.605 258.22 139.605C257.457 139.605 256.967 139.277 256.814 138.634L255.582 138.821C255.795 139.98 256.759 140.632 258.229 140.632C259.81 140.632 260.905 139.793 260.905 138.608C260.905 137.683 260.317 137.112 259.115 136.835L258.075 136.597C257.355 136.426 257.044 136.183 257.048 135.74C257.044 135.237 257.589 134.879 258.314 134.879C259.107 134.879 259.473 135.318 259.622 135.757L260.777 135.553ZM265.361 133.955H264.019V132.386H262.745V133.955H261.786V134.977H262.745V138.842C262.74 140.031 263.648 140.607 264.654 140.585C265.059 140.581 265.331 140.504 265.48 140.449L265.25 139.396C265.165 139.413 265.007 139.452 264.803 139.452C264.39 139.452 264.019 139.315 264.019 138.578V134.977H265.361V133.955ZM269.839 140.5C272.498 140.5 274.036 138.851 274.036 136.124C274.036 133.409 272.498 131.773 269.928 131.773H267.013V140.5H269.839ZM268.33 139.349V132.923H269.847C271.756 132.923 272.741 134.065 272.741 136.124C272.741 138.19 271.756 139.349 269.766 139.349H268.33ZM275.571 140.5H276.846V136.503C276.846 135.646 277.506 135.028 278.409 135.028C278.674 135.028 278.972 135.075 279.074 135.105V133.886C278.946 133.869 278.695 133.857 278.533 133.857C277.766 133.857 277.11 134.291 276.871 134.994H276.803V133.955H275.571V140.5ZM282.023 140.645C283.105 140.645 283.715 140.095 283.958 139.605H284.009V140.5H285.253V136.153C285.253 134.249 283.753 133.869 282.713 133.869C281.529 133.869 280.438 134.347 280.012 135.54L281.209 135.812C281.397 135.348 281.874 134.901 282.73 134.901C283.553 134.901 283.975 135.331 283.975 136.072V136.102C283.975 136.567 283.498 136.558 282.321 136.695C281.081 136.839 279.811 137.163 279.811 138.651C279.811 139.938 280.779 140.645 282.023 140.645ZM282.3 139.622C281.58 139.622 281.06 139.298 281.06 138.668C281.06 137.986 281.665 137.743 282.402 137.645C282.816 137.589 283.796 137.479 283.979 137.295V138.139C283.979 138.915 283.361 139.622 282.3 139.622ZM289.695 143.091C291.361 143.091 292.648 142.328 292.648 140.645V133.955H291.399V135.016H291.305C291.08 134.611 290.628 133.869 289.409 133.869C287.828 133.869 286.665 135.118 286.665 137.202C286.665 139.29 287.854 140.402 289.401 140.402C290.602 140.402 291.067 139.724 291.297 139.307H291.378V140.594C291.378 141.621 290.675 142.064 289.707 142.064C288.646 142.064 288.233 141.531 288.007 141.156L286.912 141.608C287.257 142.409 288.131 143.091 289.695 143.091ZM289.682 139.345C288.544 139.345 287.952 138.472 287.952 137.185C287.952 135.928 288.531 134.952 289.682 134.952C290.794 134.952 291.391 135.859 291.391 137.185C291.391 138.536 290.781 139.345 289.682 139.345ZM297.101 143.091C298.767 143.091 300.054 142.328 300.054 140.645V133.955H298.805V135.016H298.712C298.486 134.611 298.034 133.869 296.815 133.869C295.234 133.869 294.071 135.118 294.071 137.202C294.071 139.29 295.26 140.402 296.807 140.402C298.009 140.402 298.473 139.724 298.703 139.307H298.784V140.594C298.784 141.621 298.081 142.064 297.114 142.064C296.053 142.064 295.639 141.531 295.413 141.156L294.318 141.608C294.663 142.409 295.537 143.091 297.101 143.091ZM297.088 139.345C295.95 139.345 295.358 138.472 295.358 137.185C295.358 135.928 295.938 134.952 297.088 134.952C298.2 134.952 298.797 135.859 298.797 137.185C298.797 138.536 298.188 139.345 297.088 139.345ZM303.668 140.645C304.75 140.645 305.359 140.095 305.602 139.605H305.653V140.5H306.898V136.153C306.898 134.249 305.398 133.869 304.358 133.869C303.173 133.869 302.082 134.347 301.656 135.54L302.854 135.812C303.041 135.348 303.518 134.901 304.375 134.901C305.197 134.901 305.619 135.331 305.619 136.072V136.102C305.619 136.567 305.142 136.558 303.966 136.695C302.726 136.839 301.456 137.163 301.456 138.651C301.456 139.938 302.423 140.645 303.668 140.645ZM303.945 139.622C303.224 139.622 302.705 139.298 302.705 138.668C302.705 137.986 303.31 137.743 304.047 137.645C304.46 137.589 305.44 137.479 305.624 137.295V138.139C305.624 138.915 305.006 139.622 303.945 139.622ZM308.697 140.5H309.941V139.482H310.048C310.278 139.899 310.747 140.628 311.94 140.628C313.525 140.628 314.676 139.358 314.676 137.24C314.676 135.118 313.508 133.869 311.927 133.869C310.713 133.869 310.274 134.611 310.048 135.016H309.971V131.773H308.697V140.5ZM309.946 137.227C309.946 135.859 310.542 134.952 311.654 134.952C312.809 134.952 313.389 135.928 313.389 137.227C313.389 138.54 312.792 139.541 311.654 139.541C310.559 139.541 309.946 138.604 309.946 137.227ZM317.381 131.773H316.107V140.5H317.381V131.773ZM321.916 140.632C323.343 140.632 324.353 139.929 324.643 138.864L323.437 138.646C323.207 139.264 322.653 139.58 321.929 139.58C320.838 139.58 320.105 138.872 320.071 137.611H324.724V137.159C324.724 134.794 323.309 133.869 321.826 133.869C320.002 133.869 318.801 135.259 318.801 137.27C318.801 139.303 319.985 140.632 321.916 140.632ZM320.075 136.656C320.126 135.727 320.799 134.922 321.835 134.922C322.824 134.922 323.471 135.655 323.475 136.656H320.075Z" fill="#D5D7E2"/>
			<path fill-rule="evenodd" clip-rule="evenodd" d="M220.5 156V154.5C220.5 153.672 221.17 153 222 153H231C231.83 153 232.5 153.672 232.5 154.5V156H230.5V159H227.5V163H225.5H220.5V156ZM220 167H225.5V164H218.5V165.5C218.5 166.328 219.17 167 220 167ZM228.5 160H231.5V163H228.5V160ZM229.5 164H226.5V167H229.5V164ZM233.5 164H230.5V167H233.5V164Z" fill="#FF6666"/>
			<path d="M242.135 164.5H243.451V160.695H247.159V159.565H243.451V156.906H247.547V155.773H242.135V164.5ZM250.945 164.645C252.027 164.645 252.637 164.095 252.88 163.605H252.931V164.5H254.175V160.153C254.175 158.249 252.675 157.869 251.635 157.869C250.451 157.869 249.36 158.347 248.934 159.54L250.131 159.812C250.319 159.348 250.796 158.901 251.652 158.901C252.475 158.901 252.897 159.331 252.897 160.072V160.102C252.897 160.567 252.419 160.558 251.243 160.695C250.003 160.839 248.733 161.163 248.733 162.651C248.733 163.938 249.701 164.645 250.945 164.645ZM251.222 163.622C250.502 163.622 249.982 163.298 249.982 162.668C249.982 161.986 250.587 161.743 251.324 161.645C251.738 161.589 252.718 161.479 252.901 161.295V162.139C252.901 162.915 252.283 163.622 251.222 163.622ZM260.777 159.553C260.513 158.534 259.716 157.869 258.301 157.869C256.822 157.869 255.774 158.649 255.774 159.808C255.774 160.737 256.337 161.355 257.564 161.628L258.672 161.871C259.303 162.011 259.597 162.293 259.597 162.702C259.597 163.209 259.055 163.605 258.22 163.605C257.457 163.605 256.967 163.277 256.814 162.634L255.582 162.821C255.795 163.98 256.759 164.632 258.229 164.632C259.81 164.632 260.905 163.793 260.905 162.608C260.905 161.683 260.317 161.112 259.115 160.835L258.075 160.597C257.355 160.426 257.044 160.183 257.048 159.74C257.044 159.237 257.589 158.879 258.314 158.879C259.107 158.879 259.473 159.318 259.622 159.757L260.777 159.553ZM265.361 157.955H264.019V156.386H262.745V157.955H261.786V158.977H262.745V162.842C262.74 164.031 263.648 164.607 264.654 164.585C265.059 164.581 265.331 164.504 265.48 164.449L265.25 163.396C265.165 163.413 265.007 163.452 264.803 163.452C264.39 163.452 264.019 163.315 264.019 162.578V158.977H265.361V157.955ZM266.032 156.906H268.751V164.5H270.064V156.906H272.787V155.773H266.032V156.906ZM274.846 164.5H276.141L277.471 159.774H277.569L278.898 164.5H280.198L282.12 157.955H280.803L279.529 162.74H279.465L278.187 157.955H276.87L275.583 162.761H275.519L274.237 157.955H272.92L274.846 164.5ZM285.951 164.632C287.379 164.632 288.388 163.929 288.678 162.864L287.472 162.646C287.242 163.264 286.688 163.58 285.964 163.58C284.873 163.58 284.14 162.872 284.106 161.611H288.759V161.159C288.759 158.794 287.344 157.869 285.862 157.869C284.038 157.869 282.836 159.259 282.836 161.27C282.836 163.303 284.021 164.632 285.951 164.632ZM284.11 160.656C284.161 159.727 284.835 158.922 285.87 158.922C286.859 158.922 287.506 159.655 287.511 160.656H284.11ZM292.994 164.632C294.422 164.632 295.431 163.929 295.721 162.864L294.515 162.646C294.285 163.264 293.731 163.58 293.007 163.58C291.916 163.58 291.183 162.872 291.149 161.611H295.802V161.159C295.802 158.794 294.387 157.869 292.904 157.869C291.081 157.869 289.879 159.259 289.879 161.27C289.879 163.303 291.064 164.632 292.994 164.632ZM291.153 160.656C291.204 159.727 291.877 158.922 292.913 158.922C293.902 158.922 294.549 159.655 294.554 160.656H291.153ZM298.49 160.614C298.49 159.57 299.129 158.973 300.016 158.973C300.881 158.973 301.405 159.54 301.405 160.49V164.5H302.679V160.337C302.679 158.717 301.788 157.869 300.45 157.869C299.466 157.869 298.822 158.325 298.52 159.02H298.439V157.955H297.216V164.5H298.49V160.614Z" fill="#D5D7E2"/>
			<path fill-rule="evenodd" clip-rule="evenodd" d="M220.5 180V178.5C220.5 177.672 221.17 177 222 177H231C231.83 177 232.5 177.672 232.5 178.5V180H230.5V183H227.5V187H225.5H220.5V180ZM220 191H225.5V188H218.5V189.5C218.5 190.328 219.17 191 220 191ZM228.5 184H231.5V187H228.5V184ZM229.5 188H226.5V191H229.5V188ZM233.5 188H230.5V191H233.5V188Z" fill="#FF6666"/>
			<path d="M243.451 179.773H242.135V188.5H243.451V179.773ZM246.541 184.614C246.541 183.57 247.18 182.973 248.066 182.973C248.931 182.973 249.456 183.54 249.456 184.49V188.5H250.73V184.337C250.73 182.717 249.839 181.869 248.501 181.869C247.517 181.869 246.873 182.325 246.571 183.02H246.49V181.955H245.267V188.5H246.541V184.614ZM252.439 190.955H253.713V187.482H253.789C254.02 187.899 254.488 188.628 255.681 188.628C257.267 188.628 258.417 187.358 258.417 185.24C258.417 183.118 257.25 181.869 255.669 181.869C254.454 181.869 254.015 182.611 253.789 183.016H253.683V181.955H252.439V190.955ZM253.687 185.227C253.687 183.859 254.284 182.952 255.396 182.952C256.551 182.952 257.13 183.928 257.13 185.227C257.13 186.54 256.534 187.541 255.396 187.541C254.301 187.541 253.687 186.604 253.687 185.227ZM263.991 185.786C263.995 186.898 263.169 187.426 262.453 187.426C261.664 187.426 261.119 186.855 261.119 185.964V181.955H259.845V186.118C259.845 187.741 260.735 188.585 261.993 188.585C262.977 188.585 263.646 188.065 263.949 187.366H264.017V188.5H265.27V181.955H263.991V185.786ZM270.037 181.955H268.695V180.386H267.42V181.955H266.462V182.977H267.42V186.842C267.416 188.031 268.324 188.607 269.33 188.585C269.734 188.581 270.007 188.504 270.156 188.449L269.926 187.396C269.841 187.413 269.683 187.452 269.479 187.452C269.065 187.452 268.695 187.315 268.695 186.578V182.977H270.037V181.955Z" fill="#D5D7E2"/>
			<path fill-rule="evenodd" clip-rule="evenodd" d="M220.5 204V202.5C220.5 201.672 221.17 201 222 201H231C231.83 201 232.5 201.672 232.5 202.5V204H230.5V207H227.5V211H225.5H220.5V204ZM220 215H225.5V212H218.5V213.5C218.5 214.328 219.17 215 220 215ZM228.5 208H231.5V211H228.5V208ZM229.5 212H226.5V215H229.5V212ZM233.5 212H230.5V215H233.5V212Z" fill="#FF6666"/>
			<path d="M242.872 212.581C243.336 212.581 243.724 212.202 243.724 211.729C243.724 211.264 243.336 210.881 242.872 210.881C242.403 210.881 242.02 211.264 242.02 211.729C242.02 212.202 242.403 212.581 242.872 212.581ZM246.27 212.581C246.735 212.581 247.123 212.202 247.123 211.729C247.123 211.264 246.735 210.881 246.27 210.881C245.801 210.881 245.418 211.264 245.418 211.729C245.418 212.202 245.801 212.581 246.27 212.581ZM249.669 212.581C250.133 212.581 250.521 212.202 250.521 211.729C250.521 211.264 250.133 210.881 249.669 210.881C249.2 210.881 248.816 211.264 248.816 211.729C248.816 212.202 249.2 212.581 249.669 212.581Z" fill="#D5D7E2"/>
		</g>
		<g filter="url(#filter1_d)">
			<rect x="21" y="101" width="187" height="192" rx="4" fill="#21222C"/>
			<path d="M35.5 122.75L40 127.25L44.5 122.75" stroke="#D5D7E2" stroke-width="1.5"/>
			<path fill-rule="evenodd" clip-rule="evenodd" d="M59 121V119.5C59 118.672 59.672 118 60.5 118H69.5C70.328 118 71 118.672 71 119.5V121H69V128V129V130.5C69 131.328 68.328 132 67.5 132H58.5C57.672 132 57 131.328 57 130.5V129H62H66H68V128H67V126C67 125.448 66.552 125 66 125H62C61.448 125 61 125.448 61 126V128H59V121ZM66 122C66 123.105 65.105 124 64 124C62.895 124 62 123.105 62 122C62 120.895 62.895 120 64 120C65.105 120 66 120.895 66 122Z" fill="#4CBCFF"/>
			<path d="M84.8945 123.065H86.1644C86.1261 121.668 84.8903 120.653 83.1175 120.653C81.3661 120.653 80.0238 121.655 80.0238 123.159C80.0238 124.374 80.8931 125.085 82.2951 125.464L83.3263 125.746C84.2596 125.993 84.9798 126.3 84.9798 127.075C84.9798 127.928 84.1658 128.49 83.0451 128.49C82.0309 128.49 81.1871 128.038 81.1104 127.088H79.7894C79.8746 128.669 81.0977 129.645 83.0536 129.645C85.1033 129.645 86.2837 128.567 86.2837 127.088C86.2837 125.516 84.8817 124.906 83.7738 124.634L82.9215 124.412C82.2397 124.237 81.332 123.918 81.3363 123.082C81.3363 122.341 82.0138 121.791 83.0877 121.791C84.0891 121.791 84.8008 122.26 84.8945 123.065ZM90.5121 129.632C92.0589 129.632 93.0604 128.703 93.201 127.429H91.9609C91.799 128.136 91.2493 128.554 90.5206 128.554C89.4425 128.554 88.7479 127.655 88.7479 126.227C88.7479 124.825 89.4553 123.943 90.5206 123.943C91.3303 123.943 91.8246 124.455 91.9609 125.068H93.201C93.0646 123.747 91.9865 122.869 90.4993 122.869C88.6541 122.869 87.4609 124.259 87.4609 126.257C87.4609 128.23 88.6115 129.632 90.5121 129.632ZM94.5636 129.5H95.8377V125.503C95.8377 124.646 96.4982 124.028 97.4016 124.028C97.6658 124.028 97.9641 124.075 98.0664 124.105V122.886C97.9386 122.869 97.6871 122.857 97.5252 122.857C96.7582 122.857 96.1019 123.291 95.8633 123.994H95.7951V122.955H94.5636V129.5ZM99.169 129.5H100.443V122.955H99.169V129.5ZM99.8125 121.945C100.251 121.945 100.618 121.604 100.618 121.186C100.618 120.768 100.251 120.423 99.8125 120.423C99.3693 120.423 99.0071 120.768 99.0071 121.186C99.0071 121.604 99.3693 121.945 99.8125 121.945ZM102.157 131.955H103.431V128.482H103.508C103.738 128.899 104.207 129.628 105.4 129.628C106.985 129.628 108.136 128.358 108.136 126.24C108.136 124.118 106.968 122.869 105.387 122.869C104.173 122.869 103.734 123.611 103.508 124.016H103.402V122.955H102.157V131.955ZM103.406 126.227C103.406 124.859 104.002 123.952 105.115 123.952C106.27 123.952 106.849 124.928 106.849 126.227C106.849 127.54 106.252 128.541 105.115 128.541C104.02 128.541 103.406 127.604 103.406 126.227ZM112.619 122.955H111.277V121.386H110.002V122.955H109.044V123.977H110.002V127.842C109.998 129.031 110.906 129.607 111.912 129.585C112.316 129.581 112.589 129.504 112.738 129.449L112.508 128.396C112.423 128.413 112.265 128.452 112.061 128.452C111.647 128.452 111.277 128.315 111.277 127.578V123.977H112.619V122.955ZM114.271 129.5H115.588V125.695H119.939V129.5H121.26V120.773H119.939V124.565H115.588V120.773H114.271V129.5ZM127.222 126.786C127.226 127.898 126.399 128.426 125.683 128.426C124.895 128.426 124.349 127.855 124.349 126.964V122.955H123.075V127.118C123.075 128.741 123.966 129.585 125.223 129.585C126.207 129.585 126.876 129.065 127.179 128.366H127.247V129.5H128.5V122.955H127.222V126.786ZM130.314 129.5H131.559V128.482H131.665C131.895 128.899 132.364 129.628 133.557 129.628C135.142 129.628 136.293 128.358 136.293 126.24C136.293 124.118 135.125 122.869 133.544 122.869C132.33 122.869 131.891 123.611 131.665 124.016H131.588V120.773H130.314V129.5ZM131.563 126.227C131.563 124.859 132.159 123.952 133.272 123.952C134.426 123.952 135.006 124.928 135.006 126.227C135.006 127.54 134.409 128.541 133.272 128.541C132.176 128.541 131.563 127.604 131.563 126.227Z" fill="#D5D7E2"/>
			<path d="M58.5 146.75L63 151.25L67.5 146.75" stroke="#D5D7E2" stroke-width="1.5"/>
			<path fill-rule="evenodd" clip-rule="evenodd" d="M81 143.5C80.45 143.5 80 143.948 80 144.5V145.5H86L87 144.5L86.29 143.793C86.11 143.605 85.85 143.5 85.59 143.5H81ZM81 146.5C80.45 146.5 80 146.948 80 147.5V153.5C80 154.052 80.45 154.5 81 154.5H93C93.55 154.5 94 154.052 94 153.5V145.5C94 144.948 93.55 144.5 93 144.5H88.91C88.65 144.5 88.39 144.605 88.21 144.793L86.79 146.207C86.61 146.395 86.35 146.5 86.09 146.5H81Z" fill="#FFBC57"/>
			<path d="M110.383 147.611C110.085 145.744 108.623 144.653 106.778 144.653C104.52 144.653 102.853 146.345 102.853 149.136C102.853 151.928 104.511 153.619 106.778 153.619C108.696 153.619 110.098 152.418 110.383 150.692L109.054 150.688C108.828 151.804 107.89 152.418 106.787 152.418C105.291 152.418 104.162 151.271 104.162 149.136C104.162 147.018 105.287 145.855 106.791 145.855C107.903 145.855 108.836 146.482 109.054 147.611H110.383ZM114.614 153.632C116.459 153.632 117.665 152.281 117.665 150.257C117.665 148.22 116.459 146.869 114.614 146.869C112.768 146.869 111.562 148.22 111.562 150.257C111.562 152.281 112.768 153.632 114.614 153.632ZM114.618 152.562C113.412 152.562 112.849 151.51 112.849 150.253C112.849 149 113.412 147.935 114.618 147.935C115.815 147.935 116.378 149 116.378 150.253C116.378 151.51 115.815 152.562 114.618 152.562ZM119.087 153.5H120.361V149.503C120.361 148.646 121.022 148.028 121.925 148.028C122.189 148.028 122.488 148.075 122.59 148.105V146.886C122.462 146.869 122.211 146.857 122.049 146.857C121.282 146.857 120.625 147.291 120.387 147.994H120.319V146.955H119.087V153.5ZM126.279 153.632C127.707 153.632 128.717 152.929 129.006 151.864L127.8 151.646C127.57 152.264 127.016 152.58 126.292 152.58C125.201 152.58 124.468 151.872 124.434 150.611H129.087V150.159C129.087 147.794 127.673 146.869 126.19 146.869C124.366 146.869 123.164 148.259 123.164 150.27C123.164 152.303 124.349 153.632 126.279 153.632ZM124.438 149.656C124.489 148.727 125.163 147.922 126.198 147.922C127.187 147.922 127.835 148.655 127.839 149.656H124.438Z" fill="#D5D7E2"/>
			<path d="M84.75 177.5L89.25 173L84.75 168.5" stroke="#D5D7E2" stroke-width="1.5"/>
			<path fill-rule="evenodd" clip-rule="evenodd" d="M105.5 169V167.5C105.5 166.672 106.17 166 107 166H116C116.83 166 117.5 166.672 117.5 167.5V169H115.5V172H112.5V176H110.5H105.5V169ZM105 180H110.5V177H103.5V178.5C103.5 179.328 104.17 180 105 180ZM113.5 173H116.5V176H113.5V173ZM114.5 177H111.5V180H114.5V177ZM118.5 177H115.5V180H118.5V177Z" fill="#FF6666"/>
			<path d="M132.747 168.773V174.406C132.747 175.591 131.929 176.443 130.599 176.443C129.274 176.443 128.451 175.591 128.451 174.406V168.773H127.135V174.513C127.135 176.345 128.507 177.645 130.599 177.645C132.691 177.645 134.068 176.345 134.068 174.513V168.773H132.747ZM137.299 168.773H135.982V177.5H137.299V168.773ZM139.217 177.5H144.488V176.366H140.533V168.773H139.217V177.5ZM145.888 177.5H147.162V170.955H145.888V177.5ZM146.531 169.945C146.97 169.945 147.337 169.604 147.337 169.186C147.337 168.768 146.97 168.423 146.531 168.423C146.088 168.423 145.726 168.768 145.726 169.186C145.726 169.604 146.088 169.945 146.531 169.945ZM148.978 177.5H150.223V176.482H150.329C150.559 176.899 151.028 177.628 152.221 177.628C153.806 177.628 154.957 176.358 154.957 174.24C154.957 172.118 153.789 170.869 152.208 170.869C150.994 170.869 150.555 171.611 150.329 172.016H150.252V168.773H148.978V177.5ZM150.227 174.227C150.227 172.859 150.824 171.952 151.936 171.952C153.091 171.952 153.67 172.928 153.67 174.227C153.67 175.54 153.074 176.541 151.936 176.541C150.841 176.541 150.227 175.604 150.227 174.227ZM156.388 177.5H157.662V173.503C157.662 172.646 158.322 172.028 159.226 172.028C159.49 172.028 159.788 172.075 159.891 172.105V170.886C159.763 170.869 159.511 170.857 159.349 170.857C158.582 170.857 157.926 171.291 157.688 171.994H157.619V170.955H156.388V177.5ZM162.839 177.645C163.922 177.645 164.531 177.095 164.774 176.605H164.825V177.5H166.07V173.153C166.07 171.249 164.57 170.869 163.53 170.869C162.345 170.869 161.254 171.347 160.828 172.54L162.026 172.812C162.213 172.348 162.69 171.901 163.547 171.901C164.369 171.901 164.791 172.331 164.791 173.072V173.102C164.791 173.567 164.314 173.558 163.138 173.695C161.898 173.839 160.628 174.163 160.628 175.651C160.628 176.938 161.595 177.645 162.839 177.645ZM163.116 176.622C162.396 176.622 161.876 176.298 161.876 175.668C161.876 174.986 162.482 174.743 163.219 174.645C163.632 174.589 164.612 174.479 164.795 174.295V175.139C164.795 175.915 164.178 176.622 163.116 176.622ZM167.767 177.5H169.041V173.503C169.041 172.646 169.701 172.028 170.605 172.028C170.869 172.028 171.167 172.075 171.27 172.105V170.886C171.142 170.869 170.89 170.857 170.728 170.857C169.961 170.857 169.305 171.291 169.066 171.994H168.998V170.955H167.767V177.5ZM173.377 179.955C174.429 179.955 175.094 179.405 175.473 178.374L178.179 170.967L176.803 170.955L175.145 176.034H175.077L173.419 170.955H172.056L174.451 177.585L174.293 178.02C173.969 178.889 173.513 178.962 172.814 178.77L172.507 179.814C172.661 179.882 172.993 179.955 173.377 179.955Z" fill="#D5D7E2"/>
			<path d="M58.5 194.75L63 199.25L67.5 194.75" stroke="#D5D7E2" stroke-width="1.5"/>
			<path fill-rule="evenodd" clip-rule="evenodd" d="M81 191.5C80.45 191.5 80 191.948 80 192.5V193.5H86L87 192.5L86.29 191.793C86.11 191.605 85.85 191.5 85.59 191.5H81ZM81 194.5C80.45 194.5 80 194.948 80 195.5V201.5C80 202.052 80.45 202.5 81 202.5H93C93.55 202.5 94 202.052 94 201.5V193.5C94 192.948 93.55 192.5 93 192.5H88.91C88.65 192.5 88.39 192.605 88.21 192.793L86.79 194.207C86.61 194.395 86.35 194.5 86.09 194.5H81Z" fill="#FFBC57"/>
			<path d="M103.135 192.773V201.5H104.387V195.18H104.468L107.042 201.487H108.082L110.656 195.185H110.737V201.5H111.99V192.773H110.392L107.613 199.557H107.511L104.733 192.773H103.135ZM116.559 201.632C118.404 201.632 119.61 200.281 119.61 198.257C119.61 196.22 118.404 194.869 116.559 194.869C114.714 194.869 113.508 196.22 113.508 198.257C113.508 200.281 114.714 201.632 116.559 201.632ZM116.563 200.562C115.357 200.562 114.795 199.51 114.795 198.253C114.795 197 115.357 195.935 116.563 195.935C117.761 195.935 118.323 197 118.323 198.253C118.323 199.51 117.761 200.562 116.563 200.562ZM123.483 201.628C124.676 201.628 125.145 200.899 125.375 200.482H125.481V201.5H126.725V192.773H125.451V196.016H125.375C125.145 195.611 124.71 194.869 123.491 194.869C121.91 194.869 120.747 196.118 120.747 198.24C120.747 200.358 121.893 201.628 123.483 201.628ZM123.764 200.541C122.626 200.541 122.034 199.54 122.034 198.227C122.034 196.928 122.613 195.952 123.764 195.952C124.876 195.952 125.473 196.859 125.473 198.227C125.473 199.604 124.863 200.541 123.764 200.541ZM132.69 198.786C132.695 199.898 131.868 200.426 131.152 200.426C130.364 200.426 129.818 199.855 129.818 198.964V194.955H128.544V199.118C128.544 200.741 129.435 201.585 130.692 201.585C131.676 201.585 132.345 201.065 132.648 200.366H132.716V201.5H133.969V194.955H132.69V198.786ZM136.955 192.773H135.681V201.5H136.955V192.773ZM141.49 201.632C142.918 201.632 143.928 200.929 144.217 199.864L143.011 199.646C142.781 200.264 142.227 200.58 141.503 200.58C140.412 200.58 139.679 199.872 139.645 198.611H144.298V198.159C144.298 195.794 142.884 194.869 141.401 194.869C139.577 194.869 138.375 196.259 138.375 198.27C138.375 200.303 139.56 201.632 141.49 201.632ZM139.649 197.656C139.7 196.727 140.374 195.922 141.409 195.922C142.398 195.922 143.045 196.655 143.05 197.656H139.649ZM150.617 196.553C150.353 195.534 149.556 194.869 148.141 194.869C146.662 194.869 145.614 195.649 145.614 196.808C145.614 197.737 146.176 198.355 147.404 198.628L148.512 198.871C149.142 199.011 149.436 199.293 149.436 199.702C149.436 200.209 148.895 200.605 148.06 200.605C147.297 200.605 146.807 200.277 146.654 199.634L145.422 199.821C145.635 200.98 146.598 201.632 148.069 201.632C149.65 201.632 150.745 200.793 150.745 199.608C150.745 198.683 150.157 198.112 148.955 197.835L147.915 197.597C147.195 197.426 146.884 197.183 146.888 196.74C146.884 196.237 147.429 195.879 148.154 195.879C148.946 195.879 149.313 196.318 149.462 196.757L150.617 196.553Z" fill="#D5D7E2"/>
			<path d="M84.75 225.5L89.25 221L84.75 216.5" stroke="#D5D7E2" stroke-width="1.5"/>
			<path fill-rule="evenodd" clip-rule="evenodd" d="M105.5 217V215.5C105.5 214.672 106.17 214 107 214H116C116.83 214 117.5 214.672 117.5 215.5V217H115.5V220H112.5V224H110.5H105.5V217ZM105 228H110.5V225H103.5V226.5C103.5 227.328 104.17 228 105 228ZM113.5 221H116.5V224H113.5V221ZM114.5 225H111.5V228H114.5V225ZM118.5 225H115.5V228H118.5V225Z" fill="#FF6666"/>
			<path d="M127.135 225.5H132.657V224.366H128.451V221.695H132.321V220.565H128.451V217.906H132.606V216.773H127.135V225.5ZM135.268 218.955H133.871L135.882 222.227L133.845 225.5H135.243L136.713 223.054L138.188 225.5H139.581L137.523 222.227L139.564 218.955H138.17L136.713 221.503L135.268 218.955ZM140.872 227.955H142.146V224.482H142.223C142.453 224.899 142.922 225.628 144.115 225.628C145.7 225.628 146.851 224.358 146.851 222.24C146.851 220.118 145.683 218.869 144.102 218.869C142.888 218.869 142.449 219.611 142.223 220.016H142.116V218.955H140.872V227.955ZM142.121 222.227C142.121 220.859 142.717 219.952 143.83 219.952C144.984 219.952 145.564 220.928 145.564 222.227C145.564 223.54 144.967 224.541 143.83 224.541C142.734 224.541 142.121 223.604 142.121 222.227ZM149.553 216.773H148.278V225.5H149.553V216.773ZM154.024 225.632C155.869 225.632 157.075 224.281 157.075 222.257C157.075 220.22 155.869 218.869 154.024 218.869C152.179 218.869 150.973 220.22 150.973 222.257C150.973 224.281 152.179 225.632 154.024 225.632ZM154.028 224.562C152.822 224.562 152.26 223.51 152.26 222.253C152.26 221 152.822 219.935 154.028 219.935C155.225 219.935 155.788 221 155.788 222.253C155.788 223.51 155.225 224.562 154.028 224.562ZM158.497 225.5H159.771V221.503C159.771 220.646 160.432 220.028 161.335 220.028C161.599 220.028 161.898 220.075 162 220.105V218.886C161.872 218.869 161.621 218.857 161.459 218.857C160.692 218.857 160.036 219.291 159.797 219.994H159.729V218.955H158.497V225.5ZM165.689 225.632C167.117 225.632 168.127 224.929 168.417 223.864L167.211 223.646C166.98 224.264 166.426 224.58 165.702 224.58C164.611 224.58 163.878 223.872 163.844 222.611H168.498V222.159C168.498 219.794 167.083 218.869 165.6 218.869C163.776 218.869 162.574 220.259 162.574 222.27C162.574 224.303 163.759 225.632 165.689 225.632ZM163.848 221.656C163.9 220.727 164.573 219.922 165.608 219.922C166.597 219.922 167.245 220.655 167.249 221.656H163.848ZM169.911 225.5H171.185V221.503C171.185 220.646 171.846 220.028 172.749 220.028C173.013 220.028 173.312 220.075 173.414 220.105V218.886C173.286 218.869 173.035 218.857 172.873 218.857C172.106 218.857 171.45 219.291 171.211 219.994H171.143V218.955H169.911V225.5Z" fill="#D5D7E2"/>
			<path fill-rule="evenodd" clip-rule="evenodd" d="M105.5 241V239.5C105.5 238.672 106.17 238 107 238H116C116.83 238 117.5 238.672 117.5 239.5V241H115.5V244H112.5V248H110.5H105.5V241ZM105 252H110.5V249H103.5V250.5C103.5 251.328 104.17 252 105 252ZM113.5 245H116.5V248H113.5V245ZM114.5 249H111.5V252H114.5V249ZM118.5 249H115.5V252H118.5V249Z" fill="#FF6666"/>
			<path d="M127.135 249.5H128.451V246.197H130.241C130.271 246.197 130.297 246.197 130.326 246.197L132.099 249.5H133.599L131.664 245.967C132.734 245.571 133.267 244.68 133.267 243.509C133.267 241.902 132.27 240.773 130.245 240.773H127.135V249.5ZM128.451 245.064V241.902H130.105C131.404 241.902 131.941 242.52 131.941 243.509C131.941 244.493 131.404 245.064 130.122 245.064H128.451ZM137.506 249.632C138.933 249.632 139.943 248.929 140.233 247.864L139.027 247.646C138.797 248.264 138.243 248.58 137.518 248.58C136.428 248.58 135.695 247.872 135.661 246.611H140.314V246.159C140.314 243.794 138.899 242.869 137.416 242.869C135.592 242.869 134.391 244.259 134.391 246.27C134.391 248.303 135.575 249.632 137.506 249.632ZM135.665 245.656C135.716 244.727 136.389 243.922 137.425 243.922C138.413 243.922 139.061 244.655 139.065 245.656H135.665ZM141.728 249.5H143.002V245.464C143.002 244.582 143.62 243.969 144.344 243.969C145.051 243.969 145.542 244.438 145.542 245.149V249.5H146.811V245.328C146.811 244.54 147.293 243.969 148.124 243.969C148.797 243.969 149.351 244.344 149.351 245.23V249.5H150.625V245.111C150.625 243.615 149.79 242.869 148.605 242.869C147.664 242.869 146.956 243.321 146.641 244.02H146.573C146.287 243.304 145.686 242.869 144.813 242.869C143.948 242.869 143.304 243.3 143.032 244.02H142.951V242.955H141.728V249.5ZM155.09 249.632C156.935 249.632 158.141 248.281 158.141 246.257C158.141 244.22 156.935 242.869 155.09 242.869C153.245 242.869 152.039 244.22 152.039 246.257C152.039 248.281 153.245 249.632 155.09 249.632ZM155.094 248.562C153.888 248.562 153.326 247.51 153.326 246.253C153.326 245 153.888 243.935 155.094 243.935C156.292 243.935 156.854 245 156.854 246.253C156.854 247.51 156.292 248.562 155.094 248.562ZM162.619 242.955H161.277V241.386H160.002V242.955H159.044V243.977H160.002V247.842C159.998 249.031 160.906 249.607 161.912 249.585C162.316 249.581 162.589 249.504 162.738 249.449L162.508 248.396C162.423 248.413 162.265 248.452 162.061 248.452C161.647 248.452 161.277 248.315 161.277 247.578V243.977H162.619V242.955ZM166.779 249.632C168.207 249.632 169.217 248.929 169.506 247.864L168.3 247.646C168.07 248.264 167.516 248.58 166.792 248.58C165.701 248.58 164.968 247.872 164.934 246.611H169.587V246.159C169.587 243.794 168.173 242.869 166.69 242.869C164.866 242.869 163.664 244.259 163.664 246.27C163.664 248.303 164.849 249.632 166.779 249.632ZM164.938 245.656C164.989 244.727 165.663 243.922 166.698 243.922C167.687 243.922 168.335 244.655 168.339 245.656H164.938ZM175.863 243.065H177.133C177.095 241.668 175.859 240.653 174.086 240.653C172.335 240.653 170.993 241.655 170.993 243.159C170.993 244.374 171.862 245.085 173.264 245.464L174.295 245.746C175.228 245.993 175.949 246.3 175.949 247.075C175.949 247.928 175.135 248.49 174.014 248.49C173 248.49 172.156 248.038 172.079 247.088H170.758C170.843 248.669 172.066 249.645 174.022 249.645C176.072 249.645 177.252 248.567 177.252 247.088C177.252 245.516 175.85 244.906 174.743 244.634L173.89 244.412C173.208 244.237 172.301 243.918 172.305 243.082C172.305 242.341 172.983 241.791 174.056 241.791C175.058 241.791 175.77 242.26 175.863 243.065ZM178.724 251.955H179.998V248.482H180.075C180.305 248.899 180.773 249.628 181.967 249.628C183.552 249.628 184.702 248.358 184.702 246.24C184.702 244.118 183.535 242.869 181.954 242.869C180.739 242.869 180.3 243.611 180.075 244.016H179.968V242.955H178.724V251.955ZM179.972 246.227C179.972 244.859 180.569 243.952 181.681 243.952C182.836 243.952 183.415 244.928 183.415 246.227C183.415 247.54 182.819 248.541 181.681 248.541C180.586 248.541 179.972 247.604 179.972 246.227ZM186.701 251.955C187.754 251.955 188.418 251.405 188.798 250.374L191.504 242.967L190.127 242.955L188.469 248.034H188.401L186.744 242.955H185.38L187.775 249.585L187.617 250.02C187.293 250.889 186.837 250.962 186.138 250.77L185.832 251.814C185.985 251.882 186.317 251.955 186.701 251.955Z" fill="#D5D7E2"/>
			<path fill-rule="evenodd" clip-rule="evenodd" d="M81.5 265V263.5C81.5 262.672 82.17 262 83 262H92C92.83 262 93.5 262.672 93.5 263.5V265H91.5V268H88.5V272H86.5H81.5V265ZM81 276H86.5V273H79.5V274.5C79.5 275.328 80.17 276 81 276ZM89.5 269H92.5V272H89.5V269ZM90.5 273H87.5V276H90.5V273ZM94.5 273H91.5V276H94.5V273Z" fill="#FF6666"/>
			<path d="M103.872 273.581C104.336 273.581 104.724 273.202 104.724 272.729C104.724 272.264 104.336 271.881 103.872 271.881C103.403 271.881 103.02 272.264 103.02 272.729C103.02 273.202 103.403 273.581 103.872 273.581ZM107.27 273.581C107.735 273.581 108.123 273.202 108.123 272.729C108.123 272.264 107.735 271.881 107.27 271.881C106.801 271.881 106.418 272.264 106.418 272.729C106.418 273.202 106.801 273.581 107.27 273.581ZM110.669 273.581C111.133 273.581 111.521 273.202 111.521 272.729C111.521 272.264 111.133 271.881 110.669 271.881C110.2 271.881 109.816 272.264 109.816 272.729C109.816 273.202 110.2 273.581 110.669 273.581Z" fill="#D5D7E2"/>
		</g>
	</g>
	<defs>
		<filter id="filter0_d" x="142" y="1" width="218" height="252" filterUnits="userSpaceOnUse" color-interpolation-filters="sRGB">
			<feFlood flood-opacity="0" result="BackgroundImageFix"/>
			<feColorMatrix in="SourceAlpha" type="matrix" values="0 0 0 0 0 0 0 0 0 0 0 0 0 0 0 0 0 0 127 0"/>
			<feOffset dy="3"/>
			<feGaussianBlur stdDeviation="9"/>
			<feColorMatrix type="matrix" values="0 0 0 0 0 0 0 0 0 0 0 0 0 0 0 0 0 0 0.3 0"/>
			<feBlend mode="normal" in2="BackgroundImageFix" result="effect1_dropShadow"/>
			<feBlend mode="normal" in="SourceGraphic" in2="effect1_dropShadow" result="shape"/>
		</filter>
		<filter id="filter1_d" x="3" y="86" width="223" height="228" filterUnits="userSpaceOnUse" color-interpolation-filters="sRGB">
			<feFlood flood-opacity="0" result="BackgroundImageFix"/>
			<feColorMatrix in="SourceAlpha" type="matrix" values="0 0 0 0 0 0 0 0 0 0 0 0 0 0 0 0 0 0 127 0"/>
			<feOffset dy="3"/>
			<feGaussianBlur stdDeviation="9"/>
			<feColorMatrix type="matrix" values="0 0 0 0 0 0 0 0 0 0 0 0 0 0 0 0 0 0 0.3 0"/>
			<feBlend mode="normal" in2="BackgroundImageFix" result="effect1_dropShadow"/>
			<feBlend mode="normal" in="SourceGraphic" in2="effect1_dropShadow" result="shape"/>
		</filter>
		<clipPath id="clip0">
			<rect width="363" height="309" fill="white"/>
		</clipPath>
	</defs>
</svg>
