<svg width="196" height="230" viewBox="0 0 196 230" fill="none" xmlns="http://www.w3.org/2000/svg">
<g filter="url(#filter0_d)">
<rect x="7" y="4" width="182" height="216" rx="4" fill="#21222C"/>
<path d="M21.5 25.75L26 30.25L30.5 25.75" stroke="#D5D7E2" stroke-width="1.5"/>
<path fill-rule="evenodd" clip-rule="evenodd" d="M45 24V22.5C45 21.6716 45.672 21 46.5 21H55.5C56.328 21 57 21.6716 57 22.5V24H55V31V32V33.5C55 34.3284 54.328 35 53.5 35H44.5C43.672 35 43 34.3284 43 33.5V32H48H52H54V31H53V29C53 28.4477 52.552 28 52 28H48C47.448 28 47 28.4477 47 29V31H45V24ZM52 25C52 26.1046 51.105 27 50 27C48.895 27 48 26.1046 48 25C48 23.8954 48.895 23 50 23C51.105 23 52 23.8954 52 25Z" fill="#4CBCFF"/>
<path d="M66.1346 23.7727V32.5H67.3874V26.1804H67.4684L70.0423 32.4872H71.082L73.6559 26.1847H73.7369V32.5H74.9897V23.7727H73.3917L70.6133 30.5568H70.511L67.7326 23.7727H66.1346ZM76.8018 32.5H78.076V25.9545H76.8018V32.5ZM77.4453 24.9446C77.8842 24.9446 78.2507 24.6037 78.2507 24.1861C78.2507 23.7685 77.8842 23.4233 77.4453 23.4233C77.0021 23.4233 76.6399 23.7685 76.6399 24.1861C76.6399 24.6037 77.0021 24.9446 77.4453 24.9446ZM82.2404 32.6278C83.4336 32.6278 83.9023 31.8991 84.1325 31.4815H84.239V32.5H85.4833V23.7727H84.2092V27.0156H84.1325C83.9023 26.6108 83.4677 25.8693 82.2489 25.8693C80.668 25.8693 79.5046 27.1179 79.5046 29.2401C79.5046 31.358 80.6509 32.6278 82.2404 32.6278ZM82.5217 31.5412C81.3839 31.5412 80.7915 30.5398 80.7915 29.2273C80.7915 27.9276 81.3711 26.9517 82.5217 26.9517C83.6339 26.9517 84.2305 27.8594 84.2305 29.2273C84.2305 30.6037 83.6211 31.5412 82.5217 31.5412ZM87.3018 32.5H88.576V25.9545H87.3018V32.5ZM87.9453 24.9446C88.3842 24.9446 88.7507 24.6037 88.7507 24.1861C88.7507 23.7685 88.3842 23.4233 87.9453 23.4233C87.5021 23.4233 87.1399 23.7685 87.1399 24.1861C87.1399 24.6037 87.5021 24.9446 87.9453 24.9446ZM90.3924 32.5H91.7092V29.4318H93.4989C95.5231 29.4318 96.5245 28.2088 96.5245 26.598C96.5245 24.9915 95.5316 23.7727 93.5032 23.7727H90.3924V32.5ZM91.7092 28.3153V24.902H93.3626C94.6665 24.902 95.1992 25.6094 95.1992 26.598C95.1992 27.5866 94.6665 28.3153 93.3796 28.3153H91.7092ZM99.2401 23.7727H97.9659V32.5H99.2401V23.7727ZM102.859 32.6449C103.941 32.6449 104.551 32.0952 104.794 31.6051H104.845V32.5H106.089V28.1534C106.089 26.2486 104.589 25.8693 103.549 25.8693C102.365 25.8693 101.274 26.3466 100.848 27.5398L102.045 27.8125C102.233 27.348 102.71 26.9006 103.566 26.9006C104.389 26.9006 104.811 27.331 104.811 28.0724V28.1023C104.811 28.5668 104.333 28.5582 103.157 28.6946C101.917 28.8395 100.647 29.1634 100.647 30.6506C100.647 31.9375 101.615 32.6449 102.859 32.6449ZM103.136 31.6222C102.416 31.6222 101.896 31.2983 101.896 30.6676C101.896 29.9858 102.501 29.7429 103.238 29.6449C103.652 29.5895 104.632 29.4787 104.815 29.2955V30.1392C104.815 30.9148 104.197 31.6222 103.136 31.6222ZM108.357 34.9545C109.41 34.9545 110.075 34.4048 110.454 33.3736L113.16 25.9673L111.783 25.9545L110.126 31.0341H110.058L108.4 25.9545H107.036L109.431 32.5852L109.273 33.0199C108.95 33.8892 108.494 33.9616 107.795 33.7699L107.488 34.8139C107.641 34.8821 107.974 34.9545 108.357 34.9545ZM116.947 32.6321C118.375 32.6321 119.385 31.929 119.674 30.8636L118.468 30.6463C118.238 31.2642 117.684 31.5795 116.96 31.5795C115.869 31.5795 115.136 30.8722 115.102 29.6108H119.755V29.1591C119.755 26.794 118.341 25.8693 116.858 25.8693C115.034 25.8693 113.832 27.2585 113.832 29.2699C113.832 31.3026 115.017 32.6321 116.947 32.6321ZM115.106 28.6562C115.157 27.7273 115.831 26.9219 116.866 26.9219C117.855 26.9219 118.502 27.6548 118.507 28.6562H115.106ZM121.169 32.5H122.443V28.5028C122.443 27.6463 123.104 27.0284 124.007 27.0284C124.271 27.0284 124.57 27.0753 124.672 27.1051V25.8864C124.544 25.8693 124.293 25.8565 124.131 25.8565C123.364 25.8565 122.707 26.2912 122.469 26.9943H122.401V25.9545H121.169V32.5Z" fill="#D5D7E2"/>
<path d="M46.75 56.5L51.25 52L46.75 47.5" stroke="#D5D7E2" stroke-width="1.5"/>
<path fill-rule="evenodd" clip-rule="evenodd" d="M67 46.5C66.45 46.5 66 46.9477 66 47.5V48.5H72L73 47.5L72.29 46.7929C72.11 46.6054 71.85 46.5 71.59 46.5H67ZM67 49.5C66.45 49.5 66 49.9477 66 50.5V56.5C66 57.0523 66.45 57.5 67 57.5H79C79.55 57.5 80 57.0523 80 56.5V48.5C80 47.9477 79.55 47.5 79 47.5H74.91C74.65 47.5 74.39 47.6054 74.21 47.7929L72.79 49.2071C72.61 49.3946 72.35 49.5 72.09 49.5H67Z" fill="#FFBC57"/>
<path d="M89.8718 56.5L90.6729 54.1903H94.082L94.8789 56.5H96.2766L93.136 47.7727H91.6147L88.4741 56.5H89.8718ZM91.0565 53.0824L92.3434 49.358H92.4116L93.6985 53.0824H91.0565ZM102.293 51.5526C102.028 50.5341 101.232 49.8693 99.8168 49.8693C98.3381 49.8693 97.2898 50.6491 97.2898 51.8082C97.2898 52.7372 97.8523 53.3551 99.0795 53.6278L100.188 53.8707C100.818 54.0114 101.112 54.2926 101.112 54.7017C101.112 55.2088 100.571 55.6051 99.7358 55.6051C98.973 55.6051 98.483 55.277 98.3295 54.6335L97.098 54.821C97.3111 55.9801 98.2741 56.6321 99.7443 56.6321C101.325 56.6321 102.42 55.7926 102.42 54.608C102.42 53.6832 101.832 53.1122 100.631 52.8352L99.5909 52.5966C98.8707 52.4261 98.5597 52.1832 98.5639 51.7401C98.5597 51.2372 99.1051 50.8793 99.8295 50.8793C100.622 50.8793 100.989 51.3182 101.138 51.7571L102.293 51.5526ZM108.726 51.5526C108.462 50.5341 107.665 49.8693 106.25 49.8693C104.772 49.8693 103.723 50.6491 103.723 51.8082C103.723 52.7372 104.286 53.3551 105.513 53.6278L106.621 53.8707C107.252 54.0114 107.546 54.2926 107.546 54.7017C107.546 55.2088 107.005 55.6051 106.169 55.6051C105.407 55.6051 104.917 55.277 104.763 54.6335L103.532 54.821C103.745 55.9801 104.708 56.6321 106.178 56.6321C107.759 56.6321 108.854 55.7926 108.854 54.608C108.854 53.6832 108.266 53.1122 107.064 52.8352L106.025 52.5966C105.304 52.4261 104.993 52.1832 104.998 51.7401C104.993 51.2372 105.539 50.8793 106.263 50.8793C107.056 50.8793 107.422 51.3182 107.571 51.7571L108.726 51.5526ZM113.076 56.6321C114.504 56.6321 115.513 55.929 115.803 54.8636L114.597 54.6463C114.367 55.2642 113.813 55.5795 113.089 55.5795C111.998 55.5795 111.265 54.8722 111.231 53.6108H115.884V53.1591C115.884 50.794 114.469 49.8693 112.987 49.8693C111.163 49.8693 109.961 51.2585 109.961 53.2699C109.961 55.3026 111.146 56.6321 113.076 56.6321ZM111.235 52.6562C111.286 51.7273 111.96 50.9219 112.995 50.9219C113.984 50.9219 114.631 51.6548 114.636 52.6562H111.235ZM120.353 49.9545H119.011V48.3864H117.737V49.9545H116.778V50.9773H117.737V54.8423C117.733 56.0312 118.64 56.6065 119.646 56.5852C120.051 56.581 120.324 56.5043 120.473 56.4489L120.243 55.3963C120.157 55.4134 120 55.4517 119.795 55.4517C119.382 55.4517 119.011 55.3153 119.011 54.5781V50.9773H120.353V49.9545ZM126.562 51.5526C126.298 50.5341 125.501 49.8693 124.086 49.8693C122.608 49.8693 121.559 50.6491 121.559 51.8082C121.559 52.7372 122.122 53.3551 123.349 53.6278L124.457 53.8707C125.088 54.0114 125.382 54.2926 125.382 54.7017C125.382 55.2088 124.841 55.6051 124.005 55.6051C123.243 55.6051 122.752 55.277 122.599 54.6335L121.368 54.821C121.581 55.9801 122.544 56.6321 124.014 56.6321C125.595 56.6321 126.69 55.7926 126.69 54.608C126.69 53.6832 126.102 53.1122 124.9 52.8352L123.86 52.5966C123.14 52.4261 122.829 52.1832 122.833 51.7401C122.829 51.2372 123.375 50.8793 124.099 50.8793C124.892 50.8793 125.258 51.3182 125.407 51.7571L126.562 51.5526Z" fill="#D5D7E2"/>
<path d="M46.75 80.5L51.25 76L46.75 71.5" stroke="#D5D7E2" stroke-width="1.5"/>
<path fill-rule="evenodd" clip-rule="evenodd" d="M67 70.5C66.45 70.5 66 70.9477 66 71.5V72.5H72L73 71.5L72.29 70.7929C72.11 70.6054 71.85 70.5 71.59 70.5H67ZM67 73.5C66.45 73.5 66 73.9477 66 74.5V80.5C66 81.0523 66.45 81.5 67 81.5H79C79.55 81.5 80 81.0523 80 80.5V72.5C80 71.9477 79.55 71.5 79 71.5H74.91C74.65 71.5 74.39 71.6054 74.21 71.7929L72.79 73.2071C72.61 73.3946 72.35 73.5 72.09 73.5H67Z" fill="#FFBC57"/>
<path d="M96.3832 74.6108C96.0849 72.7443 94.6232 71.6534 92.7781 71.6534C90.5195 71.6534 88.8533 73.3452 88.8533 76.1364C88.8533 78.9276 90.511 80.6193 92.7781 80.6193C94.6957 80.6193 96.0977 79.4176 96.3832 77.6918L95.0536 77.6875C94.8278 78.804 93.8903 79.4176 92.7866 79.4176C91.2908 79.4176 90.1616 78.2713 90.1616 76.1364C90.1616 74.0185 91.2866 72.8551 92.7908 72.8551C93.9031 72.8551 94.8363 73.4815 95.0536 74.6108H96.3832ZM100.614 80.6321C102.459 80.6321 103.665 79.2812 103.665 77.2571C103.665 75.2202 102.459 73.8693 100.614 73.8693C98.7685 73.8693 97.5625 75.2202 97.5625 77.2571C97.5625 79.2812 98.7685 80.6321 100.614 80.6321ZM100.618 79.5625C99.4119 79.5625 98.8494 78.5099 98.8494 77.2528C98.8494 76 99.4119 74.9347 100.618 74.9347C101.815 74.9347 102.378 76 102.378 77.2528C102.378 78.5099 101.815 79.5625 100.618 79.5625ZM105.087 80.5H106.361V76.4645C106.361 75.5824 106.979 74.9688 107.703 74.9688C108.411 74.9688 108.901 75.4375 108.901 76.1491V80.5H110.171V76.3281C110.171 75.5398 110.652 74.9688 111.483 74.9688C112.157 74.9688 112.711 75.3438 112.711 76.2301V80.5H113.985V76.1108C113.985 74.6151 113.15 73.8693 111.965 73.8693C111.023 73.8693 110.316 74.321 110 75.0199H109.932C109.647 74.304 109.046 73.8693 108.172 73.8693C107.307 73.8693 106.664 74.2997 106.391 75.0199H106.31V73.9545H105.087V80.5ZM115.692 82.9545H116.967V79.4815H117.043C117.273 79.8991 117.742 80.6278 118.935 80.6278C120.521 80.6278 121.671 79.358 121.671 77.2401C121.671 75.1179 120.504 73.8693 118.923 73.8693C117.708 73.8693 117.269 74.6108 117.043 75.0156H116.937V73.9545H115.692V82.9545ZM116.941 77.2273C116.941 75.8594 117.538 74.9517 118.65 74.9517C119.805 74.9517 120.384 75.9276 120.384 77.2273C120.384 78.5398 119.788 79.5412 118.65 79.5412C117.555 79.5412 116.941 78.6037 116.941 77.2273ZM125.856 80.6321C127.701 80.6321 128.907 79.2812 128.907 77.2571C128.907 75.2202 127.701 73.8693 125.856 73.8693C124.011 73.8693 122.805 75.2202 122.805 77.2571C122.805 79.2812 124.011 80.6321 125.856 80.6321ZM125.86 79.5625C124.654 79.5625 124.092 78.5099 124.092 77.2528C124.092 76 124.654 74.9347 125.86 74.9347C127.058 74.9347 127.62 76 127.62 77.2528C127.62 78.5099 127.058 79.5625 125.86 79.5625ZM131.603 76.6136C131.603 75.5696 132.243 74.973 133.129 74.973C133.994 74.973 134.518 75.5398 134.518 76.4901V80.5H135.792V76.3366C135.792 74.7173 134.902 73.8693 133.564 73.8693C132.579 73.8693 131.936 74.3253 131.633 75.0199H131.552V73.9545H130.329V80.5H131.603V76.6136ZM140.322 80.6321C141.75 80.6321 142.76 79.929 143.049 78.8636L141.843 78.6463C141.613 79.2642 141.059 79.5795 140.335 79.5795C139.244 79.5795 138.511 78.8722 138.477 77.6108H143.13V77.1591C143.13 74.794 141.716 73.8693 140.233 73.8693C138.409 73.8693 137.207 75.2585 137.207 77.2699C137.207 79.3026 138.392 80.6321 140.322 80.6321ZM138.481 76.6562C138.532 75.7273 139.206 74.9219 140.241 74.9219C141.23 74.9219 141.877 75.6548 141.882 76.6562H138.481ZM145.818 76.6136C145.818 75.5696 146.457 74.973 147.344 74.973C148.209 74.973 148.733 75.5398 148.733 76.4901V80.5H150.007V76.3366C150.007 74.7173 149.116 73.8693 147.778 73.8693C146.794 73.8693 146.151 74.3253 145.848 75.0199H145.767V73.9545H144.544V80.5H145.818V76.6136ZM154.771 73.9545H153.429V72.3864H152.155V73.9545H151.196V74.9773H152.155V78.8423C152.151 80.0312 153.058 80.6065 154.064 80.5852C154.469 80.581 154.741 80.5043 154.891 80.4489L154.661 79.3963C154.575 79.4134 154.418 79.4517 154.213 79.4517C153.8 79.4517 153.429 79.3153 153.429 78.5781V74.9773H154.771V73.9545ZM160.98 75.5526C160.716 74.5341 159.919 73.8693 158.504 73.8693C157.026 73.8693 155.977 74.6491 155.977 75.8082C155.977 76.7372 156.54 77.3551 157.767 77.6278L158.875 77.8707C159.506 78.0114 159.8 78.2926 159.8 78.7017C159.8 79.2088 159.259 79.6051 158.423 79.6051C157.661 79.6051 157.17 79.277 157.017 78.6335L155.786 78.821C155.999 79.9801 156.962 80.6321 158.432 80.6321C160.013 80.6321 161.108 79.7926 161.108 78.608C161.108 77.6832 160.52 77.1122 159.318 76.8352L158.278 76.5966C157.558 76.4261 157.247 76.1832 157.251 75.7401C157.247 75.2372 157.793 74.8793 158.517 74.8793C159.31 74.8793 159.676 75.3182 159.825 75.7571L160.98 75.5526Z" fill="#D5D7E2"/>
<path d="M46.75 104.5L51.25 100L46.75 95.5" stroke="#D5D7E2" stroke-width="1.5"/>
<path fill-rule="evenodd" clip-rule="evenodd" d="M67 94.5C66.45 94.5 66 94.9477 66 95.5V96.5H72L73 95.5L72.29 94.7929C72.11 94.6054 71.85 94.5 71.59 94.5H67ZM67 97.5C66.45 97.5 66 97.9477 66 98.5V104.5C66 105.052 66.45 105.5 67 105.5H79C79.55 105.5 80 105.052 80 104.5V96.5C80 95.9477 79.55 95.5 79 95.5H74.91C74.65 95.5 74.39 95.6054 74.21 95.7929L72.79 97.2071C72.61 97.3946 72.35 97.5 72.09 97.5H67Z" fill="#FFBC57"/>
<path d="M94.7468 95.7727V101.406C94.7468 102.591 93.9286 103.443 92.5991 103.443C91.2738 103.443 90.4513 102.591 90.4513 101.406V95.7727H89.1346V101.513C89.1346 103.345 90.5067 104.645 92.5991 104.645C94.6914 104.645 96.0678 103.345 96.0678 101.513V95.7727H94.7468ZM100.935 97.9545H99.593V96.3864H98.3189V97.9545H97.3601V98.9773H98.3189V102.842C98.3146 104.031 99.2223 104.607 100.228 104.585C100.633 104.581 100.906 104.504 101.055 104.449L100.825 103.396C100.739 103.413 100.582 103.452 100.377 103.452C99.9638 103.452 99.593 103.315 99.593 102.578V98.9773H100.935V97.9545ZM102.345 104.5H103.619V97.9545H102.345V104.5ZM102.988 96.9446C103.427 96.9446 103.794 96.6037 103.794 96.1861C103.794 95.7685 103.427 95.4233 102.988 95.4233C102.545 95.4233 102.183 95.7685 102.183 96.1861C102.183 96.6037 102.545 96.9446 102.988 96.9446ZM106.607 95.7727H105.333V104.5H106.607V95.7727Z" fill="#D5D7E2"/>
<path fill-rule="evenodd" clip-rule="evenodd" d="M67.5 120V118.5C67.5 117.672 68.17 117 69 117H78C78.83 117 79.5 117.672 79.5 118.5V120H77.5V123H74.5V127H72.5H67.5V120ZM67 131H72.5V128H65.5V129.5C65.5 130.328 66.17 131 67 131ZM75.5 124H78.5V127H75.5V124ZM76.5 128H73.5V131H76.5V128ZM80.5 128H77.5V131H80.5V128Z" fill="#FF6666"/>
<path d="M89.1346 128.5H90.4513V124.695H94.1587V123.565H90.4513V120.906H94.5465V119.773H89.1346V128.5ZM97.945 128.645C99.0273 128.645 99.6367 128.095 99.8796 127.605H99.9308V128.5H101.175V124.153C101.175 122.249 99.6751 121.869 98.6353 121.869C97.4506 121.869 96.3597 122.347 95.9336 123.54L97.131 123.812C97.3185 123.348 97.7958 122.901 98.6523 122.901C99.4748 122.901 99.8967 123.331 99.8967 124.072V124.102C99.8967 124.567 99.4194 124.558 98.2433 124.695C97.0032 124.839 95.7333 125.163 95.7333 126.651C95.7333 127.938 96.7006 128.645 97.945 128.645ZM98.2219 127.622C97.5018 127.622 96.9819 127.298 96.9819 126.668C96.9819 125.986 97.587 125.743 98.3242 125.645C98.7376 125.589 99.7177 125.479 99.9009 125.295V126.139C99.9009 126.915 99.283 127.622 98.2219 127.622ZM107.777 123.553C107.513 122.534 106.716 121.869 105.301 121.869C103.822 121.869 102.774 122.649 102.774 123.808C102.774 124.737 103.337 125.355 104.564 125.628L105.672 125.871C106.303 126.011 106.597 126.293 106.597 126.702C106.597 127.209 106.055 127.605 105.22 127.605C104.457 127.605 103.967 127.277 103.814 126.634L102.582 126.821C102.795 127.98 103.759 128.632 105.229 128.632C106.81 128.632 107.905 127.793 107.905 126.608C107.905 125.683 107.317 125.112 106.115 124.835L105.075 124.597C104.355 124.426 104.044 124.183 104.048 123.74C104.044 123.237 104.589 122.879 105.314 122.879C106.107 122.879 106.473 123.318 106.622 123.757L107.777 123.553ZM112.361 121.955H111.019V120.386H109.745V121.955H108.786V122.977H109.745V126.842C109.74 128.031 110.648 128.607 111.654 128.585C112.059 128.581 112.331 128.504 112.48 128.449L112.25 127.396C112.165 127.413 112.007 127.452 111.803 127.452C111.39 127.452 111.019 127.315 111.019 126.578V122.977H112.361V121.955ZM116.839 128.5C119.498 128.5 121.036 126.851 121.036 124.124C121.036 121.409 119.498 119.773 116.928 119.773H114.013V128.5H116.839ZM115.33 127.349V120.923H116.847C118.756 120.923 119.741 122.065 119.741 124.124C119.741 126.19 118.756 127.349 116.766 127.349H115.33ZM122.571 128.5H123.846V124.503C123.846 123.646 124.506 123.028 125.409 123.028C125.674 123.028 125.972 123.075 126.074 123.105V121.886C125.946 121.869 125.695 121.857 125.533 121.857C124.766 121.857 124.11 122.291 123.871 122.994H123.803V121.955H122.571V128.5ZM129.023 128.645C130.105 128.645 130.715 128.095 130.958 127.605H131.009V128.5H132.253V124.153C132.253 122.249 130.753 121.869 129.713 121.869C128.529 121.869 127.438 122.347 127.012 123.54L128.209 123.812C128.397 123.348 128.874 122.901 129.73 122.901C130.553 122.901 130.975 123.331 130.975 124.072V124.102C130.975 124.567 130.498 124.558 129.321 124.695C128.081 124.839 126.811 125.163 126.811 126.651C126.811 127.938 127.779 128.645 129.023 128.645ZM129.3 127.622C128.58 127.622 128.06 127.298 128.06 126.668C128.06 125.986 128.665 125.743 129.402 125.645C129.816 125.589 130.796 125.479 130.979 125.295V126.139C130.979 126.915 130.361 127.622 129.3 127.622ZM136.695 131.091C138.361 131.091 139.648 130.328 139.648 128.645V121.955H138.399V123.016H138.305C138.08 122.611 137.628 121.869 136.409 121.869C134.828 121.869 133.665 123.118 133.665 125.202C133.665 127.29 134.854 128.402 136.401 128.402C137.602 128.402 138.067 127.724 138.297 127.307H138.378V128.594C138.378 129.621 137.675 130.064 136.707 130.064C135.646 130.064 135.233 129.531 135.007 129.156L133.912 129.608C134.257 130.409 135.131 131.091 136.695 131.091ZM136.682 127.345C135.544 127.345 134.952 126.472 134.952 125.185C134.952 123.928 135.531 122.952 136.682 122.952C137.794 122.952 138.391 123.859 138.391 125.185C138.391 126.536 137.781 127.345 136.682 127.345ZM144.101 131.091C145.767 131.091 147.054 130.328 147.054 128.645V121.955H145.805V123.016H145.712C145.486 122.611 145.034 121.869 143.815 121.869C142.234 121.869 141.071 123.118 141.071 125.202C141.071 127.29 142.26 128.402 143.807 128.402C145.009 128.402 145.473 127.724 145.703 127.307H145.784V128.594C145.784 129.621 145.081 130.064 144.114 130.064C143.053 130.064 142.639 129.531 142.413 129.156L141.318 129.608C141.663 130.409 142.537 131.091 144.101 131.091ZM144.088 127.345C142.95 127.345 142.358 126.472 142.358 125.185C142.358 123.928 142.938 122.952 144.088 122.952C145.2 122.952 145.797 123.859 145.797 125.185C145.797 126.536 145.188 127.345 144.088 127.345ZM150.668 128.645C151.75 128.645 152.359 128.095 152.602 127.605H152.653V128.5H153.898V124.153C153.898 122.249 152.398 121.869 151.358 121.869C150.173 121.869 149.082 122.347 148.656 123.54L149.854 123.812C150.041 123.348 150.518 122.901 151.375 122.901C152.197 122.901 152.619 123.331 152.619 124.072V124.102C152.619 124.567 152.142 124.558 150.966 124.695C149.726 124.839 148.456 125.163 148.456 126.651C148.456 127.938 149.423 128.645 150.668 128.645ZM150.945 127.622C150.224 127.622 149.705 127.298 149.705 126.668C149.705 125.986 150.31 125.743 151.047 125.645C151.46 125.589 152.44 125.479 152.624 125.295V126.139C152.624 126.915 152.006 127.622 150.945 127.622ZM155.697 128.5H156.941V127.482H157.048C157.278 127.899 157.747 128.628 158.94 128.628C160.525 128.628 161.676 127.358 161.676 125.24C161.676 123.118 160.508 121.869 158.927 121.869C157.713 121.869 157.274 122.611 157.048 123.016H156.971V119.773H155.697V128.5ZM156.946 125.227C156.946 123.859 157.542 122.952 158.654 122.952C159.809 122.952 160.389 123.928 160.389 125.227C160.389 126.54 159.792 127.541 158.654 127.541C157.559 127.541 156.946 126.604 156.946 125.227ZM164.381 119.773H163.107V128.5H164.381V119.773ZM168.916 128.632C170.343 128.632 171.353 127.929 171.643 126.864L170.437 126.646C170.207 127.264 169.653 127.58 168.929 127.58C167.838 127.58 167.105 126.872 167.071 125.611H171.724V125.159C171.724 122.794 170.309 121.869 168.826 121.869C167.002 121.869 165.801 123.259 165.801 125.27C165.801 127.303 166.985 128.632 168.916 128.632ZM167.075 124.656C167.126 123.727 167.799 122.922 168.835 122.922C169.824 122.922 170.471 123.655 170.475 124.656H167.075Z" fill="#D5D7E2"/>
<path fill-rule="evenodd" clip-rule="evenodd" d="M67.5 144V142.5C67.5 141.672 68.17 141 69 141H78C78.83 141 79.5 141.672 79.5 142.5V144H77.5V147H74.5V151H72.5H67.5V144ZM67 155H72.5V152H65.5V153.5C65.5 154.328 66.17 155 67 155ZM75.5 148H78.5V151H75.5V148ZM76.5 152H73.5V155H76.5V152ZM80.5 152H77.5V155H80.5V152Z" fill="#FF6666"/>
<path d="M89.1346 152.5H90.4513V148.695H94.1587V147.565H90.4513V144.906H94.5465V143.773H89.1346V152.5ZM97.945 152.645C99.0273 152.645 99.6367 152.095 99.8796 151.605H99.9308V152.5H101.175V148.153C101.175 146.249 99.6751 145.869 98.6353 145.869C97.4506 145.869 96.3597 146.347 95.9336 147.54L97.131 147.812C97.3185 147.348 97.7958 146.901 98.6523 146.901C99.4748 146.901 99.8967 147.331 99.8967 148.072V148.102C99.8967 148.567 99.4194 148.558 98.2433 148.695C97.0032 148.839 95.7333 149.163 95.7333 150.651C95.7333 151.938 96.7006 152.645 97.945 152.645ZM98.2219 151.622C97.5018 151.622 96.9819 151.298 96.9819 150.668C96.9819 149.986 97.587 149.743 98.3242 149.645C98.7376 149.589 99.7177 149.479 99.9009 149.295V150.139C99.9009 150.915 99.283 151.622 98.2219 151.622ZM107.777 147.553C107.513 146.534 106.716 145.869 105.301 145.869C103.822 145.869 102.774 146.649 102.774 147.808C102.774 148.737 103.337 149.355 104.564 149.628L105.672 149.871C106.303 150.011 106.597 150.293 106.597 150.702C106.597 151.209 106.055 151.605 105.22 151.605C104.457 151.605 103.967 151.277 103.814 150.634L102.582 150.821C102.795 151.98 103.759 152.632 105.229 152.632C106.81 152.632 107.905 151.793 107.905 150.608C107.905 149.683 107.317 149.112 106.115 148.835L105.075 148.597C104.355 148.426 104.044 148.183 104.048 147.74C104.044 147.237 104.589 146.879 105.314 146.879C106.107 146.879 106.473 147.318 106.622 147.757L107.777 147.553ZM112.361 145.955H111.019V144.386H109.745V145.955H108.786V146.977H109.745V150.842C109.74 152.031 110.648 152.607 111.654 152.585C112.059 152.581 112.331 152.504 112.48 152.449L112.25 151.396C112.165 151.413 112.007 151.452 111.803 151.452C111.39 151.452 111.019 151.315 111.019 150.578V146.977H112.361V145.955ZM113.032 144.906H115.751V152.5H117.064V144.906H119.787V143.773H113.032V144.906ZM121.846 152.5H123.141L124.471 147.774H124.569L125.898 152.5H127.198L129.12 145.955H127.803L126.529 150.74H126.465L125.187 145.955H123.87L122.583 150.761H122.519L121.237 145.955H119.92L121.846 152.5ZM132.951 152.632C134.379 152.632 135.388 151.929 135.678 150.864L134.472 150.646C134.242 151.264 133.688 151.58 132.964 151.58C131.873 151.58 131.14 150.872 131.106 149.611H135.759V149.159C135.759 146.794 134.344 145.869 132.862 145.869C131.038 145.869 129.836 147.259 129.836 149.27C129.836 151.303 131.021 152.632 132.951 152.632ZM131.11 148.656C131.161 147.727 131.835 146.922 132.87 146.922C133.859 146.922 134.506 147.655 134.511 148.656H131.11ZM139.994 152.632C141.422 152.632 142.431 151.929 142.721 150.864L141.515 150.646C141.285 151.264 140.731 151.58 140.007 151.58C138.916 151.58 138.183 150.872 138.149 149.611H142.802V149.159C142.802 146.794 141.387 145.869 139.904 145.869C138.081 145.869 136.879 147.259 136.879 149.27C136.879 151.303 138.064 152.632 139.994 152.632ZM138.153 148.656C138.204 147.727 138.877 146.922 139.913 146.922C140.902 146.922 141.549 147.655 141.554 148.656H138.153ZM145.49 148.614C145.49 147.57 146.129 146.973 147.016 146.973C147.881 146.973 148.405 147.54 148.405 148.49V152.5H149.679V148.337C149.679 146.717 148.788 145.869 147.45 145.869C146.466 145.869 145.822 146.325 145.52 147.02H145.439V145.955H144.216V152.5H145.49V148.614Z" fill="#D5D7E2"/>
<path fill-rule="evenodd" clip-rule="evenodd" d="M67.5 168V166.5C67.5 165.672 68.17 165 69 165H78C78.83 165 79.5 165.672 79.5 166.5V168H77.5V171H74.5V175H72.5H67.5V168ZM67 179H72.5V176H65.5V177.5C65.5 178.328 66.17 179 67 179ZM75.5 172H78.5V175H75.5V172ZM76.5 176H73.5V179H76.5V176ZM80.5 176H77.5V179H80.5V176Z" fill="#FF6666"/>
<path d="M90.4513 167.773H89.1346V176.5H90.4513V167.773ZM93.5408 172.614C93.5408 171.57 94.18 170.973 95.0664 170.973C95.9315 170.973 96.4556 171.54 96.4556 172.49V176.5H97.7298V172.337C97.7298 170.717 96.8391 169.869 95.5011 169.869C94.5167 169.869 93.8732 170.325 93.5707 171.02H93.4897V169.955H92.2667V176.5H93.5408V172.614ZM99.4386 178.955H100.713V175.482H100.789C101.02 175.899 101.488 176.628 102.681 176.628C104.267 176.628 105.417 175.358 105.417 173.24C105.417 171.118 104.25 169.869 102.669 169.869C101.454 169.869 101.015 170.611 100.789 171.016H100.683V169.955H99.4386V178.955ZM100.687 173.227C100.687 171.859 101.284 170.952 102.396 170.952C103.551 170.952 104.13 171.928 104.13 173.227C104.13 174.54 103.534 175.541 102.396 175.541C101.301 175.541 100.687 174.604 100.687 173.227ZM110.991 173.786C110.995 174.898 110.169 175.426 109.453 175.426C108.664 175.426 108.119 174.855 108.119 173.964V169.955H106.845V174.118C106.845 175.741 107.735 176.585 108.993 176.585C109.977 176.585 110.646 176.065 110.949 175.366H111.017V176.5H112.27V169.955H110.991V173.786ZM117.037 169.955H115.695V168.386H114.42V169.955H113.462V170.977H114.42V174.842C114.416 176.031 115.324 176.607 116.33 176.585C116.734 176.581 117.007 176.504 117.156 176.449L116.926 175.396C116.841 175.413 116.683 175.452 116.479 175.452C116.065 175.452 115.695 175.315 115.695 174.578V170.977H117.037V169.955Z" fill="#D5D7E2"/>
<path fill-rule="evenodd" clip-rule="evenodd" d="M67.5 192V190.5C67.5 189.672 68.17 189 69 189H78C78.83 189 79.5 189.672 79.5 190.5V192H77.5V195H74.5V199H72.5H67.5V192ZM67 203H72.5V200H65.5V201.5C65.5 202.328 66.17 203 67 203ZM75.5 196H78.5V199H75.5V196ZM76.5 200H73.5V203H76.5V200ZM80.5 200H77.5V203H80.5V200Z" fill="#FF6666"/>
<path d="M89.8718 200.581C90.3363 200.581 90.7241 200.202 90.7241 199.729C90.7241 199.264 90.3363 198.881 89.8718 198.881C89.4031 198.881 89.0195 199.264 89.0195 199.729C89.0195 200.202 89.4031 200.581 89.8718 200.581ZM93.2702 200.581C93.7347 200.581 94.1225 200.202 94.1225 199.729C94.1225 199.264 93.7347 198.881 93.2702 198.881C92.8015 198.881 92.418 199.264 92.418 199.729C92.418 200.202 92.8015 200.581 93.2702 200.581ZM96.6687 200.581C97.1332 200.581 97.521 200.202 97.521 199.729C97.521 199.264 97.1332 198.881 96.6687 198.881C96.1999 198.881 95.8164 199.264 95.8164 199.729C95.8164 200.202 96.1999 200.581 96.6687 200.581Z" fill="#D5D7E2"/>
</g>
<defs>
<filter id="filter0_d" x="0" y="0" width="196" height="230" filterUnits="userSpaceOnUse" color-interpolation-filters="sRGB">
<feFlood flood-opacity="0" result="BackgroundImageFix"/>
<feColorMatrix in="SourceAlpha" type="matrix" values="0 0 0 0 0 0 0 0 0 0 0 0 0 0 0 0 0 0 127 0"/>
<feOffset dy="3"/>
<feGaussianBlur stdDeviation="3.5"/>
<feColorMatrix type="matrix" values="0 0 0 0 0 0 0 0 0 0 0 0 0 0 0 0 0 0 0.18 0"/>
<feBlend mode="normal" in2="BackgroundImageFix" result="effect1_dropShadow"/>
<feBlend mode="normal" in="SourceGraphic" in2="effect1_dropShadow" result="shape"/>
</filter>
</defs>
</svg>
