<svg width="197" height="278" viewBox="0 0 197 278" fill="none" xmlns="http://www.w3.org/2000/svg">
<g filter="url(#filter0_d)">
<rect x="7" y="4" width="183" height="264" rx="4" fill="#21222C"/>
<path d="M21.5 25.75L26 30.25L30.5 25.75" stroke="#D5D7E2" stroke-width="1.5"/>
<path fill-rule="evenodd" clip-rule="evenodd" d="M44.5 24V22.5C44.5 21.6716 45.17 21 46 21H55C55.83 21 56.5 21.6716 56.5 22.5V24H54.5V27H51.5V31H49.5H44.5V24ZM44 35H49.5V32H42.5V33.5C42.5 34.3284 43.17 35 44 35ZM52.5 28H55.5V31H52.5V28ZM53.5 32H50.5V35H53.5V32ZM57.5 32H54.5V35H57.5V32Z" fill="#FF6666"/>
<path d="M66.1346 23.7727V32.5H67.3874V26.1804H67.4684L70.0423 32.4872H71.082L73.6559 26.1847H73.7369V32.5H74.9897V23.7727H73.3917L70.6133 30.5568H70.511L67.7326 23.7727H66.1346ZM76.8018 32.5H78.076V25.9545H76.8018V32.5ZM77.4453 24.9446C77.8842 24.9446 78.2507 24.6037 78.2507 24.1861C78.2507 23.7685 77.8842 23.4233 77.4453 23.4233C77.0021 23.4233 76.6399 23.7685 76.6399 24.1861C76.6399 24.6037 77.0021 24.9446 77.4453 24.9446ZM82.2404 32.6278C83.4336 32.6278 83.9023 31.8991 84.1325 31.4815H84.239V32.5H85.4833V23.7727H84.2092V27.0156H84.1325C83.9023 26.6108 83.4677 25.8693 82.2489 25.8693C80.668 25.8693 79.5046 27.1179 79.5046 29.2401C79.5046 31.358 80.6509 32.6278 82.2404 32.6278ZM82.5217 31.5412C81.3839 31.5412 80.7915 30.5398 80.7915 29.2273C80.7915 27.9276 81.3711 26.9517 82.5217 26.9517C83.6339 26.9517 84.2305 27.8594 84.2305 29.2273C84.2305 30.6037 83.6211 31.5412 82.5217 31.5412ZM87.3018 32.5H88.576V25.9545H87.3018V32.5ZM87.9453 24.9446C88.3842 24.9446 88.7507 24.6037 88.7507 24.1861C88.7507 23.7685 88.3842 23.4233 87.9453 23.4233C87.5021 23.4233 87.1399 23.7685 87.1399 24.1861C87.1399 24.6037 87.5021 24.9446 87.9453 24.9446ZM90.3924 32.5H91.7092V29.4318H93.4989C95.5231 29.4318 96.5245 28.2088 96.5245 26.598C96.5245 24.9915 95.5316 23.7727 93.5032 23.7727H90.3924V32.5ZM91.7092 28.3153V24.902H93.3626C94.6665 24.902 95.1992 25.6094 95.1992 26.598C95.1992 27.5866 94.6665 28.3153 93.3796 28.3153H91.7092ZM99.2401 23.7727H97.9659V32.5H99.2401V23.7727ZM102.859 32.6449C103.941 32.6449 104.551 32.0952 104.794 31.6051H104.845V32.5H106.089V28.1534C106.089 26.2486 104.589 25.8693 103.549 25.8693C102.365 25.8693 101.274 26.3466 100.848 27.5398L102.045 27.8125C102.233 27.348 102.71 26.9006 103.566 26.9006C104.389 26.9006 104.811 27.331 104.811 28.0724V28.1023C104.811 28.5668 104.333 28.5582 103.157 28.6946C101.917 28.8395 100.647 29.1634 100.647 30.6506C100.647 31.9375 101.615 32.6449 102.859 32.6449ZM103.136 31.6222C102.416 31.6222 101.896 31.2983 101.896 30.6676C101.896 29.9858 102.501 29.7429 103.238 29.6449C103.652 29.5895 104.632 29.4787 104.815 29.2955V30.1392C104.815 30.9148 104.197 31.6222 103.136 31.6222ZM108.357 34.9545C109.41 34.9545 110.075 34.4048 110.454 33.3736L113.16 25.9673L111.783 25.9545L110.126 31.0341H110.058L108.4 25.9545H107.036L109.431 32.5852L109.273 33.0199C108.95 33.8892 108.494 33.9616 107.795 33.7699L107.488 34.8139C107.641 34.8821 107.974 34.9545 108.357 34.9545ZM116.947 32.6321C118.375 32.6321 119.385 31.929 119.674 30.8636L118.468 30.6463C118.238 31.2642 117.684 31.5795 116.96 31.5795C115.869 31.5795 115.136 30.8722 115.102 29.6108H119.755V29.1591C119.755 26.794 118.341 25.8693 116.858 25.8693C115.034 25.8693 113.832 27.2585 113.832 29.2699C113.832 31.3026 115.017 32.6321 116.947 32.6321ZM115.106 28.6562C115.157 27.7273 115.831 26.9219 116.866 26.9219C117.855 26.9219 118.502 27.6548 118.507 28.6562H115.106ZM121.169 32.5H122.443V28.5028C122.443 27.6463 123.104 27.0284 124.007 27.0284C124.271 27.0284 124.57 27.0753 124.672 27.1051V25.8864C124.544 25.8693 124.293 25.8565 124.131 25.8565C123.364 25.8565 122.707 26.2912 122.469 26.9943H122.401V25.9545H121.169V32.5Z" fill="#D5D7E2"/>
<path d="M45.75 56.5L50.25 52L45.75 47.5" stroke="#D5D7E2" stroke-width="1.5"/>
<path fill-rule="evenodd" clip-rule="evenodd" d="M66 46.5C65.45 46.5 65 46.9477 65 47.5V48.5H71L72 47.5L71.29 46.7929C71.11 46.6054 70.85 46.5 70.59 46.5H66ZM66 49.5C65.45 49.5 65 49.9477 65 50.5V56.5C65 57.0523 65.45 57.5 66 57.5H78C78.55 57.5 79 57.0523 79 56.5V48.5C79 47.9477 78.55 47.5 78 47.5H73.91C73.65 47.5 73.39 47.6054 73.21 47.7929L71.79 49.2071C71.61 49.3946 71.35 49.5 71.09 49.5H66Z" fill="#FFBC57"/>
<path d="M88.8718 56.5L89.6729 54.1903H93.082L93.8789 56.5H95.2766L92.136 47.7727H90.6147L87.4741 56.5H88.8718ZM90.0565 53.0824L91.3434 49.358H91.4116L92.6985 53.0824H90.0565ZM101.293 51.5526C101.028 50.5341 100.232 49.8693 98.8168 49.8693C97.3381 49.8693 96.2898 50.6491 96.2898 51.8082C96.2898 52.7372 96.8523 53.3551 98.0795 53.6278L99.1875 53.8707C99.8182 54.0114 100.112 54.2926 100.112 54.7017C100.112 55.2088 99.571 55.6051 98.7358 55.6051C97.973 55.6051 97.483 55.277 97.3295 54.6335L96.098 54.821C96.3111 55.9801 97.2741 56.6321 98.7443 56.6321C100.325 56.6321 101.42 55.7926 101.42 54.608C101.42 53.6832 100.832 53.1122 99.6307 52.8352L98.5909 52.5966C97.8707 52.4261 97.5597 52.1832 97.5639 51.7401C97.5597 51.2372 98.1051 50.8793 98.8295 50.8793C99.6222 50.8793 99.9886 51.3182 100.138 51.7571L101.293 51.5526ZM107.726 51.5526C107.462 50.5341 106.665 49.8693 105.25 49.8693C103.772 49.8693 102.723 50.6491 102.723 51.8082C102.723 52.7372 103.286 53.3551 104.513 53.6278L105.621 53.8707C106.252 54.0114 106.546 54.2926 106.546 54.7017C106.546 55.2088 106.005 55.6051 105.169 55.6051C104.407 55.6051 103.917 55.277 103.763 54.6335L102.532 54.821C102.745 55.9801 103.708 56.6321 105.178 56.6321C106.759 56.6321 107.854 55.7926 107.854 54.608C107.854 53.6832 107.266 53.1122 106.064 52.8352L105.025 52.5966C104.304 52.4261 103.993 52.1832 103.998 51.7401C103.993 51.2372 104.539 50.8793 105.263 50.8793C106.056 50.8793 106.422 51.3182 106.571 51.7571L107.726 51.5526ZM112.076 56.6321C113.504 56.6321 114.513 55.929 114.803 54.8636L113.597 54.6463C113.367 55.2642 112.813 55.5795 112.089 55.5795C110.998 55.5795 110.265 54.8722 110.231 53.6108H114.884V53.1591C114.884 50.794 113.469 49.8693 111.987 49.8693C110.163 49.8693 108.961 51.2585 108.961 53.2699C108.961 55.3026 110.146 56.6321 112.076 56.6321ZM110.235 52.6562C110.286 51.7273 110.96 50.9219 111.995 50.9219C112.984 50.9219 113.631 51.6548 113.636 52.6562H110.235ZM119.353 49.9545H118.011V48.3864H116.737V49.9545H115.778V50.9773H116.737V54.8423C116.733 56.0312 117.64 56.6065 118.646 56.5852C119.051 56.581 119.324 56.5043 119.473 56.4489L119.243 55.3963C119.157 55.4134 119 55.4517 118.795 55.4517C118.382 55.4517 118.011 55.3153 118.011 54.5781V50.9773H119.353V49.9545ZM125.562 51.5526C125.298 50.5341 124.501 49.8693 123.086 49.8693C121.608 49.8693 120.559 50.6491 120.559 51.8082C120.559 52.7372 121.122 53.3551 122.349 53.6278L123.457 53.8707C124.088 54.0114 124.382 54.2926 124.382 54.7017C124.382 55.2088 123.841 55.6051 123.005 55.6051C122.243 55.6051 121.752 55.277 121.599 54.6335L120.368 54.821C120.581 55.9801 121.544 56.6321 123.014 56.6321C124.595 56.6321 125.69 55.7926 125.69 54.608C125.69 53.6832 125.102 53.1122 123.9 52.8352L122.86 52.5966C122.14 52.4261 121.829 52.1832 121.833 51.7401C121.829 51.2372 122.375 50.8793 123.099 50.8793C123.892 50.8793 124.258 51.3182 124.407 51.7571L125.562 51.5526Z" fill="#D5D7E2"/>
<path d="M45.75 80.5L50.25 76L45.75 71.5" stroke="#D5D7E2" stroke-width="1.5"/>
<path fill-rule="evenodd" clip-rule="evenodd" d="M66 70.5C65.45 70.5 65 70.9477 65 71.5V72.5H71L72 71.5L71.29 70.7929C71.11 70.6054 70.85 70.5 70.59 70.5H66ZM66 73.5C65.45 73.5 65 73.9477 65 74.5V80.5C65 81.0523 65.45 81.5 66 81.5H78C78.55 81.5 79 81.0523 79 80.5V72.5C79 71.9477 78.55 71.5 78 71.5H73.91C73.65 71.5 73.39 71.6054 73.21 71.7929L71.79 73.2071C71.61 73.3946 71.35 73.5 71.09 73.5H66Z" fill="#FFBC57"/>
<path d="M95.3832 74.6108C95.0849 72.7443 93.6232 71.6534 91.7781 71.6534C89.5195 71.6534 87.8533 73.3452 87.8533 76.1364C87.8533 78.9276 89.511 80.6193 91.7781 80.6193C93.6957 80.6193 95.0977 79.4176 95.3832 77.6918L94.0536 77.6875C93.8278 78.804 92.8903 79.4176 91.7866 79.4176C90.2908 79.4176 89.1616 78.2713 89.1616 76.1364C89.1616 74.0185 90.2866 72.8551 91.7908 72.8551C92.9031 72.8551 93.8363 73.4815 94.0536 74.6108H95.3832ZM99.6136 80.6321C101.459 80.6321 102.665 79.2812 102.665 77.2571C102.665 75.2202 101.459 73.8693 99.6136 73.8693C97.7685 73.8693 96.5625 75.2202 96.5625 77.2571C96.5625 79.2812 97.7685 80.6321 99.6136 80.6321ZM99.6179 79.5625C98.4119 79.5625 97.8494 78.5099 97.8494 77.2528C97.8494 76 98.4119 74.9347 99.6179 74.9347C100.815 74.9347 101.378 76 101.378 77.2528C101.378 78.5099 100.815 79.5625 99.6179 79.5625ZM104.087 80.5H105.361V76.4645C105.361 75.5824 105.979 74.9688 106.703 74.9688C107.411 74.9688 107.901 75.4375 107.901 76.1491V80.5H109.171V76.3281C109.171 75.5398 109.652 74.9688 110.483 74.9688C111.157 74.9688 111.711 75.3438 111.711 76.2301V80.5H112.985V76.1108C112.985 74.6151 112.15 73.8693 110.965 73.8693C110.023 73.8693 109.316 74.321 109 75.0199H108.932C108.647 74.304 108.046 73.8693 107.172 73.8693C106.307 73.8693 105.664 74.2997 105.391 75.0199H105.31V73.9545H104.087V80.5ZM114.692 82.9545H115.967V79.4815H116.043C116.273 79.8991 116.742 80.6278 117.935 80.6278C119.521 80.6278 120.671 79.358 120.671 77.2401C120.671 75.1179 119.504 73.8693 117.923 73.8693C116.708 73.8693 116.269 74.6108 116.043 75.0156H115.937V73.9545H114.692V82.9545ZM115.941 77.2273C115.941 75.8594 116.538 74.9517 117.65 74.9517C118.805 74.9517 119.384 75.9276 119.384 77.2273C119.384 78.5398 118.788 79.5412 117.65 79.5412C116.555 79.5412 115.941 78.6037 115.941 77.2273ZM124.856 80.6321C126.701 80.6321 127.907 79.2812 127.907 77.2571C127.907 75.2202 126.701 73.8693 124.856 73.8693C123.011 73.8693 121.805 75.2202 121.805 77.2571C121.805 79.2812 123.011 80.6321 124.856 80.6321ZM124.86 79.5625C123.654 79.5625 123.092 78.5099 123.092 77.2528C123.092 76 123.654 74.9347 124.86 74.9347C126.058 74.9347 126.62 76 126.62 77.2528C126.62 78.5099 126.058 79.5625 124.86 79.5625ZM130.603 76.6136C130.603 75.5696 131.243 74.973 132.129 74.973C132.994 74.973 133.518 75.5398 133.518 76.4901V80.5H134.792V76.3366C134.792 74.7173 133.902 73.8693 132.564 73.8693C131.579 73.8693 130.936 74.3253 130.633 75.0199H130.552V73.9545H129.329V80.5H130.603V76.6136ZM139.322 80.6321C140.75 80.6321 141.76 79.929 142.049 78.8636L140.843 78.6463C140.613 79.2642 140.059 79.5795 139.335 79.5795C138.244 79.5795 137.511 78.8722 137.477 77.6108H142.13V77.1591C142.13 74.794 140.716 73.8693 139.233 73.8693C137.409 73.8693 136.207 75.2585 136.207 77.2699C136.207 79.3026 137.392 80.6321 139.322 80.6321ZM137.481 76.6562C137.532 75.7273 138.206 74.9219 139.241 74.9219C140.23 74.9219 140.877 75.6548 140.882 76.6562H137.481ZM144.818 76.6136C144.818 75.5696 145.457 74.973 146.344 74.973C147.209 74.973 147.733 75.5398 147.733 76.4901V80.5H149.007V76.3366C149.007 74.7173 148.116 73.8693 146.778 73.8693C145.794 73.8693 145.151 74.3253 144.848 75.0199H144.767V73.9545H143.544V80.5H144.818V76.6136ZM153.771 73.9545H152.429V72.3864H151.155V73.9545H150.196V74.9773H151.155V78.8423C151.151 80.0312 152.058 80.6065 153.064 80.5852C153.469 80.581 153.741 80.5043 153.891 80.4489L153.661 79.3963C153.575 79.4134 153.418 79.4517 153.213 79.4517C152.8 79.4517 152.429 79.3153 152.429 78.5781V74.9773H153.771V73.9545ZM159.98 75.5526C159.716 74.5341 158.919 73.8693 157.504 73.8693C156.026 73.8693 154.977 74.6491 154.977 75.8082C154.977 76.7372 155.54 77.3551 156.767 77.6278L157.875 77.8707C158.506 78.0114 158.8 78.2926 158.8 78.7017C158.8 79.2088 158.259 79.6051 157.423 79.6051C156.661 79.6051 156.17 79.277 156.017 78.6335L154.786 78.821C154.999 79.9801 155.962 80.6321 157.432 80.6321C159.013 80.6321 160.108 79.7926 160.108 78.608C160.108 77.6832 159.52 77.1122 158.318 76.8352L157.278 76.5966C156.558 76.4261 156.247 76.1832 156.251 75.7401C156.247 75.2372 156.793 74.8793 157.517 74.8793C158.31 74.8793 158.676 75.3182 158.825 75.7571L159.98 75.5526Z" fill="#D5D7E2"/>
<path d="M45.75 104.5L50.25 100L45.75 95.5" stroke="#D5D7E2" stroke-width="1.5"/>
<path fill-rule="evenodd" clip-rule="evenodd" d="M66 94.5C65.45 94.5 65 94.9477 65 95.5V96.5H71L72 95.5L71.29 94.7929C71.11 94.6054 70.85 94.5 70.59 94.5H66ZM66 97.5C65.45 97.5 65 97.9477 65 98.5V104.5C65 105.052 65.45 105.5 66 105.5H78C78.55 105.5 79 105.052 79 104.5V96.5C79 95.9477 78.55 95.5 78 95.5H73.91C73.65 95.5 73.39 95.6054 73.21 95.7929L71.79 97.2071C71.61 97.3946 71.35 97.5 71.09 97.5H66Z" fill="#FFBC57"/>
<path d="M93.7468 95.7727V101.406C93.7468 102.591 92.9286 103.443 91.5991 103.443C90.2738 103.443 89.4513 102.591 89.4513 101.406V95.7727H88.1346V101.513C88.1346 103.345 89.5067 104.645 91.5991 104.645C93.6914 104.645 95.0678 103.345 95.0678 101.513V95.7727H93.7468ZM99.9354 97.9545H98.593V96.3864H97.3189V97.9545H96.3601V98.9773H97.3189V102.842C97.3146 104.031 98.2223 104.607 99.228 104.585C99.6328 104.581 99.9055 104.504 100.055 104.449L99.8246 103.396C99.7393 103.413 99.5817 103.452 99.3771 103.452C98.9638 103.452 98.593 103.315 98.593 102.578V98.9773H99.9354V97.9545ZM101.345 104.5H102.619V97.9545H101.345V104.5ZM101.988 96.9446C102.427 96.9446 102.794 96.6037 102.794 96.1861C102.794 95.7685 102.427 95.4233 101.988 95.4233C101.545 95.4233 101.183 95.7685 101.183 96.1861C101.183 96.6037 101.545 96.9446 101.988 96.9446ZM105.607 95.7727H104.333V104.5H105.607V95.7727Z" fill="#D5D7E2"/>
<path fill-rule="evenodd" clip-rule="evenodd" d="M67.5 120V118.5C67.5 117.672 68.17 117 69 117H78C78.83 117 79.5 117.672 79.5 118.5V120H77.5V123H74.5V127H72.5H67.5V120ZM67 131H72.5V128H65.5V129.5C65.5 130.328 66.17 131 67 131ZM75.5 124H78.5V127H75.5V124ZM76.5 128H73.5V131H76.5V128ZM80.5 128H77.5V131H80.5V128Z" fill="#FF6666"/>
<path d="M89.1346 128.5H90.4513V124.695H94.1587V123.565H90.4513V120.906H94.5465V119.773H89.1346V128.5ZM97.945 128.645C99.0273 128.645 99.6367 128.095 99.8796 127.605H99.9308V128.5H101.175V124.153C101.175 122.249 99.6751 121.869 98.6353 121.869C97.4506 121.869 96.3597 122.347 95.9336 123.54L97.131 123.812C97.3185 123.348 97.7958 122.901 98.6523 122.901C99.4748 122.901 99.8967 123.331 99.8967 124.072V124.102C99.8967 124.567 99.4194 124.558 98.2433 124.695C97.0032 124.839 95.7333 125.163 95.7333 126.651C95.7333 127.938 96.7006 128.645 97.945 128.645ZM98.2219 127.622C97.5018 127.622 96.9819 127.298 96.9819 126.668C96.9819 125.986 97.587 125.743 98.3242 125.645C98.7376 125.589 99.7177 125.479 99.9009 125.295V126.139C99.9009 126.915 99.283 127.622 98.2219 127.622ZM107.777 123.553C107.513 122.534 106.716 121.869 105.301 121.869C103.822 121.869 102.774 122.649 102.774 123.808C102.774 124.737 103.337 125.355 104.564 125.628L105.672 125.871C106.303 126.011 106.597 126.293 106.597 126.702C106.597 127.209 106.055 127.605 105.22 127.605C104.457 127.605 103.967 127.277 103.814 126.634L102.582 126.821C102.795 127.98 103.759 128.632 105.229 128.632C106.81 128.632 107.905 127.793 107.905 126.608C107.905 125.683 107.317 125.112 106.115 124.835L105.075 124.597C104.355 124.426 104.044 124.183 104.048 123.74C104.044 123.237 104.589 122.879 105.314 122.879C106.107 122.879 106.473 123.318 106.622 123.757L107.777 123.553ZM112.361 121.955H111.019V120.386H109.745V121.955H108.786V122.977H109.745V126.842C109.74 128.031 110.648 128.607 111.654 128.585C112.059 128.581 112.331 128.504 112.48 128.449L112.25 127.396C112.165 127.413 112.007 127.452 111.803 127.452C111.39 127.452 111.019 127.315 111.019 126.578V122.977H112.361V121.955ZM116.839 128.5C119.498 128.5 121.036 126.851 121.036 124.124C121.036 121.409 119.498 119.773 116.928 119.773H114.013V128.5H116.839ZM115.33 127.349V120.923H116.847C118.756 120.923 119.741 122.065 119.741 124.124C119.741 126.19 118.756 127.349 116.766 127.349H115.33ZM122.571 128.5H123.846V124.503C123.846 123.646 124.506 123.028 125.409 123.028C125.674 123.028 125.972 123.075 126.074 123.105V121.886C125.946 121.869 125.695 121.857 125.533 121.857C124.766 121.857 124.11 122.291 123.871 122.994H123.803V121.955H122.571V128.5ZM129.023 128.645C130.105 128.645 130.715 128.095 130.958 127.605H131.009V128.5H132.253V124.153C132.253 122.249 130.753 121.869 129.713 121.869C128.529 121.869 127.438 122.347 127.012 123.54L128.209 123.812C128.397 123.348 128.874 122.901 129.73 122.901C130.553 122.901 130.975 123.331 130.975 124.072V124.102C130.975 124.567 130.498 124.558 129.321 124.695C128.081 124.839 126.811 125.163 126.811 126.651C126.811 127.938 127.779 128.645 129.023 128.645ZM129.3 127.622C128.58 127.622 128.06 127.298 128.06 126.668C128.06 125.986 128.665 125.743 129.402 125.645C129.816 125.589 130.796 125.479 130.979 125.295V126.139C130.979 126.915 130.361 127.622 129.3 127.622ZM136.695 131.091C138.361 131.091 139.648 130.328 139.648 128.645V121.955H138.399V123.016H138.305C138.08 122.611 137.628 121.869 136.409 121.869C134.828 121.869 133.665 123.118 133.665 125.202C133.665 127.29 134.854 128.402 136.401 128.402C137.602 128.402 138.067 127.724 138.297 127.307H138.378V128.594C138.378 129.621 137.675 130.064 136.707 130.064C135.646 130.064 135.233 129.531 135.007 129.156L133.912 129.608C134.257 130.409 135.131 131.091 136.695 131.091ZM136.682 127.345C135.544 127.345 134.952 126.472 134.952 125.185C134.952 123.928 135.531 122.952 136.682 122.952C137.794 122.952 138.391 123.859 138.391 125.185C138.391 126.536 137.781 127.345 136.682 127.345ZM144.101 131.091C145.767 131.091 147.054 130.328 147.054 128.645V121.955H145.805V123.016H145.712C145.486 122.611 145.034 121.869 143.815 121.869C142.234 121.869 141.071 123.118 141.071 125.202C141.071 127.29 142.26 128.402 143.807 128.402C145.009 128.402 145.473 127.724 145.703 127.307H145.784V128.594C145.784 129.621 145.081 130.064 144.114 130.064C143.053 130.064 142.639 129.531 142.413 129.156L141.318 129.608C141.663 130.409 142.537 131.091 144.101 131.091ZM144.088 127.345C142.95 127.345 142.358 126.472 142.358 125.185C142.358 123.928 142.938 122.952 144.088 122.952C145.2 122.952 145.797 123.859 145.797 125.185C145.797 126.536 145.188 127.345 144.088 127.345ZM150.668 128.645C151.75 128.645 152.359 128.095 152.602 127.605H152.653V128.5H153.898V124.153C153.898 122.249 152.398 121.869 151.358 121.869C150.173 121.869 149.082 122.347 148.656 123.54L149.854 123.812C150.041 123.348 150.518 122.901 151.375 122.901C152.197 122.901 152.619 123.331 152.619 124.072V124.102C152.619 124.567 152.142 124.558 150.966 124.695C149.726 124.839 148.456 125.163 148.456 126.651C148.456 127.938 149.423 128.645 150.668 128.645ZM150.945 127.622C150.224 127.622 149.705 127.298 149.705 126.668C149.705 125.986 150.31 125.743 151.047 125.645C151.46 125.589 152.44 125.479 152.624 125.295V126.139C152.624 126.915 152.006 127.622 150.945 127.622ZM155.697 128.5H156.941V127.482H157.048C157.278 127.899 157.747 128.628 158.94 128.628C160.525 128.628 161.676 127.358 161.676 125.24C161.676 123.118 160.508 121.869 158.927 121.869C157.713 121.869 157.274 122.611 157.048 123.016H156.971V119.773H155.697V128.5ZM156.946 125.227C156.946 123.859 157.542 122.952 158.654 122.952C159.809 122.952 160.389 123.928 160.389 125.227C160.389 126.54 159.792 127.541 158.654 127.541C157.559 127.541 156.946 126.604 156.946 125.227ZM164.381 119.773H163.107V128.5H164.381V119.773ZM168.916 128.632C170.343 128.632 171.353 127.929 171.643 126.864L170.437 126.646C170.207 127.264 169.653 127.58 168.929 127.58C167.838 127.58 167.105 126.872 167.071 125.611H171.724V125.159C171.724 122.794 170.309 121.869 168.826 121.869C167.002 121.869 165.801 123.259 165.801 125.27C165.801 127.303 166.985 128.632 168.916 128.632ZM167.075 124.656C167.126 123.727 167.799 122.922 168.835 122.922C169.824 122.922 170.471 123.655 170.475 124.656H167.075Z" fill="#D5D7E2"/>
<path fill-rule="evenodd" clip-rule="evenodd" d="M67.5 144V142.5C67.5 141.672 68.17 141 69 141H78C78.83 141 79.5 141.672 79.5 142.5V144H77.5V147H74.5V151H72.5H67.5V144ZM67 155H72.5V152H65.5V153.5C65.5 154.328 66.17 155 67 155ZM75.5 148H78.5V151H75.5V148ZM76.5 152H73.5V155H76.5V152ZM80.5 152H77.5V155H80.5V152Z" fill="#FF6666"/>
<path d="M89.1346 152.5H90.4513V148.695H94.1587V147.565H90.4513V144.906H94.5465V143.773H89.1346V152.5ZM97.945 152.645C99.0273 152.645 99.6367 152.095 99.8796 151.605H99.9308V152.5H101.175V148.153C101.175 146.249 99.6751 145.869 98.6353 145.869C97.4506 145.869 96.3597 146.347 95.9336 147.54L97.131 147.812C97.3185 147.348 97.7958 146.901 98.6523 146.901C99.4748 146.901 99.8967 147.331 99.8967 148.072V148.102C99.8967 148.567 99.4194 148.558 98.2433 148.695C97.0032 148.839 95.7333 149.163 95.7333 150.651C95.7333 151.938 96.7006 152.645 97.945 152.645ZM98.2219 151.622C97.5018 151.622 96.9819 151.298 96.9819 150.668C96.9819 149.986 97.587 149.743 98.3242 149.645C98.7376 149.589 99.7177 149.479 99.9009 149.295V150.139C99.9009 150.915 99.283 151.622 98.2219 151.622ZM107.777 147.553C107.513 146.534 106.716 145.869 105.301 145.869C103.822 145.869 102.774 146.649 102.774 147.808C102.774 148.737 103.337 149.355 104.564 149.628L105.672 149.871C106.303 150.011 106.597 150.293 106.597 150.702C106.597 151.209 106.055 151.605 105.22 151.605C104.457 151.605 103.967 151.277 103.814 150.634L102.582 150.821C102.795 151.98 103.759 152.632 105.229 152.632C106.81 152.632 107.905 151.793 107.905 150.608C107.905 149.683 107.317 149.112 106.115 148.835L105.075 148.597C104.355 148.426 104.044 148.183 104.048 147.74C104.044 147.237 104.589 146.879 105.314 146.879C106.107 146.879 106.473 147.318 106.622 147.757L107.777 147.553ZM112.361 145.955H111.019V144.386H109.745V145.955H108.786V146.977H109.745V150.842C109.74 152.031 110.648 152.607 111.654 152.585C112.059 152.581 112.331 152.504 112.48 152.449L112.25 151.396C112.165 151.413 112.007 151.452 111.803 151.452C111.39 151.452 111.019 151.315 111.019 150.578V146.977H112.361V145.955ZM113.032 144.906H115.751V152.5H117.064V144.906H119.787V143.773H113.032V144.906ZM121.846 152.5H123.141L124.471 147.774H124.569L125.898 152.5H127.198L129.12 145.955H127.803L126.529 150.74H126.465L125.187 145.955H123.87L122.583 150.761H122.519L121.237 145.955H119.92L121.846 152.5ZM132.951 152.632C134.379 152.632 135.388 151.929 135.678 150.864L134.472 150.646C134.242 151.264 133.688 151.58 132.964 151.58C131.873 151.58 131.14 150.872 131.106 149.611H135.759V149.159C135.759 146.794 134.344 145.869 132.862 145.869C131.038 145.869 129.836 147.259 129.836 149.27C129.836 151.303 131.021 152.632 132.951 152.632ZM131.11 148.656C131.161 147.727 131.835 146.922 132.87 146.922C133.859 146.922 134.506 147.655 134.511 148.656H131.11ZM139.994 152.632C141.422 152.632 142.431 151.929 142.721 150.864L141.515 150.646C141.285 151.264 140.731 151.58 140.007 151.58C138.916 151.58 138.183 150.872 138.149 149.611H142.802V149.159C142.802 146.794 141.387 145.869 139.904 145.869C138.081 145.869 136.879 147.259 136.879 149.27C136.879 151.303 138.064 152.632 139.994 152.632ZM138.153 148.656C138.204 147.727 138.877 146.922 139.913 146.922C140.902 146.922 141.549 147.655 141.554 148.656H138.153ZM145.49 148.614C145.49 147.57 146.129 146.973 147.016 146.973C147.881 146.973 148.405 147.54 148.405 148.49V152.5H149.679V148.337C149.679 146.717 148.788 145.869 147.45 145.869C146.466 145.869 145.822 146.325 145.52 147.02H145.439V145.955H144.216V152.5H145.49V148.614Z" fill="#D5D7E2"/>
<path fill-rule="evenodd" clip-rule="evenodd" d="M67.5 168V166.5C67.5 165.672 68.17 165 69 165H78C78.83 165 79.5 165.672 79.5 166.5V168H77.5V171H74.5V175H72.5H67.5V168ZM67 179H72.5V176H65.5V177.5C65.5 178.328 66.17 179 67 179ZM75.5 172H78.5V175H75.5V172ZM76.5 176H73.5V179H76.5V176ZM80.5 176H77.5V179H80.5V176Z" fill="#FF6666"/>
<path d="M90.4513 167.773H89.1346V176.5H90.4513V167.773ZM93.5408 172.614C93.5408 171.57 94.18 170.973 95.0664 170.973C95.9315 170.973 96.4556 171.54 96.4556 172.49V176.5H97.7298V172.337C97.7298 170.717 96.8391 169.869 95.5011 169.869C94.5167 169.869 93.8732 170.325 93.5707 171.02H93.4897V169.955H92.2667V176.5H93.5408V172.614ZM99.4386 178.955H100.713V175.482H100.789C101.02 175.899 101.488 176.628 102.681 176.628C104.267 176.628 105.417 175.358 105.417 173.24C105.417 171.118 104.25 169.869 102.669 169.869C101.454 169.869 101.015 170.611 100.789 171.016H100.683V169.955H99.4386V178.955ZM100.687 173.227C100.687 171.859 101.284 170.952 102.396 170.952C103.551 170.952 104.13 171.928 104.13 173.227C104.13 174.54 103.534 175.541 102.396 175.541C101.301 175.541 100.687 174.604 100.687 173.227ZM110.991 173.786C110.995 174.898 110.169 175.426 109.453 175.426C108.664 175.426 108.119 174.855 108.119 173.964V169.955H106.845V174.118C106.845 175.741 107.735 176.585 108.993 176.585C109.977 176.585 110.646 176.065 110.949 175.366H111.017V176.5H112.27V169.955H110.991V173.786ZM117.037 169.955H115.695V168.386H114.42V169.955H113.462V170.977H114.42V174.842C114.416 176.031 115.324 176.607 116.33 176.585C116.734 176.581 117.007 176.504 117.156 176.449L116.926 175.396C116.841 175.413 116.683 175.452 116.479 175.452C116.065 175.452 115.695 175.315 115.695 174.578V170.977H117.037V169.955Z" fill="#D5D7E2"/>
<path fill-rule="evenodd" clip-rule="evenodd" d="M67.5 192V190.5C67.5 189.672 68.17 189 69 189H78C78.83 189 79.5 189.672 79.5 190.5V192H77.5V195H74.5V199H72.5H67.5V192ZM67 203H72.5V200H65.5V201.5C65.5 202.328 66.17 203 67 203ZM75.5 196H78.5V199H75.5V196ZM76.5 200H73.5V203H76.5V200ZM80.5 200H77.5V203H80.5V200Z" fill="#FF6666"/>
<path d="M89.1346 191.773V200.5H90.3874V194.18H90.4684L93.0423 200.487H94.082L96.6559 194.185H96.7369V200.5H97.9897V191.773H96.3917L93.6133 198.557H93.511L90.7326 191.773H89.1346ZM101.221 191.773H99.9041V200.5H101.221V191.773ZM105.964 200.5C108.623 200.5 110.161 198.851 110.161 196.124C110.161 193.409 108.623 191.773 106.053 191.773H103.138V200.5H105.964ZM104.455 199.349V192.923H105.972C107.881 192.923 108.866 194.065 108.866 196.124C108.866 198.19 107.881 199.349 105.891 199.349H104.455ZM113.115 191.773H111.799V200.5H113.115V191.773Z" fill="#D5D7E2"/>
<path fill-rule="evenodd" clip-rule="evenodd" d="M67.5 216V214.5C67.5 213.672 68.17 213 69 213H78C78.83 213 79.5 213.672 79.5 214.5V216H77.5V219H74.5V223H72.5H67.5V216ZM67 227H72.5V224H65.5V225.5C65.5 226.328 66.17 227 67 227ZM75.5 220H78.5V223H75.5V220ZM76.5 224H73.5V227H76.5V224ZM80.5 224H77.5V227H80.5V224Z" fill="#FF6666"/>
<path d="M93.8945 218.065H95.1644C95.1261 216.668 93.8903 215.653 92.1175 215.653C90.3661 215.653 89.0238 216.655 89.0238 218.159C89.0238 219.374 89.8931 220.085 91.2951 220.464L92.3263 220.746C93.2596 220.993 93.9798 221.3 93.9798 222.075C93.9798 222.928 93.1658 223.49 92.0451 223.49C91.0309 223.49 90.1871 223.038 90.1104 222.088H88.7894C88.8746 223.669 90.0977 224.645 92.0536 224.645C94.1033 224.645 95.2837 223.567 95.2837 222.088C95.2837 220.516 93.8817 219.906 92.7738 219.634L91.9215 219.412C91.2397 219.237 90.332 218.918 90.3363 218.082C90.3363 217.341 91.0138 216.791 92.0877 216.791C93.0891 216.791 93.8008 217.26 93.8945 218.065ZM99.5121 224.632C101.357 224.632 102.563 223.281 102.563 221.257C102.563 219.22 101.357 217.869 99.5121 217.869C97.6669 217.869 96.4609 219.22 96.4609 221.257C96.4609 223.281 97.6669 224.632 99.5121 224.632ZM99.5163 223.562C98.3104 223.562 97.7479 222.51 97.7479 221.253C97.7479 220 98.3104 218.935 99.5163 218.935C100.714 218.935 101.276 220 101.276 221.253C101.276 222.51 100.714 223.562 99.5163 223.562ZM105.26 220.614C105.26 219.57 105.899 218.973 106.785 218.973C107.65 218.973 108.174 219.54 108.174 220.49V224.5H109.449V220.337C109.449 218.717 108.558 217.869 107.22 217.869C106.235 217.869 105.592 218.325 105.289 219.02H105.208V217.955H103.985V224.5H105.26V220.614ZM113.902 227.091C115.568 227.091 116.855 226.328 116.855 224.645V217.955H115.606V219.016H115.512C115.287 218.611 114.835 217.869 113.616 217.869C112.035 217.869 110.872 219.118 110.872 221.202C110.872 223.29 112.061 224.402 113.608 224.402C114.809 224.402 115.274 223.724 115.504 223.307H115.585V224.594C115.585 225.621 114.882 226.064 113.914 226.064C112.853 226.064 112.44 225.531 112.214 225.156L111.119 225.608C111.464 226.409 112.338 227.091 113.902 227.091ZM113.889 223.345C112.751 223.345 112.159 222.472 112.159 221.185C112.159 219.928 112.738 218.952 113.889 218.952C115.001 218.952 115.598 219.859 115.598 221.185C115.598 222.536 114.988 223.345 113.889 223.345Z" fill="#D5D7E2"/>
<path fill-rule="evenodd" clip-rule="evenodd" d="M67.5 240V238.5C67.5 237.672 68.17 237 69 237H78C78.83 237 79.5 237.672 79.5 238.5V240H77.5V243H74.5V247H72.5H67.5V240ZM67 251H72.5V248H65.5V249.5C65.5 250.328 66.17 251 67 251ZM75.5 244H78.5V247H75.5V244ZM76.5 248H73.5V251H76.5V248ZM80.5 248H77.5V251H80.5V248Z" fill="#FF6666"/>
<path d="M88.7042 240.906H91.4229V248.5H92.7354V240.906H95.4585V239.773H88.7042V240.906ZM97.8629 248.645C98.9453 248.645 99.5547 248.095 99.7976 247.605H99.8487V248.5H101.093V244.153C101.093 242.249 99.593 241.869 98.5533 241.869C97.3686 241.869 96.2777 242.347 95.8516 243.54L97.049 243.812C97.2365 243.348 97.7138 242.901 98.5703 242.901C99.3928 242.901 99.8146 243.331 99.8146 244.072V244.102C99.8146 244.567 99.3374 244.558 98.1612 244.695C96.9212 244.839 95.6513 245.163 95.6513 246.651C95.6513 247.938 96.6186 248.645 97.8629 248.645ZM98.1399 247.622C97.4197 247.622 96.8999 247.298 96.8999 246.668C96.8999 245.986 97.505 245.743 98.2422 245.645C98.6555 245.589 99.6357 245.479 99.8189 245.295V246.139C99.8189 246.915 99.201 247.622 98.1399 247.622ZM107.695 243.553C107.431 242.534 106.634 241.869 105.219 241.869C103.74 241.869 102.692 242.649 102.692 243.808C102.692 244.737 103.255 245.355 104.482 245.628L105.59 245.871C106.221 246.011 106.515 246.293 106.515 246.702C106.515 247.209 105.973 247.605 105.138 247.605C104.375 247.605 103.885 247.277 103.732 246.634L102.5 246.821C102.713 247.98 103.676 248.632 105.147 248.632C106.728 248.632 107.823 247.793 107.823 246.608C107.823 245.683 107.235 245.112 106.033 244.835L104.993 244.597C104.273 244.426 103.962 244.183 103.966 243.74C103.962 243.237 104.507 242.879 105.232 242.879C106.025 242.879 106.391 243.318 106.54 243.757L107.695 243.553ZM109.224 248.5H110.498V246.178L111.133 245.543L113.357 248.5H114.921L112.092 244.763L114.742 241.955H113.217L110.609 244.724H110.498V239.773H109.224V248.5ZM120.766 242.065H122.036C121.997 240.668 120.761 239.653 118.989 239.653C117.237 239.653 115.895 240.655 115.895 242.159C115.895 243.374 116.764 244.085 118.166 244.464L119.197 244.746C120.131 244.993 120.851 245.3 120.851 246.075C120.851 246.928 120.037 247.49 118.916 247.49C117.902 247.49 117.058 247.038 116.982 246.088H115.661C115.746 247.669 116.969 248.645 118.925 248.645C120.974 248.645 122.155 247.567 122.155 246.088C122.155 244.516 120.753 243.906 119.645 243.634L118.793 243.412C118.111 243.237 117.203 242.918 117.207 242.082C117.207 241.341 117.885 240.791 118.959 240.791C119.96 240.791 120.672 241.26 120.766 242.065ZM126.383 248.632C127.93 248.632 128.931 247.703 129.072 246.429H127.832C127.67 247.136 127.12 247.554 126.392 247.554C125.314 247.554 124.619 246.655 124.619 245.227C124.619 243.825 125.326 242.943 126.392 242.943C127.201 242.943 127.696 243.455 127.832 244.068H129.072C128.936 242.747 127.858 241.869 126.37 241.869C124.525 241.869 123.332 243.259 123.332 245.257C123.332 247.23 124.483 248.632 126.383 248.632ZM131.709 244.614C131.709 243.57 132.369 242.973 133.277 242.973C134.155 242.973 134.679 243.531 134.679 244.49V248.5H135.953V244.337C135.953 242.705 135.058 241.869 133.712 241.869C132.693 241.869 132.08 242.312 131.773 243.02H131.692V239.773H130.435V248.5H131.709V244.614ZM140.474 248.632C141.902 248.632 142.912 247.929 143.202 246.864L141.996 246.646C141.766 247.264 141.212 247.58 140.487 247.58C139.396 247.58 138.663 246.872 138.629 245.611H143.283V245.159C143.283 242.794 141.868 241.869 140.385 241.869C138.561 241.869 137.359 243.259 137.359 245.27C137.359 247.303 138.544 248.632 140.474 248.632ZM138.634 244.656C138.685 243.727 139.358 242.922 140.393 242.922C141.382 242.922 142.03 243.655 142.034 244.656H138.634ZM147.147 248.628C148.34 248.628 148.809 247.899 149.039 247.482H149.145V248.5H150.39V239.773H149.115V243.016H149.039C148.809 242.611 148.374 241.869 147.155 241.869C145.574 241.869 144.411 243.118 144.411 245.24C144.411 247.358 145.557 248.628 147.147 248.628ZM147.428 247.541C146.29 247.541 145.698 246.54 145.698 245.227C145.698 243.928 146.277 242.952 147.428 242.952C148.54 242.952 149.137 243.859 149.137 245.227C149.137 246.604 148.527 247.541 147.428 247.541ZM156.354 245.786C156.359 246.898 155.532 247.426 154.816 247.426C154.028 247.426 153.482 246.855 153.482 245.964V241.955H152.208V246.118C152.208 247.741 153.099 248.585 154.356 248.585C155.34 248.585 156.009 248.065 156.312 247.366H156.38V248.5H157.633V241.955H156.354V245.786ZM160.619 239.773H159.345V248.5H160.619V239.773ZM165.154 248.632C166.582 248.632 167.592 247.929 167.881 246.864L166.675 246.646C166.445 247.264 165.891 247.58 165.167 247.58C164.076 247.58 163.343 246.872 163.309 245.611H167.962V245.159C167.962 242.794 166.548 241.869 165.065 241.869C163.241 241.869 162.039 243.259 162.039 245.27C162.039 247.303 163.224 248.632 165.154 248.632ZM163.313 244.656C163.364 243.727 164.038 242.922 165.073 242.922C166.062 242.922 166.71 243.655 166.714 244.656H163.313ZM169.376 248.5H170.65V244.503C170.65 243.646 171.311 243.028 172.214 243.028C172.478 243.028 172.777 243.075 172.879 243.105V241.886C172.751 241.869 172.5 241.857 172.338 241.857C171.571 241.857 170.914 242.291 170.676 242.994H170.608V241.955H169.376V248.5Z" fill="#D5D7E2"/>
</g>
<defs>
<filter id="filter0_d" x="0" y="0" width="197" height="278" filterUnits="userSpaceOnUse" color-interpolation-filters="sRGB">
<feFlood flood-opacity="0" result="BackgroundImageFix"/>
<feColorMatrix in="SourceAlpha" type="matrix" values="0 0 0 0 0 0 0 0 0 0 0 0 0 0 0 0 0 0 127 0"/>
<feOffset dy="3"/>
<feGaussianBlur stdDeviation="3.5"/>
<feColorMatrix type="matrix" values="0 0 0 0 0 0 0 0 0 0 0 0 0 0 0 0 0 0 0.18 0"/>
<feBlend mode="normal" in2="BackgroundImageFix" result="effect1_dropShadow"/>
<feBlend mode="normal" in="SourceGraphic" in2="effect1_dropShadow" result="shape"/>
</filter>
</defs>
</svg>
