<svg width="185" height="182" viewBox="0 0 185 182" fill="none" xmlns="http://www.w3.org/2000/svg">
<g filter="url(#filter0_d)">
<rect x="7" y="4" width="171" height="168" rx="4" fill="#21222C"/>
<path d="M21.5 25.75L26 30.25L30.5 25.75" stroke="#D5D7E2" stroke-width="1.5"/>
<path fill-rule="evenodd" clip-rule="evenodd" d="M44.5 24V22.5C44.5 21.6716 45.17 21 46 21H55C55.83 21 56.5 21.6716 56.5 22.5V24H54.5V27H51.5V31H49.5H44.5V24ZM44 35H49.5V32H42.5V33.5C42.5 34.3284 43.17 35 44 35ZM52.5 28H55.5V31H52.5V28ZM53.5 32H50.5V35H53.5V32ZM57.5 32H54.5V35H57.5V32Z" fill="#FF6666"/>
<path d="M66.1346 32.5H67.4513V29.1974H69.2411C69.271 29.1974 69.2965 29.1974 69.3263 29.1974L71.0991 32.5H72.5991L70.6644 28.9673C71.734 28.571 72.2667 27.6804 72.2667 26.5085C72.2667 24.902 71.2695 23.7727 69.2454 23.7727H66.1346V32.5ZM67.4513 28.0639V24.902H69.1048C70.4045 24.902 70.9414 25.5199 70.9414 26.5085C70.9414 27.4929 70.4045 28.0639 69.1218 28.0639H67.4513ZM76.4418 32.6321C78.2869 32.6321 79.4929 31.2812 79.4929 29.2571C79.4929 27.2202 78.2869 25.8693 76.4418 25.8693C74.5966 25.8693 73.3906 27.2202 73.3906 29.2571C73.3906 31.2812 74.5966 32.6321 76.4418 32.6321ZM76.446 31.5625C75.2401 31.5625 74.6776 30.5099 74.6776 29.2528C74.6776 28 75.2401 26.9347 76.446 26.9347C77.6435 26.9347 78.206 28 78.206 29.2528C78.206 30.5099 77.6435 31.5625 76.446 31.5625ZM82.82 32.6449C83.9023 32.6449 84.5117 32.0952 84.7546 31.6051H84.8058V32.5H86.0501V28.1534C86.0501 26.2486 84.5501 25.8693 83.5103 25.8693C82.3256 25.8693 81.2347 26.3466 80.8086 27.5398L82.006 27.8125C82.1935 27.348 82.6708 26.9006 83.5273 26.9006C84.3498 26.9006 84.7717 27.331 84.7717 28.0724V28.1023C84.7717 28.5668 84.2944 28.5582 83.1183 28.6946C81.8782 28.8395 80.6083 29.1634 80.6083 30.6506C80.6083 31.9375 81.5756 32.6449 82.82 32.6449ZM83.0969 31.6222C82.3768 31.6222 81.8569 31.2983 81.8569 30.6676C81.8569 29.9858 82.462 29.7429 83.1992 29.6449C83.6126 29.5895 84.5927 29.4787 84.7759 29.2955V30.1392C84.7759 30.9148 84.158 31.6222 83.0969 31.6222ZM90.5043 32.6321C92.0511 32.6321 93.0526 31.7031 93.1932 30.429H91.9531C91.7912 31.1364 91.2415 31.554 90.5128 31.554C89.4347 31.554 88.7401 30.6548 88.7401 29.2273C88.7401 27.8253 89.4474 26.9432 90.5128 26.9432C91.3224 26.9432 91.8168 27.4545 91.9531 28.0682H93.1932C93.0568 26.7472 91.9787 25.8693 90.4915 25.8693C88.6463 25.8693 87.4531 27.2585 87.4531 29.2571C87.4531 31.2301 88.6037 32.6321 90.5043 32.6321ZM97.6112 25.9545H96.2688V24.3864H94.9947V25.9545H94.0359V26.9773H94.9947V30.8423C94.9904 32.0312 95.8981 32.6065 96.9038 32.5852C97.3086 32.581 97.5813 32.5043 97.7305 32.4489L97.5004 31.3963C97.4151 31.4134 97.2575 31.4517 97.0529 31.4517C96.6396 31.4517 96.2688 31.3153 96.2688 30.5781V26.9773H97.6112V25.9545Z" fill="#D5D7E2"/>
<path d="M46.75 56.5L51.25 52L46.75 47.5" stroke="#D5D7E2" stroke-width="1.5"/>
<path fill-rule="evenodd" clip-rule="evenodd" d="M67 46.5C66.45 46.5 66 46.9477 66 47.5V48.5H72L73 47.5L72.29 46.7929C72.11 46.6054 71.85 46.5 71.59 46.5H67ZM67 49.5C66.45 49.5 66 49.9477 66 50.5V56.5C66 57.0523 66.45 57.5 67 57.5H79C79.55 57.5 80 57.0523 80 56.5V48.5C80 47.9477 79.55 47.5 79 47.5H74.91C74.65 47.5 74.39 47.6054 74.21 47.7929L72.79 49.2071C72.61 49.3946 72.35 49.5 72.09 49.5H67Z" fill="#FFBC57"/>
<path d="M89.1346 56.5H90.4513V53.4318H92.2411C94.2653 53.4318 95.2667 52.2088 95.2667 50.598C95.2667 48.9915 94.2738 47.7727 92.2454 47.7727H89.1346V56.5ZM90.4513 52.3153V48.902H92.1048C93.4087 48.902 93.9414 49.6094 93.9414 50.598C93.9414 51.5866 93.4087 52.3153 92.1218 52.3153H90.4513ZM96.7081 56.5H97.9822V52.5028C97.9822 51.6463 98.6428 51.0284 99.5462 51.0284C99.8104 51.0284 100.109 51.0753 100.211 51.1051V49.8864C100.083 49.8693 99.8317 49.8565 99.6697 49.8565C98.9027 49.8565 98.2464 50.2912 98.0078 50.9943H97.9396V49.9545H96.7081V56.5ZM103.836 56.6321C105.681 56.6321 106.887 55.2812 106.887 53.2571C106.887 51.2202 105.681 49.8693 103.836 49.8693C101.991 49.8693 100.785 51.2202 100.785 53.2571C100.785 55.2812 101.991 56.6321 103.836 56.6321ZM103.841 55.5625C102.635 55.5625 102.072 54.5099 102.072 53.2528C102.072 52 102.635 50.9347 103.841 50.9347C105.038 50.9347 105.6 52 105.6 53.2528C105.6 54.5099 105.038 55.5625 103.841 55.5625ZM108.31 58.9545H109.584V55.4815H109.661C109.891 55.8991 110.359 56.6278 111.553 56.6278C113.138 56.6278 114.288 55.358 114.288 53.2401C114.288 51.1179 113.121 49.8693 111.54 49.8693C110.325 49.8693 109.886 50.6108 109.661 51.0156H109.554V49.9545H108.31V58.9545ZM109.558 53.2273C109.558 51.8594 110.155 50.9517 111.267 50.9517C112.422 50.9517 113.001 51.9276 113.001 53.2273C113.001 54.5398 112.405 55.5412 111.267 55.5412C110.172 55.5412 109.558 54.6037 109.558 53.2273ZM115.818 47.7727V56.5H117.071V50.1804H117.152L119.726 56.4872H120.766L123.339 50.1847H123.42V56.5H124.673V47.7727H123.075L120.297 54.5568H120.195L117.416 47.7727H115.818ZM128.39 56.6449C129.473 56.6449 130.082 56.0952 130.325 55.6051H130.376V56.5H131.62V52.1534C131.62 50.2486 130.12 49.8693 129.081 49.8693C127.896 49.8693 126.805 50.3466 126.379 51.5398L127.576 51.8125C127.764 51.348 128.241 50.9006 129.098 50.9006C129.92 50.9006 130.342 51.331 130.342 52.0724V52.1023C130.342 52.5668 129.865 52.5582 128.689 52.6946C127.449 52.8395 126.179 53.1634 126.179 54.6506C126.179 55.9375 127.146 56.6449 128.39 56.6449ZM128.667 55.6222C127.947 55.6222 127.427 55.2983 127.427 54.6676C127.427 53.9858 128.032 53.7429 128.77 53.6449C129.183 53.5895 130.163 53.4787 130.346 53.2955V54.1392C130.346 54.9148 129.728 55.6222 128.667 55.6222ZM133.317 56.5H134.592V52.5028C134.592 51.6463 135.252 51.0284 136.156 51.0284C136.42 51.0284 136.718 51.0753 136.82 51.1051V49.8864C136.692 49.8693 136.441 49.8565 136.279 49.8565C135.512 49.8565 134.856 50.2912 134.617 50.9943H134.549V49.9545H133.317V56.5ZM137.923 56.5H139.197V54.1776L139.832 53.5426L142.056 56.5H143.62L140.791 52.7628L143.441 49.9545H141.916L139.308 52.7244H139.197V47.7727H137.923V56.5ZM147.154 56.6321C148.582 56.6321 149.592 55.929 149.881 54.8636L148.675 54.6463C148.445 55.2642 147.891 55.5795 147.167 55.5795C146.076 55.5795 145.343 54.8722 145.309 53.6108H149.962V53.1591C149.962 50.794 148.548 49.8693 147.065 49.8693C145.241 49.8693 144.039 51.2585 144.039 53.2699C144.039 55.3026 145.224 56.6321 147.154 56.6321ZM145.313 52.6562C145.364 51.7273 146.038 50.9219 147.073 50.9219C148.062 50.9219 148.71 51.6548 148.714 52.6562H145.313ZM151.376 56.5H152.65V52.5028C152.65 51.6463 153.311 51.0284 154.214 51.0284C154.478 51.0284 154.777 51.0753 154.879 51.1051V49.8864C154.751 49.8693 154.5 49.8565 154.338 49.8565C153.571 49.8565 152.914 50.2912 152.676 50.9943H152.608V49.9545H151.376V56.5ZM160.886 51.5526C160.622 50.5341 159.825 49.8693 158.411 49.8693C156.932 49.8693 155.884 50.6491 155.884 51.8082C155.884 52.7372 156.446 53.3551 157.673 53.6278L158.781 53.8707C159.412 54.0114 159.706 54.2926 159.706 54.7017C159.706 55.2088 159.165 55.6051 158.33 55.6051C157.567 55.6051 157.077 55.277 156.923 54.6335L155.692 54.821C155.905 55.9801 156.868 56.6321 158.338 56.6321C159.919 56.6321 161.014 55.7926 161.014 54.608C161.014 53.6832 160.426 53.1122 159.224 52.8352L158.185 52.5966C157.464 52.4261 157.153 52.1832 157.158 51.7401C157.153 51.2372 157.699 50.8793 158.423 50.8793C159.216 50.8793 159.582 51.3182 159.732 51.7571L160.886 51.5526Z" fill="#D5D7E2"/>
<path fill-rule="evenodd" clip-rule="evenodd" d="M67.5 72V70.5C67.5 69.6716 68.17 69 69 69H78C78.83 69 79.5 69.6716 79.5 70.5V72H77.5V75H74.5V79H72.5H67.5V72ZM67 83H72.5V80H65.5V81.5C65.5 82.3284 66.17 83 67 83ZM75.5 76H78.5V79H75.5V76ZM76.5 80H73.5V83H76.5V80ZM80.5 80H77.5V83H80.5V80Z" fill="#FF6666"/>
<path d="M89.1346 80.5H92.4798C94.5082 80.5 95.4244 79.4901 95.4244 78.152C95.4244 76.8011 94.4783 76.0384 93.6133 75.9915V75.9062C94.4144 75.7017 95.0835 75.1562 95.0835 74.0653C95.0835 72.7741 94.1886 71.7727 92.3306 71.7727H89.1346V80.5ZM90.4513 79.3707V76.5753H92.3988C93.4556 76.5753 94.1161 77.2571 94.1161 78.0881C94.1161 78.821 93.6175 79.3707 92.3519 79.3707H90.4513ZM90.4513 75.5483V72.8935H92.2496C93.2937 72.8935 93.7923 73.4432 93.7923 74.1676C93.7923 75.0114 93.1019 75.5483 92.2156 75.5483H90.4513ZM96.8839 80.5H98.158V73.9545H96.8839V80.5ZM97.5273 72.9446C97.9663 72.9446 98.3327 72.6037 98.3327 72.1861C98.3327 71.7685 97.9663 71.4233 97.5273 71.4233C97.0842 71.4233 96.7219 71.7685 96.7219 72.1861C96.7219 72.6037 97.0842 72.9446 97.5273 72.9446ZM101.146 76.6136C101.146 75.5696 101.786 74.973 102.672 74.973C103.537 74.973 104.061 75.5398 104.061 76.4901V80.5H105.335V76.3366C105.335 74.7173 104.445 73.8693 103.107 73.8693C102.122 73.8693 101.479 74.3253 101.176 75.0199H101.095V73.9545H99.8722V80.5H101.146V76.6136ZM109.494 80.6278C110.688 80.6278 111.156 79.8991 111.386 79.4815H111.493V80.5H112.737V71.7727H111.463V75.0156H111.386C111.156 74.6108 110.722 73.8693 109.503 73.8693C107.922 73.8693 106.759 75.1179 106.759 77.2401C106.759 79.358 107.905 80.6278 109.494 80.6278ZM109.776 79.5412C108.638 79.5412 108.045 78.5398 108.045 77.2273C108.045 75.9276 108.625 74.9517 109.776 74.9517C110.888 74.9517 111.484 75.8594 111.484 77.2273C111.484 78.6037 110.875 79.5412 109.776 79.5412ZM114.556 80.5H115.83V73.9545H114.556V80.5ZM115.199 72.9446C115.638 72.9446 116.005 72.6037 116.005 72.1861C116.005 71.7685 115.638 71.4233 115.199 71.4233C114.756 71.4233 114.394 71.7685 114.394 72.1861C114.394 72.6037 114.756 72.9446 115.199 72.9446ZM118.818 76.6136C118.818 75.5696 119.457 74.973 120.344 74.973C121.209 74.973 121.733 75.5398 121.733 76.4901V80.5H123.007V76.3366C123.007 74.7173 122.116 73.8693 120.778 73.8693C119.794 73.8693 119.151 74.3253 118.848 75.0199H118.767V73.9545H117.544V80.5H118.818V76.6136ZM127.46 83.0909C129.126 83.0909 130.413 82.3281 130.413 80.6449V73.9545H129.165V75.0156H129.071C128.845 74.6108 128.393 73.8693 127.175 73.8693C125.594 73.8693 124.43 75.1179 124.43 77.2017C124.43 79.2898 125.619 80.402 127.166 80.402C128.368 80.402 128.832 79.7244 129.062 79.3068H129.143V80.5938C129.143 81.6207 128.44 82.0639 127.473 82.0639C126.412 82.0639 125.999 81.5312 125.773 81.1562L124.678 81.608C125.023 82.4091 125.896 83.0909 127.46 83.0909ZM127.447 79.3452C126.31 79.3452 125.717 78.4716 125.717 77.1847C125.717 75.9276 126.297 74.9517 127.447 74.9517C128.56 74.9517 129.156 75.8594 129.156 77.1847C129.156 78.5355 128.547 79.3452 127.447 79.3452Z" fill="#D5D7E2"/>
<path fill-rule="evenodd" clip-rule="evenodd" d="M67.5 96V94.5C67.5 93.6716 68.17 93 69 93H78C78.83 93 79.5 93.6716 79.5 94.5V96H77.5V99H74.5V103H72.5H67.5V96ZM67 107H72.5V104H65.5V105.5C65.5 106.328 66.17 107 67 107ZM75.5 100H78.5V103H75.5V100ZM76.5 104H73.5V107H76.5V104ZM80.5 104H77.5V107H80.5V104Z" fill="#FF6666"/>
<path d="M96.3832 98.6108C96.0849 96.7443 94.6232 95.6534 92.7781 95.6534C90.5195 95.6534 88.8533 97.3452 88.8533 100.136C88.8533 102.928 90.511 104.619 92.7781 104.619C94.6957 104.619 96.0977 103.418 96.3832 101.692L95.0536 101.688C94.8278 102.804 93.8903 103.418 92.7866 103.418C91.2908 103.418 90.1616 102.271 90.1616 100.136C90.1616 98.0185 91.2866 96.8551 92.7908 96.8551C93.9031 96.8551 94.8363 97.4815 95.0536 98.6108H96.3832ZM100.614 104.632C102.459 104.632 103.665 103.281 103.665 101.257C103.665 99.2202 102.459 97.8693 100.614 97.8693C98.7685 97.8693 97.5625 99.2202 97.5625 101.257C97.5625 103.281 98.7685 104.632 100.614 104.632ZM100.618 103.562C99.4119 103.562 98.8494 102.51 98.8494 101.253C98.8494 100 99.4119 98.9347 100.618 98.9347C101.815 98.9347 102.378 100 102.378 101.253C102.378 102.51 101.815 103.562 100.618 103.562ZM105.087 104.5H106.361V100.464C106.361 99.5824 106.979 98.9688 107.703 98.9688C108.411 98.9688 108.901 99.4375 108.901 100.149V104.5H110.171V100.328C110.171 99.5398 110.652 98.9688 111.483 98.9688C112.157 98.9688 112.711 99.3438 112.711 100.23V104.5H113.985V100.111C113.985 98.6151 113.15 97.8693 111.965 97.8693C111.023 97.8693 110.316 98.321 110 99.0199H109.932C109.647 98.304 109.046 97.8693 108.172 97.8693C107.307 97.8693 106.664 98.2997 106.391 99.0199H106.31V97.9545H105.087V104.5ZM115.692 106.955H116.967V103.482H117.043C117.273 103.899 117.742 104.628 118.935 104.628C120.521 104.628 121.671 103.358 121.671 101.24C121.671 99.1179 120.504 97.8693 118.923 97.8693C117.708 97.8693 117.269 98.6108 117.043 99.0156H116.937V97.9545H115.692V106.955ZM116.941 101.227C116.941 99.8594 117.538 98.9517 118.65 98.9517C119.805 98.9517 120.384 99.9276 120.384 101.227C120.384 102.54 119.788 103.541 118.65 103.541C117.555 103.541 116.941 102.604 116.941 101.227ZM125.856 104.632C127.701 104.632 128.907 103.281 128.907 101.257C128.907 99.2202 127.701 97.8693 125.856 97.8693C124.011 97.8693 122.805 99.2202 122.805 101.257C122.805 103.281 124.011 104.632 125.856 104.632ZM125.86 103.562C124.654 103.562 124.092 102.51 124.092 101.253C124.092 100 124.654 98.9347 125.86 98.9347C127.058 98.9347 127.62 100 127.62 101.253C127.62 102.51 127.058 103.562 125.86 103.562ZM131.603 100.614C131.603 99.5696 132.243 98.973 133.129 98.973C133.994 98.973 134.518 99.5398 134.518 100.49V104.5H135.792V100.337C135.792 98.7173 134.902 97.8693 133.564 97.8693C132.579 97.8693 131.936 98.3253 131.633 99.0199H131.552V97.9545H130.329V104.5H131.603V100.614ZM140.322 104.632C141.75 104.632 142.76 103.929 143.049 102.864L141.843 102.646C141.613 103.264 141.059 103.58 140.335 103.58C139.244 103.58 138.511 102.872 138.477 101.611H143.13V101.159C143.13 98.794 141.716 97.8693 140.233 97.8693C138.409 97.8693 137.207 99.2585 137.207 101.27C137.207 103.303 138.392 104.632 140.322 104.632ZM138.481 100.656C138.532 99.7273 139.206 98.9219 140.241 98.9219C141.23 98.9219 141.877 99.6548 141.882 100.656H138.481ZM145.818 100.614C145.818 99.5696 146.457 98.973 147.344 98.973C148.209 98.973 148.733 99.5398 148.733 100.49V104.5H150.007V100.337C150.007 98.7173 149.116 97.8693 147.778 97.8693C146.794 97.8693 146.151 98.3253 145.848 99.0199H145.767V97.9545H144.544V104.5H145.818V100.614ZM154.771 97.9545H153.429V96.3864H152.155V97.9545H151.196V98.9773H152.155V102.842C152.151 104.031 153.058 104.607 154.064 104.585C154.469 104.581 154.741 104.504 154.891 104.449L154.661 103.396C154.575 103.413 154.418 103.452 154.213 103.452C153.8 103.452 153.429 103.315 153.429 102.578V98.9773H154.771V97.9545Z" fill="#D5D7E2"/>
<path fill-rule="evenodd" clip-rule="evenodd" d="M67.5 120V118.5C67.5 117.672 68.17 117 69 117H78C78.83 117 79.5 117.672 79.5 118.5V120H77.5V123H74.5V127H72.5H67.5V120ZM67 131H72.5V128H65.5V129.5C65.5 130.328 66.17 131 67 131ZM75.5 124H78.5V127H75.5V124ZM76.5 128H73.5V131H76.5V128ZM80.5 128H77.5V131H80.5V128Z" fill="#FF6666"/>
<path d="M96.3832 122.611C96.0849 120.744 94.6232 119.653 92.7781 119.653C90.5195 119.653 88.8533 121.345 88.8533 124.136C88.8533 126.928 90.511 128.619 92.7781 128.619C94.6957 128.619 96.0977 127.418 96.3832 125.692L95.0536 125.688C94.8278 126.804 93.8903 127.418 92.7866 127.418C91.2908 127.418 90.1616 126.271 90.1616 124.136C90.1616 122.018 91.2866 120.855 92.7908 120.855C93.9031 120.855 94.8363 121.482 95.0536 122.611H96.3832ZM100.614 128.632C102.459 128.632 103.665 127.281 103.665 125.257C103.665 123.22 102.459 121.869 100.614 121.869C98.7685 121.869 97.5625 123.22 97.5625 125.257C97.5625 127.281 98.7685 128.632 100.614 128.632ZM100.618 127.562C99.4119 127.562 98.8494 126.51 98.8494 125.253C98.8494 124 99.4119 122.935 100.618 122.935C101.815 122.935 102.378 124 102.378 125.253C102.378 126.51 101.815 127.562 100.618 127.562ZM106.361 124.614C106.361 123.57 107 122.973 107.887 122.973C108.752 122.973 109.276 123.54 109.276 124.49V128.5H110.55V124.337C110.55 122.717 109.659 121.869 108.321 121.869C107.337 121.869 106.694 122.325 106.391 123.02H106.31V121.955H105.087V128.5H106.361V124.614ZM115.374 121.955H113.963V121.366C113.963 120.787 114.202 120.472 114.824 120.472C115.088 120.472 115.276 120.531 115.395 120.57L115.694 119.538C115.515 119.47 115.144 119.364 114.628 119.364C113.593 119.364 112.685 119.969 112.685 121.196V121.955H111.675V122.977H112.685V128.5H113.963V122.977H115.374V121.955ZM116.689 128.5H117.963V121.955H116.689V128.5ZM117.332 120.945C117.771 120.945 118.137 120.604 118.137 120.186C118.137 119.768 117.771 119.423 117.332 119.423C116.889 119.423 116.527 119.768 116.527 120.186C116.527 120.604 116.889 120.945 117.332 120.945ZM122.421 131.091C124.087 131.091 125.374 130.328 125.374 128.645V121.955H124.126V123.016H124.032C123.806 122.611 123.354 121.869 122.136 121.869C120.555 121.869 119.391 123.118 119.391 125.202C119.391 127.29 120.58 128.402 122.127 128.402C123.329 128.402 123.793 127.724 124.023 127.307H124.104V128.594C124.104 129.621 123.401 130.064 122.434 130.064C121.373 130.064 120.96 129.531 120.734 129.156L119.638 129.608C119.984 130.409 120.857 131.091 122.421 131.091ZM122.408 127.345C121.271 127.345 120.678 126.472 120.678 125.185C120.678 123.928 121.258 122.952 122.408 122.952C123.521 122.952 124.117 123.859 124.117 125.185C124.117 126.536 123.508 127.345 122.408 127.345Z" fill="#D5D7E2"/>
<path fill-rule="evenodd" clip-rule="evenodd" d="M67.5 144V142.5C67.5 141.672 68.17 141 69 141H78C78.83 141 79.5 141.672 79.5 142.5V144H77.5V147H74.5V151H72.5H67.5V144ZM67 155H72.5V152H65.5V153.5C65.5 154.328 66.17 155 67 155ZM75.5 148H78.5V151H75.5V148ZM76.5 152H73.5V155H76.5V152ZM80.5 152H77.5V155H80.5V152Z" fill="#FF6666"/>
<path d="M89.8718 152.581C90.3363 152.581 90.7241 152.202 90.7241 151.729C90.7241 151.264 90.3363 150.881 89.8718 150.881C89.4031 150.881 89.0195 151.264 89.0195 151.729C89.0195 152.202 89.4031 152.581 89.8718 152.581ZM93.2702 152.581C93.7347 152.581 94.1225 152.202 94.1225 151.729C94.1225 151.264 93.7347 150.881 93.2702 150.881C92.8015 150.881 92.418 151.264 92.418 151.729C92.418 152.202 92.8015 152.581 93.2702 152.581ZM96.6687 152.581C97.1332 152.581 97.521 152.202 97.521 151.729C97.521 151.264 97.1332 150.881 96.6687 150.881C96.1999 150.881 95.8164 151.264 95.8164 151.729C95.8164 152.202 96.1999 152.581 96.6687 152.581Z" fill="#D5D7E2"/>
</g>
<defs>
<filter id="filter0_d" x="0" y="0" width="185" height="182" filterUnits="userSpaceOnUse" color-interpolation-filters="sRGB">
<feFlood flood-opacity="0" result="BackgroundImageFix"/>
<feColorMatrix in="SourceAlpha" type="matrix" values="0 0 0 0 0 0 0 0 0 0 0 0 0 0 0 0 0 0 127 0"/>
<feOffset dy="3"/>
<feGaussianBlur stdDeviation="3.5"/>
<feColorMatrix type="matrix" values="0 0 0 0 0 0 0 0 0 0 0 0 0 0 0 0 0 0 0.18 0"/>
<feBlend mode="normal" in2="BackgroundImageFix" result="effect1_dropShadow"/>
<feBlend mode="normal" in="SourceGraphic" in2="effect1_dropShadow" result="shape"/>
</filter>
</defs>
</svg>
