<svg width="201" height="206" viewBox="0 0 201 206" fill="none" xmlns="http://www.w3.org/2000/svg">
<g filter="url(#filter0_d)">
<rect x="7" y="4" width="187" height="192" rx="4" fill="#21222C"/>
<path d="M21.5 25.75L26 30.25L30.5 25.75" stroke="#D5D7E2" stroke-width="1.5"/>
<path fill-rule="evenodd" clip-rule="evenodd" d="M44.5 24V22.5C44.5 21.6716 45.17 21 46 21H55C55.83 21 56.5 21.6716 56.5 22.5V24H54.5V27H51.5V31H49.5H44.5V24ZM44 35H49.5V32H42.5V33.5C42.5 34.3284 43.17 35 44 35ZM52.5 28H55.5V31H52.5V28ZM53.5 32H50.5V35H53.5V32ZM57.5 32H54.5V35H57.5V32Z" fill="#FF6666"/>
<path d="M70.8945 26.0653H72.1644C72.1261 24.6676 70.8903 23.6534 69.1175 23.6534C67.3661 23.6534 66.0238 24.6548 66.0238 26.1591C66.0238 27.3736 66.8931 28.0852 68.2951 28.4645L69.3263 28.7457C70.2596 28.9929 70.9798 29.2997 70.9798 30.0753C70.9798 30.9276 70.1658 31.4901 69.0451 31.4901C68.0309 31.4901 67.1871 31.0384 67.1104 30.0881H65.7894C65.8746 31.669 67.0977 32.6449 69.0536 32.6449C71.1033 32.6449 72.2837 31.5668 72.2837 30.0881C72.2837 28.5156 70.8817 27.9062 69.7738 27.6335L68.9215 27.4119C68.2397 27.2372 67.332 26.9176 67.3363 26.0824C67.3363 25.3409 68.0138 24.7912 69.0877 24.7912C70.0891 24.7912 70.8008 25.2599 70.8945 26.0653ZM76.5121 32.6321C78.0589 32.6321 79.0604 31.7031 79.201 30.429H77.9609C77.799 31.1364 77.2493 31.554 76.5206 31.554C75.4425 31.554 74.7479 30.6548 74.7479 29.2273C74.7479 27.8253 75.4553 26.9432 76.5206 26.9432C77.3303 26.9432 77.8246 27.4545 77.9609 28.0682H79.201C79.0646 26.7472 77.9865 25.8693 76.4993 25.8693C74.6541 25.8693 73.4609 27.2585 73.4609 29.2571C73.4609 31.2301 74.6115 32.6321 76.5121 32.6321ZM80.5636 32.5H81.8377V28.5028C81.8377 27.6463 82.4982 27.0284 83.4016 27.0284C83.6658 27.0284 83.9641 27.0753 84.0664 27.1051V25.8864C83.9386 25.8693 83.6871 25.8565 83.5252 25.8565C82.7582 25.8565 82.1019 26.2912 81.8633 26.9943H81.7951V25.9545H80.5636V32.5ZM85.169 32.5H86.4432V25.9545H85.169V32.5ZM85.8125 24.9446C86.2514 24.9446 86.6179 24.6037 86.6179 24.1861C86.6179 23.7685 86.2514 23.4233 85.8125 23.4233C85.3693 23.4233 85.0071 23.7685 85.0071 24.1861C85.0071 24.6037 85.3693 24.9446 85.8125 24.9446ZM88.1573 34.9545H89.4315V31.4815H89.5082C89.7383 31.8991 90.207 32.6278 91.4002 32.6278C92.9854 32.6278 94.136 31.358 94.136 29.2401C94.136 27.1179 92.9684 25.8693 91.3874 25.8693C90.1729 25.8693 89.734 26.6108 89.5082 27.0156H89.4016V25.9545H88.1573V34.9545ZM89.4059 29.2273C89.4059 27.8594 90.0025 26.9517 91.1147 26.9517C92.2695 26.9517 92.8491 27.9276 92.8491 29.2273C92.8491 30.5398 92.2525 31.5412 91.1147 31.5412C90.0195 31.5412 89.4059 30.6037 89.4059 29.2273ZM98.619 25.9545H97.2766V24.3864H96.0025V25.9545H95.0437V26.9773H96.0025V30.8423C95.9982 32.0312 96.9059 32.6065 97.9116 32.5852C98.3164 32.581 98.5891 32.5043 98.7383 32.4489L98.5082 31.3963C98.4229 31.4134 98.2653 31.4517 98.0607 31.4517C97.6474 31.4517 97.2766 31.3153 97.2766 30.5781V26.9773H98.619V25.9545ZM100.271 32.5H101.588V28.6946H105.939V32.5H107.26V23.7727H105.939V27.5653H101.588V23.7727H100.271V32.5ZM113.222 29.7855C113.226 30.8977 112.399 31.4261 111.683 31.4261C110.895 31.4261 110.349 30.8551 110.349 29.9645V25.9545H109.075V30.1179C109.075 31.7415 109.966 32.5852 111.223 32.5852C112.207 32.5852 112.876 32.0653 113.179 31.3665H113.247V32.5H114.5V25.9545H113.222V29.7855ZM116.314 32.5H117.559V31.4815H117.665C117.895 31.8991 118.364 32.6278 119.557 32.6278C121.142 32.6278 122.293 31.358 122.293 29.2401C122.293 27.1179 121.125 25.8693 119.544 25.8693C118.33 25.8693 117.891 26.6108 117.665 27.0156H117.588V23.7727H116.314V32.5ZM117.563 29.2273C117.563 27.8594 118.159 26.9517 119.272 26.9517C120.426 26.9517 121.006 27.9276 121.006 29.2273C121.006 30.5398 120.409 31.5412 119.272 31.5412C118.176 31.5412 117.563 30.6037 117.563 29.2273Z" fill="#D5D7E2"/>
<path d="M44.5 49.75L49 54.25L53.5 49.75" stroke="#D5D7E2" stroke-width="1.5"/>
<path fill-rule="evenodd" clip-rule="evenodd" d="M67 46.5C66.45 46.5 66 46.9477 66 47.5V48.5H72L73 47.5L72.29 46.7929C72.11 46.6054 71.85 46.5 71.59 46.5H67ZM67 49.5C66.45 49.5 66 49.9477 66 50.5V56.5C66 57.0523 66.45 57.5 67 57.5H79C79.55 57.5 80 57.0523 80 56.5V48.5C80 47.9477 79.55 47.5 79 47.5H74.91C74.65 47.5 74.39 47.6054 74.21 47.7929L72.79 49.2071C72.61 49.3946 72.35 49.5 72.09 49.5H67Z" fill="#FFBC57"/>
<path d="M96.3832 50.6108C96.0849 48.7443 94.6232 47.6534 92.7781 47.6534C90.5195 47.6534 88.8533 49.3452 88.8533 52.1364C88.8533 54.9276 90.511 56.6193 92.7781 56.6193C94.6957 56.6193 96.0977 55.4176 96.3832 53.6918L95.0536 53.6875C94.8278 54.804 93.8903 55.4176 92.7866 55.4176C91.2908 55.4176 90.1616 54.2713 90.1616 52.1364C90.1616 50.0185 91.2866 48.8551 92.7908 48.8551C93.9031 48.8551 94.8363 49.4815 95.0536 50.6108H96.3832ZM100.614 56.6321C102.459 56.6321 103.665 55.2812 103.665 53.2571C103.665 51.2202 102.459 49.8693 100.614 49.8693C98.7685 49.8693 97.5625 51.2202 97.5625 53.2571C97.5625 55.2812 98.7685 56.6321 100.614 56.6321ZM100.618 55.5625C99.4119 55.5625 98.8494 54.5099 98.8494 53.2528C98.8494 52 99.4119 50.9347 100.618 50.9347C101.815 50.9347 102.378 52 102.378 53.2528C102.378 54.5099 101.815 55.5625 100.618 55.5625ZM105.087 56.5H106.361V52.5028C106.361 51.6463 107.022 51.0284 107.925 51.0284C108.189 51.0284 108.488 51.0753 108.59 51.1051V49.8864C108.462 49.8693 108.211 49.8565 108.049 49.8565C107.282 49.8565 106.625 50.2912 106.387 50.9943H106.319V49.9545H105.087V56.5ZM112.279 56.6321C113.707 56.6321 114.717 55.929 115.006 54.8636L113.8 54.6463C113.57 55.2642 113.016 55.5795 112.292 55.5795C111.201 55.5795 110.468 54.8722 110.434 53.6108H115.087V53.1591C115.087 50.794 113.673 49.8693 112.19 49.8693C110.366 49.8693 109.164 51.2585 109.164 53.2699C109.164 55.3026 110.349 56.6321 112.279 56.6321ZM110.438 52.6562C110.489 51.7273 111.163 50.9219 112.198 50.9219C113.187 50.9219 113.835 51.6548 113.839 52.6562H110.438Z" fill="#D5D7E2"/>
<path d="M70.75 80.5L75.25 76L70.75 71.5" stroke="#D5D7E2" stroke-width="1.5"/>
<path fill-rule="evenodd" clip-rule="evenodd" d="M91.5 72V70.5C91.5 69.6716 92.17 69 93 69H102C102.83 69 103.5 69.6716 103.5 70.5V72H101.5V75H98.5V79H96.5H91.5V72ZM91 83H96.5V80H89.5V81.5C89.5 82.3284 90.17 83 91 83ZM99.5 76H102.5V79H99.5V76ZM100.5 80H97.5V83H100.5V80ZM104.5 80H101.5V83H104.5V80Z" fill="#FF6666"/>
<path d="M118.747 71.7727V77.4062C118.747 78.5909 117.929 79.4432 116.599 79.4432C115.274 79.4432 114.451 78.5909 114.451 77.4062V71.7727H113.135V77.5128C113.135 79.3452 114.507 80.6449 116.599 80.6449C118.691 80.6449 120.068 79.3452 120.068 77.5128V71.7727H118.747ZM123.299 71.7727H121.982V80.5H123.299V71.7727ZM125.217 80.5H130.488V79.3665H126.533V71.7727H125.217V80.5ZM131.888 80.5H133.162V73.9545H131.888V80.5ZM132.531 72.9446C132.97 72.9446 133.337 72.6037 133.337 72.1861C133.337 71.7685 132.97 71.4233 132.531 71.4233C132.088 71.4233 131.726 71.7685 131.726 72.1861C131.726 72.6037 132.088 72.9446 132.531 72.9446ZM134.978 80.5H136.223V79.4815H136.329C136.559 79.8991 137.028 80.6278 138.221 80.6278C139.806 80.6278 140.957 79.358 140.957 77.2401C140.957 75.1179 139.789 73.8693 138.208 73.8693C136.994 73.8693 136.555 74.6108 136.329 75.0156H136.252V71.7727H134.978V80.5ZM136.227 77.2273C136.227 75.8594 136.824 74.9517 137.936 74.9517C139.091 74.9517 139.67 75.9276 139.67 77.2273C139.67 78.5398 139.074 79.5412 137.936 79.5412C136.841 79.5412 136.227 78.6037 136.227 77.2273ZM142.388 80.5H143.662V76.5028C143.662 75.6463 144.322 75.0284 145.226 75.0284C145.49 75.0284 145.788 75.0753 145.891 75.1051V73.8864C145.763 73.8693 145.511 73.8565 145.349 73.8565C144.582 73.8565 143.926 74.2912 143.688 74.9943H143.619V73.9545H142.388V80.5ZM148.839 80.6449C149.922 80.6449 150.531 80.0952 150.774 79.6051H150.825V80.5H152.07V76.1534C152.07 74.2486 150.57 73.8693 149.53 73.8693C148.345 73.8693 147.254 74.3466 146.828 75.5398L148.026 75.8125C148.213 75.348 148.69 74.9006 149.547 74.9006C150.369 74.9006 150.791 75.331 150.791 76.0724V76.1023C150.791 76.5668 150.314 76.5582 149.138 76.6946C147.898 76.8395 146.628 77.1634 146.628 78.6506C146.628 79.9375 147.595 80.6449 148.839 80.6449ZM149.116 79.6222C148.396 79.6222 147.876 79.2983 147.876 78.6676C147.876 77.9858 148.482 77.7429 149.219 77.6449C149.632 77.5895 150.612 77.4787 150.795 77.2955V78.1392C150.795 78.9148 150.178 79.6222 149.116 79.6222ZM153.767 80.5H155.041V76.5028C155.041 75.6463 155.701 75.0284 156.605 75.0284C156.869 75.0284 157.167 75.0753 157.27 75.1051V73.8864C157.142 73.8693 156.89 73.8565 156.728 73.8565C155.961 73.8565 155.305 74.2912 155.066 74.9943H154.998V73.9545H153.767V80.5ZM159.377 82.9545C160.429 82.9545 161.094 82.4048 161.473 81.3736L164.179 73.9673L162.803 73.9545L161.145 79.0341H161.077L159.419 73.9545H158.056L160.451 80.5852L160.293 81.0199C159.969 81.8892 159.513 81.9616 158.814 81.7699L158.507 82.8139C158.661 82.8821 158.993 82.9545 159.377 82.9545Z" fill="#D5D7E2"/>
<path d="M44.5 97.75L49 102.25L53.5 97.75" stroke="#D5D7E2" stroke-width="1.5"/>
<path fill-rule="evenodd" clip-rule="evenodd" d="M67 94.5C66.45 94.5 66 94.9477 66 95.5V96.5H72L73 95.5L72.29 94.7929C72.11 94.6054 71.85 94.5 71.59 94.5H67ZM67 97.5C66.45 97.5 66 97.9477 66 98.5V104.5C66 105.052 66.45 105.5 67 105.5H79C79.55 105.5 80 105.052 80 104.5V96.5C80 95.9477 79.55 95.5 79 95.5H74.91C74.65 95.5 74.39 95.6054 74.21 95.7929L72.79 97.2071C72.61 97.3946 72.35 97.5 72.09 97.5H67Z" fill="#FFBC57"/>
<path d="M89.1346 95.7727V104.5H90.3874V98.1804H90.4684L93.0423 104.487H94.082L96.6559 98.1847H96.7369V104.5H97.9897V95.7727H96.3917L93.6133 102.557H93.511L90.7326 95.7727H89.1346ZM102.559 104.632C104.404 104.632 105.61 103.281 105.61 101.257C105.61 99.2202 104.404 97.8693 102.559 97.8693C100.714 97.8693 99.5078 99.2202 99.5078 101.257C99.5078 103.281 100.714 104.632 102.559 104.632ZM102.563 103.562C101.357 103.562 100.795 102.51 100.795 101.253C100.795 100 101.357 98.9347 102.563 98.9347C103.761 98.9347 104.323 100 104.323 101.253C104.323 102.51 103.761 103.562 102.563 103.562ZM109.483 104.628C110.676 104.628 111.145 103.899 111.375 103.482H111.481V104.5H112.725V95.7727H111.451V99.0156H111.375C111.145 98.6108 110.71 97.8693 109.491 97.8693C107.91 97.8693 106.747 99.1179 106.747 101.24C106.747 103.358 107.893 104.628 109.483 104.628ZM109.764 103.541C108.626 103.541 108.034 102.54 108.034 101.227C108.034 99.9276 108.613 98.9517 109.764 98.9517C110.876 98.9517 111.473 99.8594 111.473 101.227C111.473 102.604 110.863 103.541 109.764 103.541ZM118.69 101.786C118.695 102.898 117.868 103.426 117.152 103.426C116.364 103.426 115.818 102.855 115.818 101.964V97.9545H114.544V102.118C114.544 103.741 115.435 104.585 116.692 104.585C117.676 104.585 118.345 104.065 118.648 103.366H118.716V104.5H119.969V97.9545H118.69V101.786ZM122.955 95.7727H121.681V104.5H122.955V95.7727ZM127.49 104.632C128.918 104.632 129.928 103.929 130.217 102.864L129.011 102.646C128.781 103.264 128.227 103.58 127.503 103.58C126.412 103.58 125.679 102.872 125.645 101.611H130.298V101.159C130.298 98.794 128.884 97.8693 127.401 97.8693C125.577 97.8693 124.375 99.2585 124.375 101.27C124.375 103.303 125.56 104.632 127.49 104.632ZM125.649 100.656C125.7 99.7273 126.374 98.9219 127.409 98.9219C128.398 98.9219 129.045 99.6548 129.05 100.656H125.649ZM136.617 99.5526C136.353 98.5341 135.556 97.8693 134.141 97.8693C132.662 97.8693 131.614 98.6491 131.614 99.8082C131.614 100.737 132.176 101.355 133.404 101.628L134.512 101.871C135.142 102.011 135.436 102.293 135.436 102.702C135.436 103.209 134.895 103.605 134.06 103.605C133.297 103.605 132.807 103.277 132.654 102.634L131.422 102.821C131.635 103.98 132.598 104.632 134.069 104.632C135.65 104.632 136.745 103.793 136.745 102.608C136.745 101.683 136.157 101.112 134.955 100.835L133.915 100.597C133.195 100.426 132.884 100.183 132.888 99.7401C132.884 99.2372 133.429 98.8793 134.154 98.8793C134.946 98.8793 135.313 99.3182 135.462 99.7571L136.617 99.5526Z" fill="#D5D7E2"/>
<path d="M70.75 128.5L75.25 124L70.75 119.5" stroke="#D5D7E2" stroke-width="1.5"/>
<path fill-rule="evenodd" clip-rule="evenodd" d="M91.5 120V118.5C91.5 117.672 92.17 117 93 117H102C102.83 117 103.5 117.672 103.5 118.5V120H101.5V123H98.5V127H96.5H91.5V120ZM91 131H96.5V128H89.5V129.5C89.5 130.328 90.17 131 91 131ZM99.5 124H102.5V127H99.5V124ZM100.5 128H97.5V131H100.5V128ZM104.5 128H101.5V131H104.5V128Z" fill="#FF6666"/>
<path d="M113.135 128.5H118.657V127.366H114.451V124.695H118.321V123.565H114.451V120.906H118.606V119.773H113.135V128.5ZM121.268 121.955H119.871L121.882 125.227L119.845 128.5H121.243L122.713 126.054L124.188 128.5H125.581L123.523 125.227L125.564 121.955H124.17L122.713 124.503L121.268 121.955ZM126.872 130.955H128.146V127.482H128.223C128.453 127.899 128.922 128.628 130.115 128.628C131.7 128.628 132.851 127.358 132.851 125.24C132.851 123.118 131.683 121.869 130.102 121.869C128.888 121.869 128.449 122.611 128.223 123.016H128.116V121.955H126.872V130.955ZM128.121 125.227C128.121 123.859 128.717 122.952 129.83 122.952C130.984 122.952 131.564 123.928 131.564 125.227C131.564 126.54 130.967 127.541 129.83 127.541C128.734 127.541 128.121 126.604 128.121 125.227ZM135.553 119.773H134.278V128.5H135.553V119.773ZM140.024 128.632C141.869 128.632 143.075 127.281 143.075 125.257C143.075 123.22 141.869 121.869 140.024 121.869C138.179 121.869 136.973 123.22 136.973 125.257C136.973 127.281 138.179 128.632 140.024 128.632ZM140.028 127.562C138.822 127.562 138.26 126.51 138.26 125.253C138.26 124 138.822 122.935 140.028 122.935C141.225 122.935 141.788 124 141.788 125.253C141.788 126.51 141.225 127.562 140.028 127.562ZM144.497 128.5H145.771V124.503C145.771 123.646 146.432 123.028 147.335 123.028C147.599 123.028 147.898 123.075 148 123.105V121.886C147.872 121.869 147.621 121.857 147.459 121.857C146.692 121.857 146.036 122.291 145.797 122.994H145.729V121.955H144.497V128.5ZM151.689 128.632C153.117 128.632 154.127 127.929 154.417 126.864L153.211 126.646C152.98 127.264 152.426 127.58 151.702 127.58C150.611 127.58 149.878 126.872 149.844 125.611H154.498V125.159C154.498 122.794 153.083 121.869 151.6 121.869C149.776 121.869 148.574 123.259 148.574 125.27C148.574 127.303 149.759 128.632 151.689 128.632ZM149.848 124.656C149.9 123.727 150.573 122.922 151.608 122.922C152.597 122.922 153.245 123.655 153.249 124.656H149.848ZM155.911 128.5H157.185V124.503C157.185 123.646 157.846 123.028 158.749 123.028C159.013 123.028 159.312 123.075 159.414 123.105V121.886C159.286 121.869 159.035 121.857 158.873 121.857C158.106 121.857 157.45 122.291 157.211 122.994H157.143V121.955H155.911V128.5Z" fill="#D5D7E2"/>
<path fill-rule="evenodd" clip-rule="evenodd" d="M91.5 144V142.5C91.5 141.672 92.17 141 93 141H102C102.83 141 103.5 141.672 103.5 142.5V144H101.5V147H98.5V151H96.5H91.5V144ZM91 155H96.5V152H89.5V153.5C89.5 154.328 90.17 155 91 155ZM99.5 148H102.5V151H99.5V148ZM100.5 152H97.5V155H100.5V152ZM104.5 152H101.5V155H104.5V152Z" fill="#FF6666"/>
<path d="M113.135 152.5H114.451V149.197H116.241C116.271 149.197 116.297 149.197 116.326 149.197L118.099 152.5H119.599L117.664 148.967C118.734 148.571 119.267 147.68 119.267 146.509C119.267 144.902 118.27 143.773 116.245 143.773H113.135V152.5ZM114.451 148.064V144.902H116.105C117.404 144.902 117.941 145.52 117.941 146.509C117.941 147.493 117.404 148.064 116.122 148.064H114.451ZM123.506 152.632C124.933 152.632 125.943 151.929 126.233 150.864L125.027 150.646C124.797 151.264 124.243 151.58 123.518 151.58C122.428 151.58 121.695 150.872 121.661 149.611H126.314V149.159C126.314 146.794 124.899 145.869 123.416 145.869C121.592 145.869 120.391 147.259 120.391 149.27C120.391 151.303 121.575 152.632 123.506 152.632ZM121.665 148.656C121.716 147.727 122.389 146.922 123.425 146.922C124.413 146.922 125.061 147.655 125.065 148.656H121.665ZM127.728 152.5H129.002V148.464C129.002 147.582 129.62 146.969 130.344 146.969C131.051 146.969 131.542 147.438 131.542 148.149V152.5H132.811V148.328C132.811 147.54 133.293 146.969 134.124 146.969C134.797 146.969 135.351 147.344 135.351 148.23V152.5H136.625V148.111C136.625 146.615 135.79 145.869 134.605 145.869C133.664 145.869 132.956 146.321 132.641 147.02H132.573C132.287 146.304 131.686 145.869 130.813 145.869C129.948 145.869 129.304 146.3 129.032 147.02H128.951V145.955H127.728V152.5ZM141.09 152.632C142.935 152.632 144.141 151.281 144.141 149.257C144.141 147.22 142.935 145.869 141.09 145.869C139.245 145.869 138.039 147.22 138.039 149.257C138.039 151.281 139.245 152.632 141.09 152.632ZM141.094 151.562C139.888 151.562 139.326 150.51 139.326 149.253C139.326 148 139.888 146.935 141.094 146.935C142.292 146.935 142.854 148 142.854 149.253C142.854 150.51 142.292 151.562 141.094 151.562ZM148.619 145.955H147.277V144.386H146.002V145.955H145.044V146.977H146.002V150.842C145.998 152.031 146.906 152.607 147.912 152.585C148.316 152.581 148.589 152.504 148.738 152.449L148.508 151.396C148.423 151.413 148.265 151.452 148.061 151.452C147.647 151.452 147.277 151.315 147.277 150.578V146.977H148.619V145.955ZM152.779 152.632C154.207 152.632 155.217 151.929 155.506 150.864L154.3 150.646C154.07 151.264 153.516 151.58 152.792 151.58C151.701 151.58 150.968 150.872 150.934 149.611H155.587V149.159C155.587 146.794 154.173 145.869 152.69 145.869C150.866 145.869 149.664 147.259 149.664 149.27C149.664 151.303 150.849 152.632 152.779 152.632ZM150.938 148.656C150.989 147.727 151.663 146.922 152.698 146.922C153.687 146.922 154.335 147.655 154.339 148.656H150.938ZM161.863 146.065H163.133C163.095 144.668 161.859 143.653 160.086 143.653C158.335 143.653 156.993 144.655 156.993 146.159C156.993 147.374 157.862 148.085 159.264 148.464L160.295 148.746C161.228 148.993 161.949 149.3 161.949 150.075C161.949 150.928 161.135 151.49 160.014 151.49C159 151.49 158.156 151.038 158.079 150.088H156.758C156.843 151.669 158.066 152.645 160.022 152.645C162.072 152.645 163.252 151.567 163.252 150.088C163.252 148.516 161.85 147.906 160.743 147.634L159.89 147.412C159.208 147.237 158.301 146.918 158.305 146.082C158.305 145.341 158.983 144.791 160.056 144.791C161.058 144.791 161.77 145.26 161.863 146.065ZM164.724 154.955H165.998V151.482H166.075C166.305 151.899 166.773 152.628 167.967 152.628C169.552 152.628 170.702 151.358 170.702 149.24C170.702 147.118 169.535 145.869 167.954 145.869C166.739 145.869 166.3 146.611 166.075 147.016H165.968V145.955H164.724V154.955ZM165.972 149.227C165.972 147.859 166.569 146.952 167.681 146.952C168.836 146.952 169.415 147.928 169.415 149.227C169.415 150.54 168.819 151.541 167.681 151.541C166.586 151.541 165.972 150.604 165.972 149.227ZM172.701 154.955C173.754 154.955 174.418 154.405 174.798 153.374L177.504 145.967L176.127 145.955L174.469 151.034H174.401L172.744 145.955H171.38L173.775 152.585L173.617 153.02C173.293 153.889 172.837 153.962 172.138 153.77L171.832 154.814C171.985 154.882 172.317 154.955 172.701 154.955Z" fill="#D5D7E2"/>
<path fill-rule="evenodd" clip-rule="evenodd" d="M67.5 168V166.5C67.5 165.672 68.17 165 69 165H78C78.83 165 79.5 165.672 79.5 166.5V168H77.5V171H74.5V175H72.5H67.5V168ZM67 179H72.5V176H65.5V177.5C65.5 178.328 66.17 179 67 179ZM75.5 172H78.5V175H75.5V172ZM76.5 176H73.5V179H76.5V176ZM80.5 176H77.5V179H80.5V176Z" fill="#FF6666"/>
<path d="M89.8718 176.581C90.3363 176.581 90.7241 176.202 90.7241 175.729C90.7241 175.264 90.3363 174.881 89.8718 174.881C89.4031 174.881 89.0195 175.264 89.0195 175.729C89.0195 176.202 89.4031 176.581 89.8718 176.581ZM93.2702 176.581C93.7347 176.581 94.1225 176.202 94.1225 175.729C94.1225 175.264 93.7347 174.881 93.2702 174.881C92.8015 174.881 92.418 175.264 92.418 175.729C92.418 176.202 92.8015 176.581 93.2702 176.581ZM96.6687 176.581C97.1332 176.581 97.521 176.202 97.521 175.729C97.521 175.264 97.1332 174.881 96.6687 174.881C96.1999 174.881 95.8164 175.264 95.8164 175.729C95.8164 176.202 96.1999 176.581 96.6687 176.581Z" fill="#D5D7E2"/>
</g>
<defs>
<filter id="filter0_d" x="0" y="0" width="201" height="206" filterUnits="userSpaceOnUse" color-interpolation-filters="sRGB">
<feFlood flood-opacity="0" result="BackgroundImageFix"/>
<feColorMatrix in="SourceAlpha" type="matrix" values="0 0 0 0 0 0 0 0 0 0 0 0 0 0 0 0 0 0 127 0"/>
<feOffset dy="3"/>
<feGaussianBlur stdDeviation="3.5"/>
<feColorMatrix type="matrix" values="0 0 0 0 0 0 0 0 0 0 0 0 0 0 0 0 0 0 0.18 0"/>
<feBlend mode="normal" in2="BackgroundImageFix" result="effect1_dropShadow"/>
<feBlend mode="normal" in="SourceGraphic" in2="effect1_dropShadow" result="shape"/>
</filter>
</defs>
</svg>
