<svg id="Layer_1" data-name="Layer 1" xmlns="http://www.w3.org/2000/svg" viewBox="0 0 36 36"><defs><style>.cls-1{fill:#19b8fa;}.cls-2{fill:#73d7ff;}</style></defs><path class="cls-1" d="M29.56,8.82,9.27,3.39A2,2,0,0,0,6.82,4.8L1.39,25.09A2,2,0,0,0,2.8,27.54l15.89,4.25a.37.37,0,0,1,0-.11v-4a3,3,0,0,1,3-3h1.18a2.77,2.77,0,0,1-.18-1v-4a3,3,0,0,1,3-3h3.84L31,11.27A2,2,0,0,0,29.56,8.82ZM18,21.24,13.12,20l1.29-4.83,4.83,1.29Z"/><rect class="cls-2" x="20.68" y="26.68" width="6" height="6" rx="1"/><rect class="cls-2" x="28.68" y="26.68" width="6" height="6" rx="1"/><rect class="cls-2" x="24.68" y="18.68" width="6" height="6" rx="1"/></svg>